<?xml version="1.0" encoding="iso-8859-1"?>
<!-- Generator: Adobe Illustrator 21.0.0, SVG Export Plug-In . SVG Version: 6.00 Build 0)  -->
<svg version="1.1" id="Capa_1" xmlns="http://www.w3.org/2000/svg" xmlns:xlink="http://www.w3.org/1999/xlink" x="0px" y="0px"
	 viewBox="0 0 135.87 71.4" style="enable-background:new 0 0 135.87 71.4;" xml:space="preserve">
<g>
	
		<path style="fill-rule:evenodd;clip-rule:evenodd;fill:#00224B;stroke:#00224B;stroke-width:0.4799;stroke-linecap:round;stroke-linejoin:round;stroke-miterlimit:22.9256;" d="
		M3.23,0h129.4c1.78,0,3.23,1.46,3.23,3.23v64.93c0,1.78-1.46,3.23-3.23,3.23H3.23C1.46,71.4,0,69.94,0,68.16V3.23
		C0,1.46,1.46,0,3.23,0L3.23,0z"/>
	<path style="fill:#48803A;" d="M16.78,40.35c-0.64-1.6-0.99-3.35-0.99-5.17c0-1.03,0.11-2.03,0.32-3c1.39,1.67,3.49,2.74,5.84,2.74
		c0.09,0,0.18,0,0.27-0.01c0,0.09-0.01,0.18-0.01,0.27c0,2.35,1.07,4.45,2.74,5.84c-0.97,0.21-1.97,0.32-3,0.32
		C20.13,41.34,18.38,40.99,16.78,40.35L16.78,40.35z"/>
	<path style="fill:#167298;" d="M42.85,40.35c0.64-1.6,0.99-3.35,0.99-5.17c0-1.03-0.11-2.03-0.32-3c-1.39,1.67-3.49,2.74-5.84,2.74
		c-0.09,0-0.18,0-0.27-0.01c0,0.09,0.01,0.18,0.01,0.27c0,2.35-1.07,4.45-2.74,5.84c0.97,0.21,1.97,0.32,3,0.32
		C39.5,41.34,41.25,40.99,42.85,40.35L42.85,40.35z"/>
	<path style="fill:#339FA6;" d="M22.22,34.88c0,0.02,0,0.03,0,0.03c-0.09,0-0.18,0.01-0.27,0.01c-2.35,0-4.44-1.07-5.84-2.74
		c0.39-1.77,1.11-3.41,2.09-4.86c0.55,0.81,1.18,1.56,1.88,2.23v0c0.22,0.23,0.47,0.42,0.74,0.57c0,0,0,0,0.01,0
		c0.09,0.05,0.17,0.09,0.26,0.13c0.01,0,0.01,0.01,0.02,0.01c0.08,0.04,0.17,0.07,0.26,0.1c0.01,0.01,0.03,0.01,0.04,0.02
		c0.08,0.03,0.17,0.05,0.25,0.07c0.02,0,0.04,0.01,0.06,0.02c0.08,0.02,0.17,0.03,0.25,0.04c0.02,0,0.05,0.01,0.07,0.01
		c0.11,0.01,0.22,0.02,0.33,0.02c0.85,0,1.62-0.33,2.19-0.87c0,0,0,0,0,0c0,0,0,0,0.01,0v0C23.2,30.99,22.22,32.83,22.22,34.88
		L22.22,34.88z"/>
	<path style="fill:#339FA6;" d="M37.41,34.88c0,0.02,0,0.03,0,0.03c0.09,0,0.18,0.01,0.27,0.01c2.35,0,4.45-1.07,5.84-2.74
		c-0.39-1.77-1.11-3.41-2.09-4.86c-0.55,0.81-1.18,1.56-1.88,2.23l0,0c-0.22,0.23-0.47,0.42-0.74,0.57c0,0,0,0-0.01,0
		c-0.09,0.05-0.17,0.09-0.26,0.13c-0.01,0-0.01,0.01-0.02,0.01c-0.08,0.04-0.17,0.07-0.26,0.1c-0.01,0.01-0.03,0.01-0.04,0.02
		c-0.08,0.03-0.17,0.05-0.25,0.07c-0.02,0-0.04,0.01-0.06,0.02c-0.08,0.02-0.17,0.03-0.25,0.04c-0.02,0-0.05,0.01-0.07,0.01
		c-0.11,0.01-0.22,0.02-0.33,0.02c-0.85,0-1.62-0.33-2.19-0.87c0,0,0,0,0,0c0,0,0,0-0.01,0c0,0,0,0,0,0
		C36.43,30.99,37.41,32.83,37.41,34.88L37.41,34.88z"/>
	<path style="fill:#71732A;" d="M16.78,14.28c-0.64,1.6-0.99,3.35-0.99,5.17c0,1.03,0.11,2.03,0.32,3c1.39-1.67,3.49-2.74,5.84-2.74
		c0.09,0,0.18,0,0.27,0.01c0-0.09-0.01-0.18-0.01-0.27c0-2.35,1.07-4.45,2.74-5.84c-0.97-0.21-1.97-0.32-3-0.32
		C20.13,13.29,18.38,13.65,16.78,14.28L16.78,14.28z"/>
	<path style="fill:#DFA327;" d="M22.25,34.91c-0.02,0-0.03,0-0.03,0c0,0.09-0.01,0.18-0.01,0.27c0,2.35,1.06,4.45,2.74,5.84
		c1.77-0.39,3.41-1.11,4.86-2.09c-0.81-0.55-1.56-1.18-2.23-1.88c0,0,0,0,0,0c-0.22-0.22-0.42-0.47-0.57-0.74c0,0,0,0,0-0.01
		c-0.05-0.09-0.09-0.17-0.13-0.27c0-0.01-0.01-0.01-0.01-0.02c-0.04-0.08-0.07-0.17-0.1-0.26c0-0.01-0.01-0.03-0.01-0.04
		c-0.03-0.08-0.05-0.17-0.07-0.25c0-0.02-0.01-0.04-0.01-0.06c-0.02-0.08-0.03-0.17-0.04-0.25c0-0.03-0.01-0.05-0.01-0.07
		c-0.01-0.11-0.02-0.22-0.02-0.33c0-0.85,0.33-1.62,0.87-2.19c0,0,0,0,0,0c0,0,0,0,0-0.01c0,0,0,0,0,0
		C26.14,33.93,24.3,34.91,22.25,34.91L22.25,34.91z"/>
	<path style="fill:#DFA327;" d="M22.25,19.73c-0.02,0-0.03,0-0.03,0c0-0.09-0.01-0.18-0.01-0.27c0-2.35,1.06-4.44,2.74-5.84
		c1.77,0.39,3.41,1.1,4.86,2.09c-0.81,0.55-1.56,1.18-2.23,1.88l0,0c-0.22,0.22-0.42,0.47-0.57,0.74c0,0,0,0,0,0.01
		c-0.05,0.09-0.09,0.17-0.13,0.26c0,0.01-0.01,0.01-0.01,0.02c-0.04,0.08-0.07,0.17-0.1,0.26c0,0.01-0.01,0.03-0.01,0.04
		c-0.03,0.08-0.05,0.17-0.07,0.25c0,0.02-0.01,0.04-0.01,0.06c-0.02,0.08-0.03,0.17-0.04,0.25c0,0.02-0.01,0.05-0.01,0.07
		c-0.01,0.11-0.02,0.22-0.02,0.33c0,0.85,0.33,1.62,0.87,2.19c0,0,0,0,0,0c0,0,0,0,0,0.01c0,0,0,0,0,0
		C26.14,20.7,24.3,19.73,22.25,19.73L22.25,19.73z"/>
	<path style="fill:#C12A21;" d="M32.62,36.3C32.62,36.3,32.62,36.3,32.62,36.3c0.05-0.09,0.09-0.18,0.13-0.27
		c0-0.01,0.01-0.01,0.01-0.02c0.04-0.09,0.07-0.17,0.1-0.26c0-0.02,0.01-0.03,0.01-0.04c0.03-0.08,0.05-0.17,0.07-0.25
		c0.01-0.02,0.01-0.04,0.02-0.06c0.02-0.08,0.03-0.17,0.04-0.25c0-0.02,0.01-0.05,0.01-0.07c0.01-0.11,0.02-0.22,0.02-0.33
		c0-1.78-1.44-3.21-3.21-3.21c-1.78,0-3.21,1.44-3.21,3.21c0,0.11,0.01,0.22,0.02,0.33c0,0.02,0.01,0.03,0.01,0.05
		c0.01,0.09,0.02,0.18,0.04,0.27c0,0.02,0.01,0.03,0.01,0.05c0.02,0.09,0.04,0.18,0.07,0.27c0,0.01,0.01,0.02,0.01,0.03
		c0.03,0.09,0.06,0.18,0.1,0.27c0,0,0,0.01,0.01,0.01c0.17,0.39,0.41,0.73,0.71,1.02c0.68,0.7,1.42,1.33,2.23,1.88
		c0.81-0.55,1.56-1.18,2.23-1.88C32.27,36.83,32.47,36.58,32.62,36.3L32.62,36.3z"/>
	<path style="fill:#C12A21;" d="M33.01,19.56c0-0.03-0.01-0.05-0.01-0.07c-0.01-0.08-0.02-0.17-0.04-0.25
		c0-0.02-0.01-0.04-0.02-0.06c-0.02-0.09-0.04-0.17-0.07-0.25c0-0.01-0.01-0.03-0.02-0.04c-0.03-0.09-0.06-0.18-0.1-0.26
		c0-0.01-0.01-0.01-0.01-0.02c-0.04-0.09-0.08-0.18-0.13-0.26c0,0,0,0,0-0.01c-0.15-0.28-0.35-0.52-0.57-0.74v0
		c-0.68-0.7-1.42-1.33-2.23-1.88c-0.81,0.55-1.56,1.18-2.23,1.88c-0.3,0.29-0.54,0.64-0.71,1.02c0,0,0,0.01-0.01,0.01
		c-0.04,0.09-0.07,0.18-0.1,0.27c0,0.01-0.01,0.02-0.01,0.03c-0.03,0.09-0.05,0.18-0.07,0.27c0,0.02-0.01,0.03-0.01,0.05
		c-0.02,0.09-0.03,0.18-0.04,0.27c0,0.02-0.01,0.03-0.01,0.05c-0.01,0.11-0.02,0.22-0.02,0.33c0,1.78,1.44,3.21,3.21,3.21
		c1.77,0,3.21-1.44,3.21-3.21C33.03,19.78,33.02,19.67,33.01,19.56L33.01,19.56z"/>
	<path style="fill:#A66934;" d="M42.85,14.28c0.64,1.6,0.99,3.35,0.99,5.17c0,1.03-0.11,2.03-0.32,3c-1.39-1.67-3.49-2.74-5.84-2.74
		c-0.09,0-0.18,0-0.27,0.01c0-0.09,0.01-0.18,0.01-0.27c0-2.35-1.07-4.45-2.74-5.84c0.97-0.21,1.97-0.32,3-0.32
		C39.5,13.29,41.25,13.65,42.85,14.28L42.85,14.28z"/>
	<path style="fill:#CC675D;" d="M37.38,34.91c0.02,0,0.03,0,0.03,0c0,0.09,0.01,0.18,0.01,0.27c0,2.35-1.06,4.45-2.74,5.84
		c-1.77-0.39-3.41-1.11-4.86-2.09c0.81-0.55,1.56-1.18,2.23-1.88v0c0.23-0.22,0.42-0.47,0.57-0.74c0,0,0,0,0-0.01
		c0.05-0.09,0.09-0.17,0.13-0.27c0-0.01,0.01-0.01,0.01-0.02c0.04-0.08,0.07-0.17,0.1-0.26c0.01-0.01,0.01-0.03,0.02-0.04
		c0.03-0.08,0.05-0.17,0.07-0.25c0.01-0.02,0.01-0.04,0.02-0.06c0.02-0.08,0.03-0.17,0.04-0.25c0-0.03,0.01-0.05,0.01-0.07
		c0.01-0.11,0.02-0.22,0.02-0.33c0-0.85-0.33-1.62-0.87-2.19c0,0,0,0,0,0c0,0,0,0,0-0.01v0C33.49,33.93,35.33,34.91,37.38,34.91
		L37.38,34.91z"/>
	<path style="fill:#CC675D;" d="M37.38,19.73c0.02,0,0.03,0,0.03,0c0-0.09,0.01-0.18,0.01-0.27c0-2.35-1.06-4.44-2.74-5.84
		c-1.77,0.39-3.41,1.1-4.86,2.09c0.81,0.55,1.56,1.18,2.23,1.88v0c0.23,0.22,0.42,0.47,0.57,0.74c0,0,0,0,0,0.01
		c0.05,0.09,0.09,0.17,0.13,0.26c0,0.01,0.01,0.01,0.01,0.02c0.04,0.08,0.07,0.17,0.1,0.26c0.01,0.01,0.01,0.03,0.02,0.04
		c0.03,0.08,0.05,0.17,0.07,0.25c0.01,0.02,0.01,0.04,0.02,0.06c0.02,0.08,0.03,0.17,0.04,0.25c0,0.02,0.01,0.05,0.01,0.07
		c0.01,0.11,0.02,0.22,0.02,0.33c0,0.85-0.33,1.62-0.87,2.19c0,0,0,0,0,0c0,0,0,0,0,0.01v0C33.49,20.7,35.33,19.73,37.38,19.73
		L37.38,19.73z"/>
	<path style="fill:#8EB436;" d="M22.22,19.75c0-0.02,0-0.03,0-0.03c-0.09,0-0.18-0.01-0.27-0.01c-2.35,0-4.44,1.07-5.84,2.74
		c0.39,1.77,1.11,3.41,2.09,4.86c0.55-0.81,1.18-1.56,1.88-2.23c0.22-0.22,0.47-0.42,0.74-0.57c0,0,0,0,0.01,0
		c0.09-0.05,0.17-0.09,0.26-0.13c0.01,0,0.01-0.01,0.02-0.01c0.08-0.04,0.17-0.07,0.26-0.1c0.01,0,0.03-0.01,0.04-0.02
		c0.08-0.03,0.17-0.05,0.25-0.07c0.02,0,0.04-0.01,0.06-0.02c0.08-0.02,0.17-0.03,0.25-0.04c0.02,0,0.05-0.01,0.07-0.01
		c0.11-0.01,0.22-0.02,0.33-0.02c0.85,0,1.62,0.33,2.19,0.87c0,0,0,0,0,0c0,0,0,0,0.01,0v0C23.2,23.64,22.22,21.81,22.22,19.75
		L22.22,19.75z"/>
	<path style="fill:#8EB436;" d="M37.41,19.75c0-0.02,0-0.03,0-0.03c0.09,0,0.18-0.01,0.27-0.01c2.35,0,4.45,1.07,5.84,2.74
		c-0.39,1.77-1.11,3.41-2.09,4.86c-0.55-0.81-1.18-1.56-1.88-2.23h0c-0.22-0.22-0.47-0.42-0.74-0.57c0,0,0,0-0.01,0
		c-0.09-0.05-0.17-0.09-0.26-0.13c-0.01,0-0.01-0.01-0.02-0.01c-0.08-0.04-0.17-0.07-0.26-0.1c-0.01,0-0.03-0.01-0.04-0.02
		c-0.08-0.03-0.17-0.05-0.25-0.07c-0.02,0-0.04-0.01-0.06-0.02c-0.08-0.02-0.17-0.03-0.25-0.04c-0.02,0-0.05-0.01-0.07-0.01
		c-0.11-0.01-0.22-0.02-0.33-0.02c-0.85,0-1.62,0.33-2.19,0.87c0,0,0,0,0,0c0,0,0,0-0.01,0l0,0C36.43,23.64,37.41,21.81,37.41,19.75
		L37.41,19.75z"/>
	<path style="fill:#48803A;" d="M22.39,24.1c-0.11,0-0.22,0.01-0.33,0.02c-0.02,0-0.05,0.01-0.07,0.01
		c-0.09,0.01-0.17,0.02-0.25,0.04c-0.02,0-0.04,0.01-0.06,0.02c-0.09,0.02-0.17,0.04-0.25,0.07c-0.01,0-0.03,0.01-0.04,0.01
		c-0.09,0.03-0.18,0.06-0.26,0.1c-0.01,0-0.01,0.01-0.02,0.01c-0.09,0.04-0.18,0.08-0.27,0.13c0,0,0,0-0.01,0
		c-0.27,0.15-0.52,0.35-0.74,0.57v0c-0.7,0.68-1.33,1.43-1.88,2.23c0.55,0.81,1.18,1.56,1.88,2.23c0.22,0.23,0.47,0.42,0.74,0.57
		c0,0,0,0,0.01,0c0.09,0.05,0.18,0.09,0.27,0.13c0.01,0,0.01,0.01,0.02,0.01c0.08,0.04,0.17,0.07,0.26,0.1
		c0.01,0,0.03,0.01,0.04,0.01c0.08,0.03,0.17,0.05,0.25,0.07c0.02,0,0.04,0.01,0.06,0.02c0.08,0.02,0.17,0.03,0.25,0.04
		c0.02,0,0.05,0.01,0.07,0.01c0.11,0.01,0.22,0.02,0.33,0.02c1.77,0,3.21-1.44,3.21-3.21C25.61,25.54,24.17,24.1,22.39,24.1
		L22.39,24.1z"/>
	<path style="fill:#48803A;" d="M41.42,27.32c-0.55-0.81-1.18-1.56-1.88-2.23v0c-0.22-0.22-0.47-0.42-0.74-0.57c0,0,0,0-0.01,0
		c-0.09-0.05-0.17-0.09-0.26-0.13c-0.01,0-0.02-0.01-0.02-0.01c-0.08-0.04-0.17-0.07-0.26-0.1c-0.01-0.01-0.03-0.01-0.04-0.02
		c-0.08-0.03-0.16-0.05-0.25-0.07c-0.02-0.01-0.04-0.01-0.07-0.02c-0.08-0.02-0.16-0.03-0.25-0.04c-0.03,0-0.05-0.01-0.08-0.01
		c-0.11-0.01-0.22-0.02-0.33-0.02h0c-1.77,0-3.21,1.44-3.21,3.21c0,1.78,1.44,3.21,3.21,3.21h0c0.11,0,0.22-0.01,0.33-0.02
		c0.03,0,0.05-0.01,0.08-0.01c0.08-0.01,0.17-0.02,0.25-0.04c0.02,0,0.04-0.01,0.07-0.02c0.08-0.02,0.17-0.04,0.25-0.07
		c0.02,0,0.03-0.01,0.04-0.02c0.09-0.03,0.17-0.06,0.26-0.1c0.01,0,0.02-0.01,0.02-0.01c0.09-0.04,0.18-0.08,0.26-0.13
		c0,0,0.01,0,0.01-0.01c0.27-0.15,0.52-0.35,0.74-0.57l0,0C40.24,28.87,40.87,28.12,41.42,27.32L41.42,27.32z"/>
	<path style="fill:#FFFFFF;" d="M58.23,50.28c0-0.49,0.32-0.76,0.74-0.76c0.41,0,0.73,0.27,0.73,0.76v0.25h0.02
		c0.19-0.68,1.04-1.01,1.45-1.01c0.51,0,0.8,0.33,0.8,0.79c0,0.6-0.39,0.81-0.8,0.81c-0.47,0-1.31-0.2-1.31,1.81v1.9
		c0,0.43-0.18,0.81-0.81,0.81c-0.63,0-0.81-0.38-0.81-0.81V50.28L58.23,50.28z"/>
	<path style="fill:#FFFFFF;" d="M66.79,51.95c-0.09-0.75-0.7-1.29-1.41-1.29c-0.8,0-1.35,0.5-1.52,1.29H66.79L66.79,51.95z
		 M63.98,52.88c0,0.86,0.55,1.48,1.48,1.48c1.2,0,1.2-0.8,1.85-0.8c0.38,0,0.66,0.33,0.66,0.63c0,0.98-1.55,1.44-2.51,1.44
		c-2.24,0-3.08-1.54-3.08-2.95c0-1.89,1.13-3.17,3.02-3.17c1.84,0,2.89,1.33,2.89,2.66c0,0.56-0.17,0.7-0.7,0.7H63.98L63.98,52.88z"
		/>
	<path style="fill:#FFFFFF;" d="M72.29,54.37c0.99,0.01,1.31-0.97,1.31-1.81c0-0.93-0.36-1.77-1.31-1.77
		C71.42,50.81,71,51.6,71,52.56C71,53.32,71.25,54.37,72.29,54.37L72.29,54.37z M75.13,56.99c0,0.54-0.32,0.81-0.81,0.81
		c-0.49,0-0.82-0.28-0.82-0.81v-2.17h-0.02c-0.3,0.53-0.86,0.83-1.61,0.83c-1.72,0-2.51-1.46-2.51-3.02c0-2.11,1.19-3.1,2.55-3.1
		c0.79,0,1.45,0.33,1.72,1.03h0.02v-0.26c0-0.5,0.26-0.77,0.74-0.77c0.5,0,0.74,0.27,0.74,0.77V56.99L75.13,56.99z"/>
	<path style="fill:#FFFFFF;" d="M91.24,52.56c0-0.96-0.42-1.75-1.29-1.77c-0.95,0-1.31,0.85-1.31,1.77c0,0.84,0.31,1.82,1.31,1.81
		C90.98,54.37,91.24,53.32,91.24,52.56L91.24,52.56z M87.1,50.29c0-0.5,0.24-0.77,0.74-0.77c0.48,0,0.74,0.27,0.74,0.77v0.26h0.02
		c0.27-0.69,0.93-1.03,1.72-1.03c1.36,0,2.55,0.99,2.55,3.1c0,1.56-0.79,3.02-2.51,3.02c-0.75,0-1.31-0.3-1.61-0.83h-0.02v2.18
		c0,0.53-0.32,0.81-0.82,0.81c-0.49,0-0.81-0.28-0.81-0.81V50.29L87.1,50.29z"/>
	<path style="fill:#FFFFFF;" d="M82.01,54.82c0,0.49-0.22,0.81-0.74,0.81c-0.51,0-0.73-0.32-0.73-0.81v-0.21h-0.02
		c-0.46,0.6-1.05,1.03-1.97,1.03c-0.98,0-2.05-0.49-2.05-2.14v-3.17c0-0.43,0.18-0.81,0.81-0.81c0.64,0,0.82,0.38,0.82,0.81v2.84
		c0,0.66,0.32,1.13,1.02,1.13c0.57,0,1.24-0.47,1.24-1.28v-2.69c0-0.43,0.18-0.81,0.81-0.81c0.64,0,0.81,0.38,0.81,0.81V54.82
		L82.01,54.82z"/>
	<path style="fill:#FFFFFF;" d="M55.16,52.64c-0.18,0.17-0.47,0.24-1.07,0.34c-0.6,0.1-1.03,0.32-1.03,0.81
		c0,0.47,0.52,0.67,0.9,0.67c0.72,0,1.19-0.47,1.19-1.18V52.64L55.16,52.64z M56.71,53.95c0,0.68,0.07,1.11,0.07,1.36
		c0,0.23-0.25,0.32-0.64,0.36c-0.42,0.04-0.9-0.43-0.87-0.83c0-0.03,0-0.01-0.01,0.01c-0.9,1.3-3.82,1.14-3.82-0.9
		c0-1.42,1.19-1.79,2.9-1.9c0.55-0.04,0.83-0.16,0.83-0.63c0-0.47-0.48-0.69-1.03-0.67c-1.09,0.04-0.99,0.89-1.64,0.89
		c-0.41,0-0.69-0.29-0.69-0.63c0-0.65,0.78-1.5,2.45-1.5c1.56,0,2.45,0.52,2.45,1.7V53.95L56.71,53.95z"/>
	<path style="fill:#FFFFFF;" d="M97.37,52.64c-0.18,0.17-0.47,0.24-1.07,0.34c-0.6,0.1-1.03,0.32-1.03,0.81
		c0,0.47,0.52,0.67,0.91,0.67c0.71,0,1.19-0.47,1.19-1.18V52.64L97.37,52.64z M98.91,53.95c0,0.68,0.06,1.11,0.06,1.36
		c0,0.23-0.24,0.32-0.63,0.36c-0.42,0.04-0.9-0.43-0.87-0.83c0-0.03,0-0.01-0.01,0.01c-0.9,1.3-3.82,1.14-3.82-0.9
		c0-1.42,1.19-1.79,2.9-1.9c0.55-0.04,0.83-0.16,0.83-0.63c0-0.47-0.48-0.69-1.03-0.67c-1.09,0.04-0.99,0.89-1.64,0.89
		c-0.41,0-0.69-0.29-0.69-0.63c0-0.65,0.78-1.5,2.45-1.5c1.56,0,2.45,0.52,2.45,1.7V53.95L98.91,53.95z"/>
	<path style="fill:#FFFFFF;" d="M60.99,41.34c-5.75,0-10.42-4.67-10.42-10.42c0-5.75,4.67-10.42,10.42-10.42
		c2.86,0,5.53,1.14,7.51,3.2c0.91,0.94,0.88,2.44-0.06,3.35c-0.94,0.9-2.44,0.88-3.35-0.07c-1.08-1.12-2.54-1.74-4.1-1.74
		c-3.13,0-5.68,2.55-5.68,5.68c0,3.13,2.55,5.68,5.68,5.68c1.56,0,3.01-0.62,4.1-1.75c0.91-0.94,2.41-0.97,3.35-0.06
		c0.94,0.91,0.97,2.41,0.06,3.35C66.51,40.2,63.85,41.34,60.99,41.34L60.99,41.34z"/>
	<path style="fill:#FFFFFF;" d="M84.02,31.19c-0.6,0.56-1.58,0.8-3.58,1.13c-2,0.34-3.45,1.07-3.45,2.71c0,1.56,1.75,2.25,3.03,2.25
		c2.39,0,3.99-1.57,3.99-3.96V31.19L84.02,31.19z M89.21,35.58c0,2.28,0.22,3.7,0.22,4.56c0,0.75-0.88,1.13-2.13,1.2
		c-1.71,0.08-3.01-1.43-2.91-2.8c0.01-0.09,0.01-0.04-0.04,0.04c-3.01,4.37-12.8,3.81-12.8-3.02c0-4.75,4-6,9.71-6.36
		c1.84-0.12,2.77-0.53,2.77-2.11c0-1.57-1.61-2.31-3.44-2.24c-3.64,0.13-3.32,2.99-5.49,2.99c-1.38,0-2.32-0.97-2.32-2.09
		c0-2.17,2.6-5.01,8.21-5.01c5.23,0,8.22,1.76,8.22,5.68V35.58L89.21,35.58z"/>
	<path style="fill:#FFFFFF;" d="M114.67,31.19c-0.6,0.56-1.58,0.8-3.58,1.13c-2,0.34-3.45,1.07-3.45,2.71
		c0,1.56,1.75,2.25,3.03,2.25c2.39,0,3.99-1.57,3.99-3.96V31.19L114.67,31.19z M119.86,35.58c0,2.28,0.22,3.7,0.22,4.56
		c0,0.75-0.88,1.13-2.13,1.2c-1.71,0.08-3.01-1.43-2.91-2.8c0.01-0.09,0.01-0.04-0.04,0.04c-3.01,4.37-12.8,3.81-12.8-3.02
		c0-4.75,4-6,9.71-6.36c1.84-0.12,2.77-0.53,2.77-2.11c0-1.57-1.61-2.31-3.44-2.24c-3.64,0.13-3.32,2.99-5.49,2.99
		c-1.38,0-2.32-0.97-2.32-2.09c0-2.17,2.6-5.01,8.21-5.01c5.24,0,8.22,1.76,8.22,5.68V35.58L119.86,35.58z"/>
	<path style="fill:#FFFFFF;" d="M96.19,13.29c1.65,0,2.98,1.33,2.98,2.98c0,1.65-1.34,2.98-2.98,2.98c-1.65,0-2.99-1.34-2.99-2.98
		C93.2,14.63,94.54,13.29,96.19,13.29L96.19,13.29z"/>
	<path style="fill:#FFFFFF;" d="M96.18,20.96c-2.17,0-2.83,1.23-2.83,2.86l0,0.05h0l0,16.09c0,3.94-2.39,2.9-2.7,4.17
		c-0.44,1.79,1.41,2.44,2.58,2.43c3.9-0.04,5.75-3.26,5.75-6.57V23.87v-0.02C98.99,22.23,98.35,20.96,96.18,20.96L96.18,20.96z"/>
	<path style="fill:#FFFFFF;" d="M84.59,49.52c-0.64,0-0.83,0.36-0.83,0.84l0,0.01h0v1.58v1.37v1.48v0.01c0,0.47,0.18,0.84,0.82,0.84
		c0.63,0,0.83-0.36,0.83-0.83l0-0.02h0v-1.48v-1.37v-1.58v-0.01C85.41,49.89,85.22,49.52,84.59,49.52L84.59,49.52z"/>
	<path style="fill:#FFFFFF;" d="M84.59,47.25c0.49,0,0.88,0.39,0.88,0.88c0,0.49-0.39,0.88-0.88,0.88c-0.49,0-0.88-0.39-0.88-0.88
		C83.71,47.64,84.1,47.25,84.59,47.25L84.59,47.25z"/>
</g>
</svg>
