<?xml version="1.0" encoding="UTF-8" standalone="no"?>
<svg
   xmlns:dc="http://purl.org/dc/elements/1.1/"
   xmlns:cc="http://creativecommons.org/ns#"
   xmlns:rdf="http://www.w3.org/1999/02/22-rdf-syntax-ns#"
   xmlns:svg="http://www.w3.org/2000/svg"
   xmlns="http://www.w3.org/2000/svg"
   xmlns:sodipodi="http://sodipodi.sourceforge.net/DTD/sodipodi-0.dtd"
   xmlns:inkscape="http://www.inkscape.org/namespaces/inkscape"
   width="100"
   height="19"
   viewBox="0 0 26.458333 5.0270834"
   version="1.1"
   id="svg8"
   inkscape:version="1.0.2-2 (e86c870879, 2021-01-15)"
   sodipodi:docname="Intercorp_logo.svg">
  <title
     id="title16">Interbank logo</title>
  <defs
     id="defs2" />
  <sodipodi:namedview
     id="base"
     pagecolor="#ffffff"
     bordercolor="#666666"
     borderopacity="1.0"
     inkscape:pageopacity="0"
     inkscape:pageshadow="2"
     inkscape:zoom="2.8284271"
     inkscape:cx="124.52936"
     inkscape:cy="-3.9556497"
     inkscape:document-units="px"
     inkscape:current-layer="layer1"
     inkscape:document-rotation="0"
     showgrid="false"
     units="px"
     inkscape:showpageshadow="false"
     inkscape:window-width="1366"
     inkscape:window-height="745"
     inkscape:window-x="-8"
     inkscape:window-y="-8"
     inkscape:window-maximized="1"
     objecttolerance="11.8"
     guidetolerance="10.6" />
  <metadata
     id="metadata5">
    <rdf:RDF>
      <cc:Work
         rdf:about="">
        <dc:format>image/svg+xml</dc:format>
        <dc:type
           rdf:resource="http://purl.org/dc/dcmitype/StillImage" />
        <dc:title>Interbank logo</dc:title>
        <cc:license
           rdf:resource="http://scripts.sil.org/OFL" />
        <dc:date>17 de marzo 2021</dc:date>
      </cc:Work>
      <cc:License
         rdf:about="http://scripts.sil.org/OFL">
        <cc:permits
           rdf:resource="http://scripts.sil.org/pub/OFL/Reproduction" />
        <cc:permits
           rdf:resource="http://scripts.sil.org/pub/OFL/Distribution" />
        <cc:permits
           rdf:resource="http://scripts.sil.org/pub/OFL/Embedding" />
        <cc:permits
           rdf:resource="http://scripts.sil.org/pub/OFL/DerivativeWorks" />
        <cc:requires
           rdf:resource="http://scripts.sil.org/pub/OFL/Notice" />
        <cc:requires
           rdf:resource="http://scripts.sil.org/pub/OFL/Attribution" />
        <cc:requires
           rdf:resource="http://scripts.sil.org/pub/OFL/ShareAlike" />
        <cc:requires
           rdf:resource="http://scripts.sil.org/pub/OFL/DerivativeRenaming" />
        <cc:requires
           rdf:resource="http://scripts.sil.org/pub/OFL/BundlingWhenSelling" />
      </cc:License>
    </rdf:RDF>
  </metadata>
  <g
     inkscape:label="Capa 1"
     inkscape:groupmode="layer"
     id="layer1">
    <g
       id="rect47"
       style="opacity:1"
       inkscape:transform-center-x="0.52916666"
       inkscape:transform-center-y="0.79374994"
       transform="translate(-26.51797,125.72359)" />
    <g
       id="rect77"
       transform="matrix(0.98179228,-0.18995768,0,1,-32.808334,75.670834)"
       style="opacity:1" />
    <g
       id="g25"
       transform="translate(0.01169304,0.09354433)">
      <path
         d="M 0.65705326,0.02467407 A 0.64200155,0.64200155 0 0 0 0.01944938,0.66667561 V 4.817699 H 4.1748706 A 0.64288101,0.64288101 0 0 0 4.8168717,4.1756978 V 0.02467407 Z M 3.6955675,3.4853261 1.1407535,3.9470395 V 1.370239 l 2.554814,-0.46171356 z"
         fill="#0060a9"
         id="path4"
         style="stroke-width:0.0439725" />
      <path
         d="m 13.022179,1.4186092 c -0.756331,0 -1.288401,0.5452611 -1.292798,1.4247156 0,0.8047005 0.642001,1.301592 1.297195,1.301592 0.391358,0 0.633207,-0.061561 0.77392,-0.175891 V 3.5249015 a 1.5342078,1.5342078 0 0 1 -0.6464,0.1319182 c -0.404549,0 -0.729946,-0.2198637 -0.782714,-0.5716453 l -0.0044,-0.030783 h 0.470509 c 0.444123,0 0.75633,-0.039572 0.954206,-0.1363155 0.197878,-0.096739 0.281427,-0.2462469 0.281427,-0.4836998 0,-0.6288094 -0.505687,-1.0157691 -1.050948,-1.0157691 m 0.307808,1.1564819 c -0.123124,0.043973 -0.316603,0.061561 -0.637604,0.061561 h -0.329795 v -0.030783 l 0.0044,-0.087945 C 12.380168,2.2013181 12.61763,1.919893 12.960616,1.919893 a 0.6499166,0.6499166 0 0 1 0.38696,0.1055342 0.38300227,0.38300227 0 0 1 0.149507,0.3210009 c 0.0044,0.1055341 -0.04396,0.1846851 -0.167096,0.2286579 m 1.068538,-0.140713 v 1.6665659 h 0.620014 V 2.557497 c 0,-0.2066715 0.03957,-0.3561788 0.127521,-0.4573161 C 15.23401,1.9990435 15.357128,1.959468 15.511033,1.959468 A 0.95420777,0.95420777 0 0 1 15.67813,1.972657 V 1.4801636 a 0.68641398,0.68641398 0 0 0 -0.312205,-0.065958 c -0.694771,0.00439 -0.9674,0.4968916 -0.9674,1.0201665 M 6.8747946,4.1009441 V 0.74582643 H 6.2591766 V 4.1009441 Z m 1.666565,-2.6823349 c -0.8266864,0 -1.1828653,0.5628503 -1.1872624,1.1169063 V 4.1009441 H 7.9697147 V 2.5794883 A 0.73126614,0.73126614 0 0 1 8.1104274,2.1177749 0.47490525,0.47490525 0 0 1 8.4841952,1.9506785 c 0.1758911,0 0.3210014,0.052767 0.4221383,0.1626992 0.1011364,0.1099319 0.1495073,0.2858228 0.1495073,0.5144808 V 4.1009441 H 9.6714596 V 2.5706938 c 0,-0.7431385 -0.510084,-1.1520846 -1.1301,-1.1520846 M 10.757583,0.74582643 H 10.146364 V 3.1687227 c 0.0044,0.615618 0.312205,0.9761941 0.980591,0.9805914 0.285822,0 0.452919,-0.092343 0.523276,-0.2418501 V 3.5249015 c -0.109933,0.048372 -0.25944,0.070356 -0.444126,0.070356 -0.140712,0 -0.255041,-0.035178 -0.334191,-0.1187264 C 10.792764,3.3929831 10.753187,3.2654622 10.753187,3.085174 V 1.9506785 h 0.536467 c 0.263835,0 0.373768,-0.167096 0.373768,-0.2902197 V 1.4142119 H 10.757583 Z M 22.432338,1.4186092 c -0.826688,0 -1.182866,0.5628503 -1.187263,1.1169063 l 0.0044,1.5654286 h 0.611233 V 2.5794883 c 0,-0.1978769 0.05277,-0.3517815 0.14071,-0.4617134 a 0.47490525,0.47490525 0 0 1 0.373769,-0.1670964 c 0.175891,0 0.321001,0.052767 0.422139,0.1670964 0.101138,0.1143292 0.149507,0.2814256 0.149507,0.5100836 v 1.4730856 h 0.611215 V 2.5706938 C 23.56256,1.8275553 23.056799,1.4186092 22.432387,1.4186092 m -5.122821,0 c -0.347384,0 -0.56285,0.2066713 -0.690371,0.3957542 l -0.04836,0.070356 V 0.74582643 H 15.959568 V 2.8257358 c 0,0.8838512 0.532069,1.3235783 1.222441,1.3235783 0.787112,0 1.284002,-0.6200153 1.284002,-1.4115238 0,-0.7783173 -0.501288,-1.3191811 -1.15648,-1.3191811 m -0.05716,2.2074297 c -0.202274,0 -0.382562,-0.057164 -0.501288,-0.206672 C 16.632352,3.26986 16.575187,3.0412017 16.575187,2.7289957 c 0,-0.4265352 0.259439,-0.77392 0.611221,-0.7783172 0.206671,0 0.373767,0.057164 0.488096,0.2022746 0.114329,0.1451102 0.171494,0.3649734 0.171494,0.6947691 -0.0044,0.4441243 -0.246247,0.7783167 -0.593632,0.7783167 m 2.475656,-2.2074297 c -0.373769,0 -0.620015,0.1011373 -0.791509,0.2330552 v 0.4309324 a 1.5465201,1.5465201 0 0 1 0.690371,-0.149507 c 0.202275,0 0.378166,0.030779 0.479304,0.1099315 0.101138,0.079151 0.149506,0.2154665 0.149506,0.4089461 v 0.061562 h -0.263836 c -0.984989,0.00439 -1.310385,0.3517822 -1.310385,0.8134956 0,0.4749052 0.422136,0.8222894 1.050946,0.8222894 h 0.136316 c 0.584837,0 0.989386,-0.3781651 0.989386,-0.9322213 V 2.6014747 C 20.862532,1.664856 20.321653,1.4230064 19.728022,1.4186092 M 20.26449,3.22149 c 0,0.1407123 -0.03518,0.2506443 -0.114331,0.3297952 -0.07915,0.079151 -0.193479,0.1099319 -0.342986,0.1099319 A 0.62573163,0.62573163 0 0 1 19.446596,3.5688737 0.31044732,0.31044732 0 0 1 19.314678,3.3006403 0.29417741,0.29417741 0 0 1 19.464186,3.023612 c 0.105535,-0.061561 0.277028,-0.087946 0.532069,-0.087946 h 0.268235 z m 5.052463,-0.5100834 -0.01318,-0.017588 0.01318,-0.017589 C 25.585187,2.33764 26.170024,1.6780491 26.38549,1.4801722 H 26.0469 c -0.215466,0 -0.360577,0.021984 -0.51448,0.1670959 -0.30781,0.2902201 -0.562852,0.6332071 -0.822291,0.9673996 l -0.04837,0.065959 0.0044,-1.93479919 H 24.046107 V 4.0965476 h 0.620014 V 2.7377903 l 0.04837,0.065959 c 0.294617,0.391357 0.593631,0.7871113 0.936619,1.1388928 a 0.64903714,0.64903714 0 0 0 0.422137,0.175891 c 0.171494,0 0.268234,-0.043973 0.334193,-0.1231237 C 26.231588,3.7887381 25.528024,2.9664481 25.316956,2.7114066"
         fill="#00a24f"
         id="path2"
         style="stroke-width:0.0439725" />
    </g>
  </g>
</svg>
