<?xml version="1.0" encoding="utf-8"?>
<!-- Generator: Adobe Illustrator 21.0.0, SVG Export Plug-In . SVG Version: 6.00 Build 0)  -->
<svg version="1.1" id="Capa_1" xmlns="http://www.w3.org/2000/svg" xmlns:xlink="http://www.w3.org/1999/xlink" x="0px" y="0px"
	 viewBox="0 0 748.5 210" style="enable-background:new 0 0 748.5 210;" xml:space="preserve">
<g>
	<path style="fill:#DF1583;" d="M143.8,114.1c1.7-5.1,2.4-10.4,2.4-15.8c-0.1-16.1-6.7-28.7-19.7-38c-8.5-6.1-18.1-9.8-28.1-12.4
		c-8.5-2.2-17.2-3.4-26-4c-10.7-0.8-21.4-0.6-32.1,0.2C29.1,45,17.9,46.1,7,48.7c-0.5,0.1-1.1,0.3-1.6,0c-0.1-0.9,0.6-1.5,1-2.1
		c8-12.4,16-24.7,23.9-37.1c0.8-1.3,1.8-2,3.4-2.3c10.1-2.1,20.3-3.5,30.6-4.1C71.8,2.7,79.4,2.7,87,3.3
		c19.5,1.4,38.3,5.4,55.7,14.5c8.4,4.4,16.1,9.9,22.1,17.4c5.3,6.5,8.4,13.9,8.8,22.4c0.4,8.2-2,15.6-6.5,22.4
		c-6.1,9.2-12.1,18.4-18.2,27.7c-1.5,2.2-2.7,4.5-4.4,6.5C144.3,114.1,144,114.1,143.8,114.1z"/>
	<path style="fill:#175EA5;" d="M14,127.5c5.1-5.7,10.8-10.6,17.7-14.6c0.5,4.9,2.2,9.2,4.2,13.3c6.2,13.2,16,22.8,28.8,29.5
		c8.9,4.7,18.3,7.5,28.1,9.2c13.7,2.3,27.5,2.4,41.4,1.1c7.8-0.8,15.6-1.6,23.2-3.4c5.5-1.3,10.7-3.3,15.8-5.6
		c0.7-0.3,1.3-0.9,2.2-0.7l0,0c0.1,0.9-0.6,1.5-1,2.1c-8.7,13.7-17.5,27.3-26.2,41c-1,1.5-2.1,2.2-3.8,2.5
		c-15.9,3.5-32.1,4.9-48.3,4.2c-18-0.8-35.5-3.9-52.3-10.9c-9.5-4-18.3-9.1-25.8-16.3c-6.4-6.2-11-13.4-12.8-22.3
		c-1.4-7.3-0.6-14.3,2.5-21c1.3-2.8,3.5-4.9,5.5-7.2C13.5,128.1,13.8,127.8,14,127.5z"/>
	<path style="fill:#DF1683;" d="M275,99c0.2,0.2,0.4,0.4,0.7,0.6c7.3,5.1,9.5,12.4,8.6,20.8c-0.3,3.2-1,6.3-2.1,9.3
		c-4.9,12.7-14.5,19.9-27.5,22.8c-2.1,0.5-4.3,0.6-6.4,0.6c-6.6,0.1-13.3,0-19.9,0c-1.6,0-1.6-0.1-1.3-1.7c0.7-3.1,1.5-6.2,2.1-9.4
		c0.3-1.4,0.9-1.8,2.2-1.7c5.8,0.1,11.5,0.1,17.3,0c3.4,0,6.7-0.5,9.8-1.8c10.2-4.3,12.6-13.8,11.9-21.2c-0.4-4.1-2.7-6.9-6.5-8.5
		c-3-1.3-6.1-1.7-9.4-1.7c-5.3,0-10.6,0-15.8,0c-2,0-2.1-0.1-1.7-2c0.6-3,1.2-5.9,1.8-8.9c0.4-1.8,0.4-1.8,2.1-1.8
		c4.4,0,8.8,0,13.2,0c2.5,0,4.9-0.2,7.4-0.8c10.3-2.6,15.1-12.8,13.8-21.3c-0.5-3.2-2.3-5.6-5.1-7.1c-4.5-2.5-9.3-2.9-14.2-2.1
		c-10.4,1.8-16.5,8.4-19,18.3c-2.6,10.3-4.5,20.8-6.7,31.1c-2.8,13-5.5,25.9-8.2,38.9c-0.4,1.8-0.4,1.8-2.1,1.8c-3.3,0-6.6,0-9.8,0
		c-2.1,0-2.1,0-1.7-2.2c1.2-5.7,2.4-11.4,3.6-17.1c3.7-17.7,7.5-35.3,11.2-53c1.5-6.9,4.8-12.8,9.7-17.9c6-6.4,13.2-10.9,21.9-12.4
		c8.7-1.5,17.1-0.8,24.9,3.6c8.2,4.6,10.7,12.3,9.8,20.5c-0.2,2-0.7,3.9-1.2,5.9c-1.9,7.1-5.5,12.9-11.7,17
		C276,97.8,275.2,98.1,275,99z"/>
	<path style="fill:#195FA6;" d="M691.9,130c-1-3.1-2.1-6.2-3.1-9.3c-0.4-1.1,0.5-1.2,1.1-1.5c3.5-1.7,7-3.5,10.5-5.2
		c8.3-4.1,16.6-8.2,24.9-12.3c0.5-0.3,1.2-0.4,1.6-1.1c-2.8-4-6.8-5.8-11.5-6.2c-14.2-1-27.4,9-30.3,23c-0.7,3.6-1,7.2-0.3,10.7
		c1.6,8.6,7.5,13.7,16.6,14.2c9.5,0.5,17.4-2.7,23.1-10.6c2.2-3,4-6.2,5.4-9.6c0.5-1.1,1-1.6,2.3-1.4c2.9,0.5,5.9,0.8,8.8,1.2
		c2.1,0.3,2.1,0.4,1.4,2.5c-0.9,2.9-2.1,5.7-3.8,8.2c-7.6,11.3-17.8,18.9-31.3,21.5c-6.7,1.3-13.4,1.4-19.8-1.5
		c-10.6-4.9-16.7-13.1-16.7-24.9c0-20.9,12.8-36.1,29.9-42.8c7.9-3.1,16-3.5,24.3-1.6c6.2,1.5,11,5,14.5,10.3c1.9,2.8,3.3,5.8,4.4,9
		c0.6,1.7,0.6,1.7-1,2.5c-6.2,3.1-12.4,6.2-18.7,9.3c-9.9,4.9-19.9,9.9-29.8,14.8C693.6,129.5,692.9,129.9,691.9,130z"/>
	<path style="fill:#DF1783;" d="M337.5,133.3c0,0.4,0.1,0.6,0.1,0.8c-0.9,4.3-1.9,8.6-2.8,12.9c-0.1,0.7-0.4,1.2-1,1.5
		c-4.5,2.5-8.9,5.1-14.1,5.7c-6.8,0.7-13.4,0.4-19.5-3.2c-8.2-4.8-12.6-12.2-13.2-21.5c-1.4-21.1,12.7-41.7,34.4-46.3
		c7.6-1.6,15.2-1.7,22.8,0.7c10.4,3.3,16.5,11.7,16.7,22.7c0.1,4.6-1,9-2,13.5c-2.2,10.4-4.4,20.8-6.6,31.2
		c-0.4,1.8-0.4,1.8-2.3,1.9c-3,0-6.1,0.1-9.1,0.1c-2,0-2,0-1.6-1.9c2.5-11.9,5-23.8,7.6-35.6c0.7-3.1,1.2-6.2,0.4-9.3
		c-1.6-6.8-6.3-10.2-12.7-11.4c-15.6-3-30,6.6-33.6,22.4c-0.9,4.1-1.3,8.2-0.2,12.3c1.9,6.9,6.5,10.8,13.4,12.3
		c5.1,1.1,9.8,0.1,14.4-2.2c2.7-1.3,5.1-3.1,7.3-5C336.2,134.2,336.7,133.6,337.5,133.3z"/>
	<path style="fill:#DF1783;" d="M517.9,154.5c-7,0-13-1.1-18.4-4.4c-8.3-5.1-12.8-12.5-13.5-22.2c-0.2-2.3-0.3-4.7,0.2-6.9
		c1.5-7.5,4.2-14.6,9.2-20.5c7-8.4,15.5-14.6,26.2-17.2c8.4-2.1,16.7-1.6,24.5,2.5c9.2,4.9,14.2,12.6,14.3,23.2
		c0.2,11.6-4.1,21.5-11.5,30.2c-5.3,6.2-11.5,11-19.4,13.6C525.5,154.1,521.4,154.7,517.9,154.5z M499.9,124.2c0,0.8,0,1.6,0,2.4
		c0.4,7.7,5,13.2,12.5,15c1.1,0.3,2.2,0.4,3.3,0.5c10.5,1,20.4-2.8,26.2-12.8c3-5.2,4.7-10.9,4.9-16.9c0.3-9.9-5.2-15.7-12.8-17.5
		c-6.1-1.5-12.2-0.8-17.7,2.1C505.3,102.8,500.5,112.3,499.9,124.2z"/>
	<path style="fill:#185EA6;" d="M634.6,96.4c-0.8,3.8-1.6,7.5-2.3,11.1c-0.2,1.1-0.7,1.6-1.9,1.6c-4.8-0.1-9.6,0-14.4,0
		c-5.6,0-11.2,0-16.8,0c-2,0-2,0-2.4,2c-2.8,13.3-5.7,26.5-8.5,39.8c-0.5,2.2-0.5,2.2-2.8,2.2c-3.7,0-7.3,0-10.9,0
		c-0.5-0.8-0.2-1.4-0.1-2c4.7-22.4,9.4-44.9,14.3-67.2c2.2-9.7,6.8-18.2,15-24.5c5.9-4.5,12.6-6.9,19.9-7.6
		c6.7-0.6,13.4-0.1,19.9-0.3c0.5,0.5,0.4,0.9,0.3,1.3c-0.7,3.3-1.5,6.5-2.1,9.8c-0.2,1.3-0.8,1.7-2.1,1.6c-4.2-0.1-8.3,0-12.5,0
		c-2.4,0-4.8,0.2-7.1,0.7c-7.4,1.5-12.4,5.9-15.5,12.7c-1.8,4-2.4,8.3-3.3,12.5c-0.4,1.6-0.7,3.1-1,4.7c-0.2,0.9,0.1,1.4,1.1,1.3
		c0.6,0,1.1,0,1.7,0c9.6,0,19.2,0,28.8,0C632.6,96.2,633.5,96,634.6,96.4z"/>
	<path style="fill:#DF1783;" d="M413.6,153.2c-1.7,0-3.4,0-5,0c-1.1,0-1.4-0.3-1.1-1.4c1.3-6,2.6-12,3.9-18c1.6-7.5,3.2-15,4.7-22.5
		c0.8-4.2,0.2-8.1-2.3-11.7c-2.7-4-6.7-5.6-11.4-5.4c-9.4,0.4-17.7,7.2-19.8,16.4c-2.8,12.5-5.4,25-8.1,37.5
		c-0.4,1.7-0.1,3.9-1.4,4.9c-1.2,0.9-3.2,0.3-4.9,0.3c-2.2,0-4.3,0-6.5,0c-1.4,0-1.5-0.1-1.2-1.5c1.3-6.4,2.7-12.8,4.1-19.2
		c1.5-7,3.1-14,4.5-21.1c2.1-10.7,8.4-18.3,17.3-24c7.6-4.8,16-6.8,24.8-4.8c9.2,2,15.7,7.4,17.8,17c1,4.4,0.6,8.7-0.3,13.1
		c-2.7,12.8-5.5,25.6-8.2,38.4c-0.5,2.1-0.5,2.1-2.6,2.2C416.5,153.2,415,153.2,413.6,153.2z"/>
	<path style="fill:#DF1783;" d="M478.8,141.3c-0.6,2.6-1.1,5.4-1.7,8.1c-0.8,3.8-0.8,3.8-4.7,3.8c-4,0-8,0.1-12-0.1
		c-12.8-0.7-22.7-10-24.5-22.6c-1.3-9.4,1.3-17.8,6-25.6c6.2-10.3,14.9-17.4,26.8-20.2c2.8-0.7,5.7-1,8.6-1c3.8-0.1,7.7,0,11.5,0
		c2.1,0,2.1,0.1,1.8,2c-0.6,3-1.3,5.9-1.9,8.9c-0.2,1.1-0.8,1.4-1.8,1.4c-3.1-0.1-6.2,0-9.4,0c-14.2,0.2-26.5,11.2-28,25.3
		c-1,9,4.3,19.4,17.8,19.8c3,0.1,6.1,0,9.1,0C477.2,141,477.9,140.8,478.8,141.3z"/>
	<path style="fill:#195FA6;" d="M14.7,123.9c0.4-0.7,0.8-1.4,1.2-2c7.3-11,14.7-21.9,21.9-33c10-15.2,24.3-23.9,41.9-27.5
		c0.2,0,0.5,0,0.7,0c0.1,0,0.2,0,0.2,0.1c0.3,0.6-0.2,1-0.5,1.5C72.1,75.6,63.9,88.3,55.7,101c-0.5,0.8-1.1,1.4-2.2,1.6
		c-13.1,1.6-24,7.8-33.4,16.9c-1.7,1.6-3.3,3.2-5,4.9C15,124.2,14.9,124,14.7,123.9z"/>
	<path style="fill:#DF1683;" d="M93.7,148.8c3.1-4.8,5.9-9.2,8.8-13.6c5.5-8.5,11-17.1,16.4-25.6c0.8-1.2,1.6-1.8,3.2-2
		c6.9-0.7,13-3.6,19-6.8c0.8-0.5,1.6-0.9,2.7-1.5c0.4,2.5,0,4.7-0.3,7c-1.2,7.7-4.6,14.4-9.7,20.2c-9.9,11.3-22.1,18.9-37,22.1
		c-0.5,0.1-1.1,0.2-1.7,0.3C94.8,148.8,94.5,148.8,93.7,148.8z"/>
	<path style="fill:#195FA6;" d="M664.2,83.6c-0.8,4-1.6,7.6-2.3,11.2c-3.9,18.6-7.9,37.2-11.9,55.8c0,0.2-0.1,0.5-0.1,0.7
		c-0.4,1.9-0.4,1.9-2.3,1.9c-3.6,0-7.2,0-11,0c0.6-2.7,1-5.2,1.6-7.7c4.3-19.9,8.5-39.8,12.8-59.7c0.5-2.1,0.5-2.1,2.6-2.2
		C657,83.6,660.5,83.6,664.2,83.6z"/>
	<path style="fill:#1A5FA6;" d="M669,66.4c0,5.3-4.6,9.7-9.8,9.3c-4.1-0.3-6.4-3.1-5.8-7.2c0.6-3.9,5.2-8.1,9.2-8.2
		C666.6,60.2,669,62.4,669,66.4z"/>
	<path style="fill:#6B98C6;" d="M14,127.5c-0.3,0.3-0.5,0.6-0.8,0.8c-0.6-0.3-1.8-0.2-0.9-1.4c0.7-0.9,1.2-2.1,2.1-2.9
		c0,0.3,0.1,0.6,0.1,0.8C14.5,125.8,13.3,126.5,14,127.5z"/>
	<path style="fill:#DF1783;" d="M143.8,114.1c0.3,0,0.5,0,0.8,0c-0.7,1.5-1.7,2.8-2.7,4c0,0.1,0.1,0.2,0.1,0.2
		C142.4,116.9,143,115.4,143.8,114.1z"/>
	<path style="fill:#195FA6;" d="M14.6,124.9c0-0.3-0.1-0.6-0.1-0.8c0-0.1,0.1-0.2,0.2-0.2c0.2,0.1,0.3,0.3,0.5,0.4
		C15,124.5,14.8,124.7,14.6,124.9z"/>
	<path style="fill:#175EA5;" d="M175.4,156.4c-0.1-0.2,0-0.3,0.2-0.2c0,0,0,0.1,0,0.1C175.5,156.6,175.6,156.2,175.4,156.4
		C175.4,156.3,175.4,156.4,175.4,156.4z"/>
</g>
</svg>
