<?xml version="1.0" encoding="UTF-8" standalone="no"?>
<svg
   xmlns:dc="http://purl.org/dc/elements/1.1/"
   xmlns:cc="http://creativecommons.org/ns#"
   xmlns:rdf="http://www.w3.org/1999/02/22-rdf-syntax-ns#"
   xmlns:svg="http://www.w3.org/2000/svg"
   xmlns="http://www.w3.org/2000/svg"
   viewBox="0 0 194.23599 55.555065"
   height="55.555065"
   width="194.23599"
   xml:space="preserve"
   id="svg29"
   version="1.1"><metadata
     id="metadata35"><rdf:RDF><cc:Work
         rdf:about=""><dc:format>image/svg+xml</dc:format><dc:type
           rdf:resource="http://purl.org/dc/dcmitype/StillImage" /><dc:title></dc:title></cc:Work></rdf:RDF></metadata><defs
     id="defs33"><clipPath
       id="clipPath45"
       clipPathUnits="userSpaceOnUse"><path
         id="path43"
         d="M 0,41.666 H 145.677 V 0 H 0 Z" /></clipPath></defs><g
     transform="matrix(1.3333333,0,0,-1.3333333,0,55.555067)"
     id="g37"><g
       id="g39"><g
         clip-path="url(#clipPath45)"
         id="g41"><g
           transform="translate(36.501,23.9729)"
           id="g47"><path
             id="path49"
             style="fill:#2bb461;fill-opacity:1;fill-rule:nonzero;stroke:none"
             d="m 0,0 c 0,-4.95 0.018,-9.775 -0.015,-14.6 -0.007,-0.957 -0.205,-1.924 -0.856,-2.695 -0.488,-0.578 -1.21,-0.67 -1.902,-0.695 -1.151,-0.042 -2.304,-0.003 -3.456,-0.016 -0.527,-0.006 -0.716,0.21 -0.716,0.745 0.013,7.808 0.025,15.616 -0.003,23.424 -0.007,1.799 -0.77,3.274 -2.372,4.193 -0.112,0.065 -0.327,0.052 -0.327,0.296 0,0.301 -0.022,0.992 0,0.992 1.582,0 3.82,0.033 5.4,-0.014 1.344,-0.04 2.574,-0.49 3.746,-1.165 C 1.181,9.496 2.219,7.95 3.326,6.448 4.52,4.829 5.756,3.241 6.956,1.627 c 1.476,-1.985 2.937,-3.981 4.397,-5.977 0.81,-1.107 1.602,-2.226 2.41,-3.335 0.053,-0.072 0.17,-0.097 0.356,-0.197 0,0.295 0,0.507 0,0.718 0,6.02 0.008,12.039 -0.012,18.058 -0.002,0.592 0.169,0.769 0.761,0.758 0.889,-0.016 1.781,-10e-4 2.682,-0.018 1.144,-0.046 2.194,-0.363 2.809,-1.424 0.246,-0.425 0.468,-0.943 0.47,-1.419 0.027,-8.703 0.017,-17.405 0.027,-26.107 10e-4,-0.516 -0.176,-0.713 -0.692,-0.692 -1.267,0.053 -2.547,-0.02 -3.799,0.137 -1.299,0.162 -2.459,0.781 -3.474,1.62 -2.009,1.659 -3.282,3.936 -4.914,5.911 C 6.581,-8.651 5.264,-6.896 3.926,-5.159 2.626,-3.47 1.343,-1.767 0,0" /></g><g
           transform="translate(20.4742,14.2097)"
           id="g51"><path
             id="path53"
             style="fill:#2bb461;fill-opacity:1;fill-rule:nonzero;stroke:none"
             d="m 0,0 c -0.57,-1.592 -1.795,-1.896 -3.154,-2.004 -1.247,-0.099 -2.508,-0.021 -3.763,-0.021 -1.359,0 -2.717,0.006 -4.075,-0.004 -0.357,-0.002 -0.473,0.058 -0.459,0.489 0.053,1.563 0.036,3.129 0.015,4.693 -0.006,0.428 0.076,0.597 0.557,0.592 C -8.3,3.72 -5.721,3.763 -3.143,3.719 -2.142,3.702 -1.095,3.479 -0.486,2.621 0.04,1.881 0.387,1.079 0,0 m -11.467,9.702 v 5.592 h 2.265 c 1.409,0 2.817,0.006 4.226,-0.003 0.948,-0.005 1.825,-0.274 2.597,-0.826 0.915,-0.654 1.21,-2.209 0.6,-3.258 -0.523,-0.9 -1.276,-1.52 -2.29,-1.52 -2.461,0 -4.92,0.047 -7.375,-10e-4 -0.013,0 -0.027,0.019 -0.023,0.016 M 6.307,3.456 C 6.05,3.982 5.762,4.53 5.357,4.939 4.369,5.936 3.241,6.762 1.833,7.267 1.919,7.332 2.041,7.425 2.187,7.54 c 0.54,0.429 1.415,1.123 1.987,1.868 0.694,0.906 0.915,1.832 1.041,2.46 0.286,1.423 0.274,2.97 -0.311,4.39 -0.63,1.528 -1.611,2.423 -2.067,2.823 -1.398,1.227 -2.852,1.641 -3.77,1.89 -1.414,0.386 -2.554,0.404 -3.19,0.41 -5.73,0.055 -12.315,0.008 -15.681,0.025 -0.292,0.001 -0.529,0.003 -0.67,0.004 0.001,-0.435 0.003,-0.871 0.005,-1.307 0.32,-0.047 0.681,-0.015 0.954,-0.155 1.176,-0.605 1.314,-1.834 1.322,-2.889 0.064,-8.166 0.041,-16.334 0.025,-24.501 -0.001,-0.601 0.169,-0.815 0.79,-0.808 4.706,0.055 9.413,0.044 14.119,0.138 1.339,0.026 2.697,0.229 4.002,0.54 1.32,0.316 2.552,0.936 3.603,1.834 1.616,1.38 2.547,3.101 2.606,5.269 C 6.988,0.888 6.913,2.22 6.307,3.456" /></g><g
           transform="translate(79.1445,14.1731)"
           id="g55"><path
             id="path57"
             style="fill:#2bb461;fill-opacity:1;fill-rule:nonzero;stroke:none"
             d="m 0,0 c -0.57,-1.592 -1.795,-1.896 -3.154,-2.004 -1.247,-0.099 -2.508,-0.021 -3.763,-0.021 -1.359,0 -2.717,0.006 -4.075,-0.004 -0.357,-0.002 -0.473,0.058 -0.459,0.489 0.053,1.563 0.036,3.129 0.015,4.693 -0.006,0.428 0.076,0.597 0.557,0.592 C -8.3,3.72 -5.721,3.763 -3.143,3.719 -2.142,3.702 -1.095,3.479 -0.486,2.621 0.04,1.881 0.387,1.079 0,0 m -11.467,9.702 v 5.592 h 2.265 c 1.409,0 2.817,0.006 4.226,-0.003 0.948,-0.005 1.825,-0.274 2.597,-0.826 0.915,-0.653 1.21,-2.209 0.6,-3.258 -0.523,-0.9 -1.276,-1.52 -2.29,-1.52 -2.461,0 -4.92,0.047 -7.375,-10e-4 -0.013,0 -0.027,0.019 -0.023,0.016 M 6.307,3.456 C 6.05,3.982 5.762,4.53 5.357,4.939 4.369,5.936 3.241,6.762 1.833,7.267 1.919,7.332 2.041,7.425 2.187,7.54 c 0.54,0.429 1.415,1.123 1.987,1.868 0.694,0.906 0.915,1.832 1.041,2.46 0.286,1.423 0.274,2.97 -0.311,4.39 -0.63,1.528 -1.611,2.423 -2.067,2.823 -1.398,1.227 -2.852,1.641 -3.77,1.89 -1.414,0.386 -2.554,0.404 -3.19,0.41 -5.73,0.055 -12.315,0.008 -15.681,0.025 -0.292,0.001 -0.529,0.003 -0.67,0.004 0.001,-0.435 0.003,-0.871 0.005,-1.307 0.32,-0.047 0.681,-0.015 0.954,-0.155 1.176,-0.605 1.314,-1.834 1.322,-2.889 0.064,-8.166 0.041,-16.334 0.025,-24.501 -0.001,-0.601 0.169,-0.815 0.79,-0.808 4.706,0.055 9.413,0.044 14.119,0.138 1.339,0.026 2.697,0.229 4.002,0.54 1.32,0.316 2.552,0.936 3.603,1.834 1.616,1.38 2.547,3.101 2.606,5.269 C 6.988,0.888 6.914,2.22 6.307,3.456" /></g><path
           id="path59"
           style="fill:#2bb461;fill-opacity:1;fill-rule:nonzero;stroke:none"
           d="m 95.532,0 h -1.804 v 41.666 h 1.804 z" /><g
           transform="translate(104.9672,29.5645)"
           id="g61"><path
             id="path63"
             style="fill:#2bb461;fill-opacity:1;fill-rule:nonzero;stroke:none"
             d="M 0,0 C 0.202,0 0.398,0.024 0.587,0.071 0.776,0.118 0.943,0.194 1.088,0.298 1.233,0.402 1.348,0.53 1.433,0.681 1.519,0.832 1.561,1.012 1.561,1.22 1.561,1.479 1.509,1.687 1.405,1.845 1.301,2.002 1.165,2.125 0.998,2.214 0.831,2.302 0.643,2.362 0.435,2.393 0.227,2.425 0.019,2.441 -0.189,2.441 H -1.012 V 0.066 C -0.968,0.053 -0.905,0.044 -0.823,0.038 -0.741,0.032 -0.653,0.025 -0.558,0.019 -0.463,0.013 -0.366,0.008 -0.265,0.005 -0.164,0.001 -0.076,0 0,0 m -0.52,3.103 c 0.107,0 0.236,0.003 0.388,0.01 0.151,0.006 0.277,0.015 0.378,0.028 0.152,0.05 0.293,0.112 0.426,0.184 0.132,0.073 0.25,0.158 0.355,0.256 0.104,0.098 0.186,0.211 0.246,0.341 0.06,0.129 0.089,0.269 0.089,0.421 0,0.208 -0.039,0.38 -0.118,0.515 C 1.165,4.994 1.06,5.103 0.927,5.185 0.795,5.266 0.643,5.325 0.473,5.36 0.303,5.394 0.129,5.412 -0.047,5.412 -0.255,5.412 -0.446,5.407 -0.62,5.397 -0.793,5.388 -0.924,5.374 -1.012,5.355 V 3.103 Z m 2.715,1.4 C 2.195,4.346 2.17,4.185 2.119,4.021 2.069,3.857 1.993,3.704 1.892,3.562 1.791,3.42 1.662,3.296 1.504,3.188 1.347,3.081 1.161,2.999 0.946,2.942 V 2.905 C 1.135,2.873 1.317,2.819 1.49,2.744 1.664,2.668 1.817,2.564 1.949,2.431 2.082,2.299 2.189,2.138 2.271,1.949 2.353,1.76 2.394,1.536 2.394,1.277 2.394,0.937 2.323,0.642 2.181,0.393 2.039,0.143 1.853,-0.06 1.623,-0.218 1.392,-0.375 1.129,-0.492 0.833,-0.568 0.536,-0.643 0.233,-0.681 -0.076,-0.681 h -0.378 c -0.145,0 -0.297,0.004 -0.454,0.014 -0.158,0.009 -0.316,0.022 -0.473,0.038 -0.158,0.015 -0.297,0.039 -0.416,0.071 V 5.96 c 0.233,0.038 0.504,0.07 0.813,0.095 0.309,0.025 0.647,0.038 1.013,0.038 0.245,0 0.496,-0.021 0.752,-0.062 C 1.036,5.99 1.268,5.912 1.476,5.795 1.684,5.678 1.856,5.516 1.992,5.308 2.127,5.099 2.195,4.831 2.195,4.503" /></g><g
           transform="translate(110.3128,29.5456)"
           id="g65"><path
             id="path67"
             style="fill:#2bb461;fill-opacity:1;fill-rule:nonzero;stroke:none"
             d="m 0,0 c 0.177,0 0.334,0.024 0.473,0.071 0.139,0.047 0.258,0.107 0.36,0.18 0.1,0.072 0.184,0.153 0.25,0.241 C 1.15,0.58 1.198,0.665 1.23,0.747 V 1.532 C 1.142,1.539 1.052,1.543 0.96,1.547 0.869,1.55 0.779,1.551 0.691,1.551 0.495,1.551 0.304,1.54 0.118,1.518 -0.068,1.496 -0.232,1.455 -0.373,1.396 -0.515,1.336 -0.629,1.254 -0.714,1.149 -0.799,1.045 -0.842,0.914 -0.842,0.757 -0.842,0.536 -0.763,0.355 -0.605,0.213 -0.448,0.071 -0.246,0 0,0 m -1.343,3.794 c 0.239,0.145 0.519,0.252 0.837,0.321 0.318,0.07 0.651,0.104 0.998,0.104 0.328,0 0.591,-0.044 0.79,-0.132 C 1.481,3.999 1.632,3.883 1.736,3.742 1.84,3.6 1.909,3.444 1.944,3.273 1.979,3.103 1.996,2.933 1.996,2.763 1.996,2.384 1.987,2.015 1.968,1.656 1.949,1.296 1.94,0.955 1.94,0.634 1.94,0.4 1.949,0.18 1.968,-0.029 1.987,-0.236 2.022,-0.429 2.072,-0.606 H 1.514 L 1.315,0.057 H 1.268 C 1.211,-0.032 1.14,-0.118 1.055,-0.204 0.97,-0.289 0.867,-0.365 0.747,-0.43 0.628,-0.497 0.489,-0.552 0.331,-0.596 0.173,-0.64 -0.006,-0.662 -0.208,-0.662 c -0.202,0 -0.39,0.031 -0.563,0.094 -0.174,0.063 -0.323,0.153 -0.449,0.27 -0.126,0.117 -0.226,0.257 -0.298,0.421 -0.073,0.164 -0.109,0.35 -0.109,0.558 0,0.277 0.057,0.509 0.17,0.696 0.114,0.185 0.273,0.334 0.478,0.444 0.205,0.11 0.451,0.189 0.738,0.237 0.287,0.047 0.604,0.071 0.951,0.071 H 0.97 C 1.055,2.129 1.142,2.122 1.23,2.11 1.249,2.299 1.258,2.469 1.258,2.621 1.258,2.968 1.189,3.21 1.05,3.349 0.911,3.488 0.659,3.557 0.294,3.557 0.186,3.557 0.071,3.549 -0.052,3.533 -0.175,3.516 -0.301,3.494 -0.43,3.465 -0.56,3.435 -0.682,3.4 -0.799,3.358 -0.916,3.316 -1.018,3.269 -1.107,3.217 Z" /></g><g
           transform="translate(117.2005,28.9589)"
           id="g69"><path
             id="path71"
             style="fill:#2bb461;fill-opacity:1;fill-rule:nonzero;stroke:none"
             d="m 0,0 v 2.696 c 0,0.492 -0.071,0.863 -0.213,1.112 -0.142,0.249 -0.402,0.374 -0.78,0.374 -0.335,0 -0.61,-0.09 -0.828,-0.27 C -2.039,3.732 -2.192,3.507 -2.28,3.236 V 0 h -0.757 v 4.731 h 0.53 l 0.142,-0.577 h 0.038 c 0.151,0.201 0.354,0.367 0.61,0.496 0.255,0.129 0.56,0.194 0.913,0.194 0.258,0 0.486,-0.03 0.681,-0.09 C 0.073,4.694 0.235,4.589 0.364,4.437 0.493,4.286 0.591,4.083 0.658,3.827 0.724,3.571 0.757,3.248 0.757,2.857 V 0 Z" /></g><g
           transform="translate(122.9907,29.271)"
           id="g73"><path
             id="path75"
             style="fill:#2bb461;fill-opacity:1;fill-rule:nonzero;stroke:none"
             d="m 0,0 c -0.189,-0.139 -0.413,-0.244 -0.672,-0.317 -0.259,-0.072 -0.53,-0.108 -0.813,-0.108 -0.366,0 -0.675,0.058 -0.928,0.174 -0.252,0.117 -0.459,0.284 -0.62,0.502 -0.16,0.218 -0.277,0.479 -0.349,0.785 -0.073,0.306 -0.109,0.645 -0.109,1.017 0,0.801 0.176,1.415 0.529,1.841 0.354,0.425 0.861,0.638 1.524,0.638 0.302,0 0.559,-0.024 0.771,-0.071 0.211,-0.047 0.402,-0.115 0.572,-0.203 L -0.312,3.605 c -0.145,0.082 -0.306,0.147 -0.483,0.194 -0.176,0.047 -0.366,0.071 -0.567,0.071 -0.896,0 -1.344,-0.606 -1.344,-1.817 0,-0.24 0.024,-0.468 0.071,-0.686 0.047,-0.217 0.126,-0.41 0.237,-0.577 0.11,-0.167 0.255,-0.301 0.435,-0.402 0.179,-0.101 0.402,-0.151 0.667,-0.151 0.227,0 0.43,0.034 0.61,0.104 0.18,0.069 0.327,0.148 0.44,0.236 z" /></g><g
           transform="translate(124.76,31.3242)"
           id="g77"><path
             id="path79"
             style="fill:#2bb461;fill-opacity:1;fill-rule:nonzero;stroke:none"
             d="M 0,0 C 0,-0.24 0.024,-0.47 0.071,-0.691 0.118,-0.911 0.192,-1.104 0.293,-1.268 0.394,-1.432 0.527,-1.564 0.69,-1.665 0.855,-1.766 1.053,-1.816 1.287,-1.816 2.144,-1.823 2.573,-1.217 2.573,0 2.573,0.246 2.55,0.479 2.502,0.7 2.455,0.921 2.381,1.113 2.28,1.277 2.179,1.441 2.047,1.572 1.883,1.67 1.719,1.768 1.52,1.816 1.287,1.816 0.429,1.823 0,1.217 0,0 m -0.785,0 c 0,0.801 0.178,1.414 0.534,1.84 0.356,0.426 0.869,0.639 1.538,0.639 0.353,0 0.66,-0.059 0.922,-0.175 C 2.471,2.187 2.687,2.02 2.857,1.803 3.028,1.585 3.154,1.323 3.235,1.017 3.317,0.711 3.359,0.372 3.359,0 3.359,-0.801 3.18,-1.414 2.824,-1.84 2.468,-2.266 1.955,-2.479 1.287,-2.479 c -0.354,0 -0.661,0.059 -0.923,0.175 -0.262,0.117 -0.478,0.284 -0.648,0.501 -0.17,0.218 -0.296,0.48 -0.378,0.786 -0.083,0.306 -0.123,0.645 -0.123,1.017" /></g><g
           transform="translate(104.3618,21.9391)"
           id="g81"><path
             id="path83"
             style="fill:#2bb461;fill-opacity:1;fill-rule:nonzero;stroke:none"
             d="M 0,0 -0.511,0.955 H -0.549 L -0.454,0 v -4.333 h -0.738 v 6.726 h 0.416 l 3.17,-4.418 0.492,-0.908 H 2.933 L 2.829,-2.025 V 2.29 H 3.566 V -4.438 H 3.151 Z" /></g><g
           transform="translate(111.1546,18.1923)"
           id="g85"><path
             id="path87"
             style="fill:#2bb461;fill-opacity:1;fill-rule:nonzero;stroke:none"
             d="M 0,0 C 0.177,0 0.334,0.024 0.473,0.071 0.612,0.118 0.732,0.178 0.833,0.251 0.934,0.323 1.017,0.404 1.084,0.492 1.15,0.58 1.199,0.665 1.23,0.747 V 1.532 C 1.142,1.539 1.052,1.543 0.96,1.547 0.869,1.55 0.779,1.551 0.691,1.551 0.495,1.551 0.304,1.54 0.118,1.518 -0.068,1.496 -0.232,1.455 -0.373,1.396 -0.515,1.336 -0.629,1.254 -0.714,1.149 -0.799,1.045 -0.842,0.914 -0.842,0.757 -0.842,0.536 -0.763,0.355 -0.605,0.213 -0.447,0.071 -0.246,0 0,0 m -1.343,3.794 c 0.24,0.145 0.519,0.252 0.837,0.322 C -0.188,4.185 0.145,4.22 0.492,4.22 0.82,4.22 1.084,4.176 1.282,4.087 1.481,3.999 1.632,3.884 1.736,3.742 1.84,3.6 1.91,3.444 1.944,3.273 1.979,3.103 1.997,2.933 1.997,2.763 1.997,2.384 1.987,2.015 1.968,1.656 1.949,1.296 1.94,0.955 1.94,0.634 1.94,0.4 1.949,0.18 1.968,-0.029 1.987,-0.236 2.022,-0.429 2.072,-0.606 H 1.514 L 1.315,0.057 H 1.268 C 1.211,-0.032 1.14,-0.118 1.055,-0.204 0.97,-0.289 0.867,-0.365 0.748,-0.43 0.628,-0.497 0.489,-0.552 0.331,-0.596 0.173,-0.64 -0.006,-0.662 -0.208,-0.662 c -0.202,0 -0.389,0.031 -0.563,0.094 -0.173,0.063 -0.323,0.153 -0.449,0.27 -0.126,0.117 -0.226,0.257 -0.298,0.421 -0.073,0.164 -0.109,0.35 -0.109,0.558 0,0.277 0.057,0.509 0.17,0.696 0.114,0.185 0.273,0.334 0.478,0.444 0.205,0.11 0.451,0.189 0.738,0.237 0.287,0.047 0.604,0.071 0.951,0.071 H 0.97 C 1.055,2.129 1.142,2.122 1.23,2.11 1.249,2.299 1.259,2.47 1.259,2.621 1.259,2.968 1.189,3.21 1.05,3.349 0.911,3.488 0.659,3.557 0.294,3.557 0.186,3.557 0.071,3.549 -0.052,3.533 -0.175,3.517 -0.301,3.494 -0.43,3.465 -0.56,3.436 -0.682,3.4 -0.799,3.358 -0.916,3.316 -1.018,3.269 -1.106,3.217 Z" /></g><g
           transform="translate(118.232,17.9177)"
           id="g89"><path
             id="path91"
             style="fill:#2bb461;fill-opacity:1;fill-rule:nonzero;stroke:none"
             d="m 0,0 c -0.189,-0.139 -0.413,-0.244 -0.672,-0.317 -0.259,-0.072 -0.53,-0.108 -0.813,-0.108 -0.366,0 -0.675,0.058 -0.928,0.174 -0.252,0.117 -0.459,0.284 -0.62,0.502 -0.16,0.218 -0.277,0.479 -0.349,0.785 -0.073,0.306 -0.109,0.645 -0.109,1.017 0,0.801 0.176,1.415 0.529,1.841 0.354,0.425 0.861,0.638 1.524,0.638 0.302,0 0.559,-0.023 0.771,-0.071 0.211,-0.047 0.402,-0.115 0.572,-0.203 L -0.312,3.605 c -0.145,0.082 -0.306,0.147 -0.483,0.194 -0.176,0.047 -0.366,0.071 -0.567,0.071 -0.896,0 -1.344,-0.605 -1.344,-1.817 0,-0.24 0.024,-0.468 0.071,-0.686 0.047,-0.217 0.126,-0.41 0.237,-0.577 0.11,-0.167 0.255,-0.301 0.435,-0.402 0.179,-0.101 0.402,-0.151 0.667,-0.151 0.227,0 0.43,0.034 0.61,0.104 0.18,0.069 0.327,0.148 0.44,0.236 z" /></g><path
           id="path93"
           style="fill:#2bb461;fill-opacity:1;fill-rule:nonzero;stroke:none"
           d="m 119.859,22.336 h 0.757 v -4.731 h -0.757 z m -0.161,1.438 c 0,0.146 0.049,0.27 0.147,0.374 0.098,0.104 0.222,0.156 0.373,0.156 0.152,0 0.281,-0.052 0.388,-0.156 0.108,-0.104 0.161,-0.228 0.161,-0.374 0,-0.145 -0.053,-0.265 -0.161,-0.359 -0.107,-0.095 -0.236,-0.142 -0.388,-0.142 -0.151,0 -0.275,0.047 -0.373,0.142 -0.098,0.094 -0.147,0.214 -0.147,0.359" /><g
           transform="translate(123.1796,19.9709)"
           id="g95"><path
             id="path97"
             style="fill:#2bb461;fill-opacity:1;fill-rule:nonzero;stroke:none"
             d="M 0,0 C 0,-0.24 0.024,-0.47 0.071,-0.691 0.118,-0.911 0.192,-1.104 0.293,-1.268 0.394,-1.432 0.527,-1.564 0.69,-1.665 0.855,-1.766 1.053,-1.816 1.287,-1.816 2.144,-1.823 2.573,-1.217 2.573,0 2.573,0.246 2.55,0.479 2.502,0.7 2.455,0.921 2.381,1.114 2.28,1.277 2.179,1.442 2.047,1.572 1.883,1.67 1.719,1.768 1.52,1.817 1.287,1.817 0.429,1.823 0,1.217 0,0 m -0.785,0 c 0,0.801 0.178,1.415 0.534,1.841 0.356,0.425 0.869,0.638 1.538,0.638 0.353,0 0.66,-0.058 0.922,-0.175 C 2.471,2.187 2.687,2.02 2.857,1.803 3.028,1.585 3.154,1.323 3.235,1.017 3.317,0.711 3.359,0.372 3.359,0 3.359,-0.801 3.18,-1.414 2.824,-1.84 2.468,-2.266 1.955,-2.479 1.287,-2.479 c -0.354,0 -0.661,0.059 -0.923,0.175 -0.262,0.117 -0.478,0.284 -0.648,0.501 -0.17,0.218 -0.296,0.48 -0.378,0.786 -0.083,0.306 -0.123,0.645 -0.123,1.017" /></g><g
           transform="translate(131.1931,17.6056)"
           id="g99"><path
             id="path101"
             style="fill:#2bb461;fill-opacity:1;fill-rule:nonzero;stroke:none"
             d="m 0,0 v 2.696 c 0,0.493 -0.071,0.863 -0.213,1.113 -0.142,0.249 -0.402,0.373 -0.78,0.373 -0.335,0 -0.61,-0.09 -0.828,-0.27 C -2.039,3.732 -2.192,3.507 -2.28,3.236 V 0 h -0.757 v 4.731 h 0.53 l 0.142,-0.577 h 0.038 c 0.151,0.201 0.354,0.367 0.61,0.497 0.255,0.128 0.56,0.193 0.913,0.193 0.258,0 0.486,-0.03 0.681,-0.09 C 0.073,4.694 0.235,4.589 0.364,4.438 0.493,4.286 0.591,4.083 0.658,3.827 0.724,3.572 0.757,3.248 0.757,2.857 V 0 Z" /></g><g
           transform="translate(135.0249,18.1923)"
           id="g103"><path
             id="path105"
             style="fill:#2bb461;fill-opacity:1;fill-rule:nonzero;stroke:none"
             d="M 0,0 C 0.177,0 0.334,0.024 0.473,0.071 0.612,0.118 0.732,0.178 0.833,0.251 0.934,0.323 1.017,0.404 1.084,0.492 1.15,0.58 1.199,0.665 1.23,0.747 V 1.532 C 1.142,1.539 1.052,1.543 0.96,1.547 0.869,1.55 0.779,1.551 0.691,1.551 0.495,1.551 0.304,1.54 0.118,1.518 -0.068,1.496 -0.232,1.455 -0.373,1.396 -0.515,1.336 -0.629,1.254 -0.714,1.149 -0.799,1.045 -0.842,0.914 -0.842,0.757 -0.842,0.536 -0.763,0.355 -0.605,0.213 -0.448,0.071 -0.246,0 0,0 m -1.343,3.794 c 0.239,0.145 0.519,0.252 0.837,0.322 C -0.188,4.185 0.145,4.22 0.492,4.22 0.82,4.22 1.084,4.176 1.282,4.087 1.481,3.999 1.632,3.884 1.736,3.742 1.84,3.6 1.91,3.444 1.944,3.273 1.979,3.103 1.997,2.933 1.997,2.763 1.997,2.384 1.987,2.015 1.968,1.656 1.949,1.296 1.94,0.955 1.94,0.634 1.94,0.4 1.949,0.18 1.968,-0.029 1.987,-0.236 2.022,-0.429 2.072,-0.606 H 1.514 L 1.315,0.057 H 1.268 C 1.211,-0.032 1.14,-0.118 1.055,-0.204 0.97,-0.289 0.867,-0.365 0.748,-0.43 0.628,-0.497 0.489,-0.552 0.331,-0.596 0.173,-0.64 -0.006,-0.662 -0.208,-0.662 c -0.202,0 -0.39,0.031 -0.563,0.094 -0.174,0.063 -0.323,0.153 -0.449,0.27 -0.126,0.117 -0.226,0.257 -0.298,0.421 -0.073,0.164 -0.109,0.35 -0.109,0.558 0,0.277 0.057,0.509 0.17,0.696 0.114,0.185 0.273,0.334 0.478,0.444 0.205,0.11 0.451,0.189 0.738,0.237 0.287,0.047 0.604,0.071 0.951,0.071 H 0.97 C 1.055,2.129 1.142,2.122 1.23,2.11 1.249,2.299 1.259,2.47 1.259,2.621 1.259,2.968 1.189,3.21 1.05,3.349 0.911,3.488 0.659,3.557 0.294,3.557 0.186,3.557 0.071,3.549 -0.052,3.533 -0.175,3.517 -0.301,3.494 -0.43,3.465 -0.56,3.436 -0.682,3.4 -0.799,3.358 -0.916,3.316 -1.018,3.269 -1.107,3.217 Z" /></g><g
           transform="translate(139.7177,18.7694)"
           id="g107"><path
             id="path109"
             style="fill:#2bb461;fill-opacity:1;fill-rule:nonzero;stroke:none"
             d="m 0,0 c 0,-0.221 0.038,-0.378 0.113,-0.473 0.076,-0.095 0.183,-0.142 0.322,-0.142 0.082,0 0.17,0.006 0.265,0.019 0.095,0.013 0.202,0.041 0.322,0.085 L 1.107,-1.107 C 1.006,-1.157 0.866,-1.198 0.686,-1.23 0.506,-1.262 0.35,-1.277 0.218,-1.277 c -0.284,0 -0.518,0.08 -0.701,0.241 -0.183,0.161 -0.274,0.434 -0.274,0.818 V 5.459 H 0 Z" /></g><g
           transform="translate(104.816,6.8011)"
           id="g111"><path
             id="path113"
             style="fill:#2bb461;fill-opacity:1;fill-rule:nonzero;stroke:none"
             d="M 0,0 C 0.321,0 0.577,0.084 0.766,0.251 0.955,0.417 1.085,0.672 1.154,1.012 V 3.359 C 1.041,3.447 0.911,3.51 0.766,3.548 0.621,3.586 0.429,3.605 0.189,3.605 -0.246,3.605 -0.587,3.461 -0.833,3.174 -1.079,2.887 -1.202,2.428 -1.202,1.797 c 0,-0.258 0.021,-0.498 0.062,-0.719 0.041,-0.22 0.109,-0.41 0.203,-0.567 C -0.842,0.353 -0.718,0.228 -0.563,0.137 -0.409,0.045 -0.221,0 0,0 m 1.911,1.078 c 0,-0.321 0.003,-0.613 0.01,-0.875 0.006,-0.261 0.034,-0.519 0.085,-0.771 H 1.495 L 1.305,0.104 H 1.268 C 1.141,-0.117 0.959,-0.3 0.719,-0.445 0.479,-0.59 0.199,-0.662 -0.123,-0.662 c -0.631,0 -1.099,0.198 -1.405,0.596 -0.306,0.397 -0.459,1.018 -0.459,1.863 0,0.808 0.191,1.421 0.573,1.841 0.381,0.419 0.906,0.629 1.575,0.629 0.233,0 0.418,-0.013 0.553,-0.038 C 0.85,4.203 0.996,4.163 1.154,4.106 v 1.968 h 0.757 z" /></g><g
           transform="translate(110.4358,10.4338)"
           id="g115"><path
             id="path117"
             style="fill:#2bb461;fill-opacity:1;fill-rule:nonzero;stroke:none"
             d="m 0,0 c -0.373,0 -0.67,-0.098 -0.894,-0.293 -0.224,-0.196 -0.358,-0.53 -0.402,-1.003 H 1.05 c 0,0.479 -0.092,0.815 -0.275,1.007 C 0.592,-0.096 0.334,0 0,0 M 1.627,-3.803 C 1.438,-3.954 1.2,-4.075 0.913,-4.163 0.626,-4.251 0.322,-4.295 0,-4.295 c -0.36,0 -0.672,0.058 -0.937,0.175 -0.265,0.116 -0.483,0.284 -0.653,0.501 -0.17,0.218 -0.296,0.478 -0.378,0.781 -0.082,0.303 -0.123,0.643 -0.123,1.022 0,0.807 0.18,1.422 0.539,1.845 0.36,0.422 0.874,0.633 1.542,0.633 0.215,0 0.429,-0.023 0.644,-0.071 C 0.848,0.544 1.04,0.454 1.211,0.322 1.381,0.189 1.52,0.002 1.627,-0.241 c 0.107,-0.243 0.161,-0.563 0.161,-0.961 0,-0.207 -0.019,-0.438 -0.057,-0.69 h -3.037 c 0,-0.278 0.028,-0.524 0.085,-0.738 0.057,-0.214 0.145,-0.396 0.265,-0.544 0.12,-0.148 0.276,-0.262 0.468,-0.341 0.193,-0.079 0.428,-0.118 0.706,-0.118 0.214,0 0.428,0.038 0.643,0.114 0.214,0.075 0.375,0.163 0.482,0.265 z" /></g><g
           transform="translate(118.6666,6.8577)"
           id="g119"><path
             id="path121"
             style="fill:#2bb461;fill-opacity:1;fill-rule:nonzero;stroke:none"
             d="M 0,0 C 0.202,0 0.397,0.024 0.587,0.071 0.776,0.118 0.943,0.194 1.088,0.298 1.233,0.402 1.348,0.53 1.433,0.681 1.519,0.832 1.561,1.012 1.561,1.22 1.561,1.479 1.509,1.687 1.405,1.845 1.301,2.002 1.165,2.125 0.998,2.214 0.831,2.302 0.643,2.362 0.435,2.393 0.227,2.425 0.019,2.441 -0.189,2.441 H -1.012 V 0.066 C -0.968,0.053 -0.905,0.044 -0.823,0.038 -0.741,0.031 -0.653,0.025 -0.558,0.019 -0.464,0.013 -0.366,0.008 -0.265,0.005 -0.164,0.001 -0.076,0 0,0 m -0.52,3.103 c 0.107,0 0.236,0.003 0.388,0.01 0.151,0.006 0.277,0.015 0.378,0.028 0.151,0.05 0.293,0.112 0.426,0.184 0.132,0.073 0.251,0.158 0.354,0.256 0.105,0.098 0.186,0.211 0.247,0.341 0.06,0.129 0.089,0.269 0.089,0.42 0,0.209 -0.039,0.381 -0.118,0.516 C 1.165,4.994 1.06,5.103 0.927,5.185 0.795,5.266 0.643,5.325 0.473,5.36 0.303,5.394 0.129,5.412 -0.047,5.412 -0.255,5.412 -0.446,5.407 -0.619,5.397 -0.793,5.388 -0.924,5.374 -1.012,5.355 V 3.103 Z m 2.715,1.4 C 2.195,4.346 2.17,4.185 2.119,4.021 2.069,3.857 1.993,3.704 1.892,3.562 1.791,3.42 1.662,3.296 1.504,3.188 1.347,3.081 1.16,2.999 0.946,2.942 V 2.905 C 1.136,2.873 1.317,2.819 1.49,2.744 1.663,2.668 1.817,2.564 1.949,2.431 2.081,2.299 2.189,2.138 2.271,1.949 2.353,1.76 2.394,1.536 2.394,1.277 2.394,0.937 2.323,0.642 2.181,0.393 2.039,0.143 1.853,-0.06 1.623,-0.218 1.392,-0.375 1.129,-0.492 0.833,-0.568 0.536,-0.643 0.233,-0.681 -0.076,-0.681 h -0.378 c -0.145,0 -0.296,0.004 -0.454,0.014 -0.158,0.009 -0.316,0.022 -0.473,0.038 -0.158,0.015 -0.297,0.039 -0.416,0.071 V 5.96 c 0.233,0.038 0.504,0.07 0.813,0.095 0.309,0.025 0.647,0.038 1.013,0.038 0.246,0 0.496,-0.021 0.752,-0.062 C 1.036,5.99 1.268,5.912 1.476,5.795 1.684,5.678 1.856,5.516 1.992,5.308 2.127,5.099 2.195,4.831 2.195,4.503" /></g><g
           transform="translate(123.2649,8.6174)"
           id="g123"><path
             id="path125"
             style="fill:#2bb461;fill-opacity:1;fill-rule:nonzero;stroke:none"
             d="M 0,0 C 0,-0.24 0.024,-0.47 0.071,-0.691 0.118,-0.911 0.192,-1.104 0.293,-1.268 0.394,-1.432 0.527,-1.564 0.69,-1.665 0.855,-1.766 1.053,-1.816 1.287,-1.816 2.144,-1.823 2.573,-1.217 2.573,0 2.573,0.246 2.55,0.479 2.502,0.7 2.455,0.921 2.381,1.113 2.28,1.277 2.179,1.441 2.047,1.572 1.883,1.67 1.719,1.768 1.52,1.816 1.287,1.816 0.429,1.823 0,1.217 0,0 m -0.785,0 c 0,0.801 0.178,1.414 0.534,1.84 0.356,0.426 0.869,0.639 1.538,0.639 0.353,0 0.66,-0.059 0.922,-0.175 C 2.471,2.187 2.687,2.02 2.857,1.803 3.028,1.585 3.154,1.323 3.235,1.017 3.317,0.711 3.359,0.372 3.359,0 3.359,-0.801 3.18,-1.414 2.824,-1.84 2.468,-2.266 1.955,-2.479 1.287,-2.479 c -0.354,0 -0.661,0.059 -0.923,0.175 -0.262,0.117 -0.478,0.284 -0.648,0.501 -0.17,0.218 -0.296,0.48 -0.378,0.786 -0.083,0.306 -0.123,0.645 -0.123,1.017" /></g><g
           transform="translate(129.0836,7.4159)"
           id="g127"><path
             id="path129"
             style="fill:#2bb461;fill-opacity:1;fill-rule:nonzero;stroke:none"
             d="m 0,0 c 0,-0.221 0.038,-0.378 0.113,-0.473 0.076,-0.095 0.183,-0.142 0.322,-0.142 0.082,0 0.17,0.006 0.265,0.019 0.095,0.013 0.202,0.041 0.322,0.085 L 1.107,-1.107 C 1.006,-1.157 0.866,-1.198 0.686,-1.23 0.506,-1.262 0.35,-1.277 0.218,-1.277 c -0.284,0 -0.518,0.08 -0.701,0.241 -0.183,0.161 -0.274,0.434 -0.274,0.818 V 5.459 H 0 Z" /></g><path
           id="path131"
           style="fill:#2bb461;fill-opacity:1;fill-rule:nonzero;stroke:none"
           d="m 131.591,10.983 h 0.757 V 6.252 h -0.757 z m -0.161,1.438 c 0,0.145 0.049,0.269 0.147,0.373 0.097,0.105 0.222,0.157 0.373,0.157 0.152,0 0.281,-0.052 0.388,-0.157 0.107,-0.104 0.161,-0.228 0.161,-0.373 0,-0.145 -0.054,-0.265 -0.161,-0.36 -0.107,-0.094 -0.236,-0.142 -0.388,-0.142 -0.151,0 -0.276,0.048 -0.373,0.142 -0.098,0.095 -0.147,0.215 -0.147,0.36" /><g
           transform="translate(135.7531,8.2105)"
           id="g133"><path
             id="path135"
             style="fill:#2bb461;fill-opacity:1;fill-rule:nonzero;stroke:none"
             d="M 0,0 0.265,-0.899 H 0.274 L 0.511,0.019 1.57,2.772 H 2.384 L 0.369,-2.062 H 0.047 l -2.053,4.834 h 0.87 z" /></g><path
           id="path137"
           style="fill:#2bb461;fill-opacity:1;fill-rule:nonzero;stroke:none"
           d="m 139.538,10.983 h 0.757 V 6.252 h -0.757 z m -0.161,1.438 c 0,0.145 0.048,0.269 0.146,0.373 0.098,0.105 0.222,0.157 0.374,0.157 0.151,0 0.281,-0.052 0.388,-0.157 0.107,-0.104 0.16,-0.228 0.16,-0.373 0,-0.145 -0.053,-0.265 -0.16,-0.36 -0.107,-0.094 -0.237,-0.142 -0.388,-0.142 -0.152,0 -0.276,0.048 -0.374,0.142 -0.098,0.095 -0.146,0.215 -0.146,0.36" /><g
           transform="translate(143.6053,6.8389)"
           id="g139"><path
             id="path141"
             style="fill:#2bb461;fill-opacity:1;fill-rule:nonzero;stroke:none"
             d="M 0,0 C 0.177,0 0.334,0.024 0.473,0.071 0.612,0.118 0.732,0.178 0.833,0.251 0.934,0.323 1.017,0.404 1.084,0.492 1.15,0.58 1.199,0.665 1.23,0.747 V 1.532 C 1.142,1.539 1.052,1.543 0.96,1.547 0.869,1.55 0.779,1.551 0.691,1.551 0.495,1.551 0.304,1.54 0.118,1.518 -0.068,1.496 -0.232,1.455 -0.373,1.396 -0.515,1.335 -0.629,1.254 -0.714,1.149 -0.799,1.045 -0.842,0.914 -0.842,0.757 -0.842,0.536 -0.763,0.355 -0.605,0.213 -0.448,0.071 -0.246,0 0,0 m -1.343,3.794 c 0.239,0.145 0.519,0.252 0.837,0.321 0.318,0.07 0.651,0.104 0.998,0.104 0.328,0 0.592,-0.044 0.79,-0.132 C 1.481,3.999 1.632,3.883 1.736,3.742 1.84,3.6 1.91,3.444 1.944,3.273 1.979,3.103 1.997,2.933 1.997,2.763 1.997,2.384 1.987,2.015 1.968,1.656 1.949,1.296 1.94,0.955 1.94,0.634 1.94,0.4 1.949,0.18 1.968,-0.029 1.987,-0.236 2.022,-0.429 2.072,-0.606 H 1.514 L 1.315,0.057 H 1.268 C 1.211,-0.032 1.14,-0.118 1.055,-0.204 0.97,-0.289 0.867,-0.365 0.748,-0.43 0.628,-0.497 0.489,-0.552 0.331,-0.596 0.173,-0.64 -0.006,-0.662 -0.208,-0.662 c -0.202,0 -0.39,0.031 -0.563,0.094 -0.174,0.063 -0.323,0.153 -0.449,0.27 -0.126,0.117 -0.226,0.257 -0.298,0.421 -0.073,0.164 -0.109,0.35 -0.109,0.558 0,0.277 0.057,0.509 0.17,0.696 0.114,0.185 0.273,0.334 0.478,0.444 0.205,0.11 0.451,0.189 0.738,0.237 0.287,0.047 0.604,0.071 0.951,0.071 H 0.97 C 1.055,2.129 1.142,2.122 1.23,2.11 1.249,2.299 1.259,2.469 1.259,2.621 1.259,2.968 1.189,3.21 1.05,3.349 0.911,3.488 0.659,3.557 0.294,3.557 0.186,3.557 0.071,3.549 -0.052,3.533 -0.175,3.516 -0.301,3.494 -0.43,3.465 -0.56,3.435 -0.682,3.4 -0.799,3.358 -0.916,3.316 -1.018,3.269 -1.107,3.217 Z" /></g></g></g></g></svg>