<svg height="1058" viewBox=".70615149 .81 191.98384851 81.74" width="2500" xmlns="http://www.w3.org/2000/svg"><path d="m3.03 50.5a25.619 25.619 0 0 1 -1.82-9.5c0-1.89.21-3.74.6-5.52 2.56 3.08 6.41 5.03 10.72 5.03.17 0 .33 0 .5-.02 0 .17-.01.33-.01.5 0 4.31 1.95 8.17 5.03 10.72-1.78.39-3.62.6-5.51.6-3.36 0-6.56-.65-9.5-1.82" fill="#53843e"/><path d="m50.89 50.5c1.17-2.94 1.81-6.14 1.81-9.5 0-1.89-.2-3.74-.59-5.52a13.898 13.898 0 0 1 -10.73 5.03c-.17 0-.33 0-.5-.02.01.17.01.33.01.5 0 4.31-1.96 8.17-5.03 10.72 1.78.39 3.63.6 5.52.6 3.36 0 6.56-.65 9.5-1.82" fill="#4a7a9e"/><path d="m13.02 40.46v.05c-.16 0-.33.01-.5.01-4.31 0-8.16-1.96-10.72-5.03a25.59 25.59 0 0 1 3.84-8.92c1.01 1.48 2.17 2.86 3.45 4.1.4.41.86.77 1.36 1.05h.02c.16.1.32.18.48.25l.04.02c.15.07.31.13.48.18l.08.03c.15.05.3.09.46.12l.12.03c.15.03.3.05.46.08l.14.02a5.873 5.873 0 0 0 4.63-1.56c1.05-.98 0 .01 0 .01-2.56 2.42-4.34 5.8-4.34 9.57m27.88-.01v.05c.16 0 .33.01.49.01 4.31 0 8.16-1.96 10.72-5.03a25.59 25.59 0 0 0 -3.84-8.92c-1 1.48-2.17 2.86-3.45 4.1-.4.41-.86.77-1.36 1.05h-.01c-.16.1-.32.18-.49.25l-.04.02c-.15.07-.31.13-.48.18l-.08.03-.46.12-.12.03c-.15.03-.3.05-.46.08l-.13.02a5.873 5.873 0 0 1 -4.63-1.56c-1.05-.98-.01.01-.01.01 2.56 2.42 4.35 5.8 4.35 9.57" fill="#6fb0b5"/><path d="m3.03 2.64a25.658 25.658 0 0 0 -1.22 15.01c2.56-3.07 6.41-5.02 10.72-5.02h.5c0-.16-.01-.33-.01-.5 0-4.31 1.95-8.16 5.03-10.72-1.78-.39-3.62-.6-5.51-.6-3.36 0-6.56.65-9.5 1.82" fill="#707436"/><path d="m13.07 40.51h-.05c0 .16-.01.32-.01.49 0 4.31 1.96 8.17 5.03 10.72a25.59 25.59 0 0 0 8.92-3.84 25.579 25.579 0 0 1 -4.1-3.45c-.41-.4-.77-.86-1.05-1.36a5.69 5.69 0 0 1 -.24-.5l-.02-.04c-.07-.15-.13-.31-.18-.48l-.03-.08c-.05-.15-.09-.31-.13-.46l-.02-.11c-.03-.15-.06-.3-.07-.46l-.02-.14a5.873 5.873 0 0 1 1.56-4.63h-.01v-.01c-2.43 2.56-5.8 4.34-9.57 4.34m-.01-27.87h-.05c0-.16-.01-.33-.01-.5 0-4.31 1.96-8.16 5.03-10.72 3.24.71 6.26 2.03 8.92 3.84a25.579 25.579 0 0 0 -4.1 3.45c-.41.4-.77.86-1.05 1.37-.09.17-.17.33-.24.5l-.02.04c-.07.16-.13.32-.18.48l-.03.08c-.05.15-.09.31-.13.46l-.02.11c-.03.15-.06.3-.07.46l-.02.14a5.916 5.916 0 0 0 1.56 4.64c.98 1.06 0 0 0 0-2.43-2.56-5.8-4.34-9.57-4.34" fill="#e3af4a"/><path d="m32.11 43.07c.09-.17.17-.33.24-.5l.02-.04c.07-.16.13-.31.18-.48l.02-.08c.05-.15.09-.3.12-.46l.03-.11.07-.46.02-.14a5.898 5.898 0 0 0 -5.87-6.51 5.898 5.898 0 0 0 -5.87 6.51v.1c.03.17.05.33.09.5l.02.08c.04.17.08.33.13.49l.02.05c.06.17.12.33.19.5v.02c.32.71.77 1.35 1.32 1.88 1.24 1.28 2.62 2.44 4.1 3.45 1.49-1.01 2.86-2.16 4.1-3.45.41-.4.77-.86 1.05-1.37m.74-30.71-.02-.14c-.02-.16-.04-.31-.07-.46l-.03-.11c-.03-.16-.07-.31-.12-.46l-.03-.08a4.68 4.68 0 0 0 -.18-.48l-.02-.04c-.07-.17-.15-.33-.24-.48-.28-.52-.64-.98-1.05-1.38a26.023 26.023 0 0 0 -4.1-3.45c-1.49 1-2.86 2.16-4.1 3.45-.55.54-.99 1.17-1.3 1.88v.02c-.08.16-.14.33-.2.5l-.02.05c-.05.16-.09.33-.13.49l-.02.09c-.04.16-.06.33-.08.5v.09c-.03.2-.04.4-.04.61 0 3.26 2.64 5.9 5.9 5.9a5.898 5.898 0 0 0 5.87-6.51" fill="#bd0618"/><path d="m50.89 2.64c1.17 2.94 1.81 6.15 1.81 9.5 0 1.89-.2 3.73-.59 5.51a13.922 13.922 0 0 0 -10.73-5.02h-.5c.01-.16.01-.33.01-.5 0-4.31-1.96-8.16-5.03-10.72 1.78-.39 3.63-.6 5.52-.6 3.36 0 6.56.65 9.5 1.82" fill="#9e7044"/><path d="m40.84 40.51h.05c.01.16.01.32.01.49 0 4.31-1.95 8.17-5.03 10.72a25.59 25.59 0 0 1 -8.92-3.84 25.15 25.15 0 0 0 4.1-3.45c.41-.4.77-.86 1.05-1.36.09-.17.17-.33.24-.5l.02-.04c.07-.15.13-.31.18-.48l.03-.08c.05-.15.09-.31.12-.46l.03-.11c.03-.15.05-.3.07-.46l.02-.14a5.873 5.873 0 0 0 -1.56-4.63c2.42 2.54 5.8 4.33 9.57 4.33m.02-27.87h.05c.01-.16.01-.33.01-.5 0-4.31-1.95-8.16-5.03-10.72a25.59 25.59 0 0 0 -8.92 3.84 25.15 25.15 0 0 1 4.1 3.45c.41.4.77.86 1.05 1.37.09.17.17.33.24.5l.02.04c.07.16.13.32.18.48l.03.08c.05.15.09.31.12.46l.03.11c.03.15.05.3.07.46l.02.14a5.916 5.916 0 0 1 -1.56 4.64c-.98 1.06 0 0 0 0 2.42-2.56 5.8-4.34 9.57-4.34" fill="#d07866"/><path d="m13.02 12.68v-.05c-.16 0-.33-.01-.5-.01-4.31 0-8.16 1.95-10.72 5.02a25.59 25.59 0 0 0 3.84 8.92c1.01-1.49 2.17-2.86 3.45-4.11.4-.41.86-.77 1.36-1.05h.02c.16-.1.32-.17.48-.25l.04-.02c.15-.07.31-.13.48-.18l.08-.03c.15-.05.3-.09.46-.12l.12-.03c.15-.03.3-.05.46-.07l.14-.02a5.873 5.873 0 0 1 4.63 1.56c1.05.98 0-.01 0-.01-2.56-2.42-4.34-5.8-4.34-9.57m27.88.02v-.05c.16 0 .33-.01.49-.01 4.31 0 8.16 1.95 10.72 5.02a25.59 25.59 0 0 1 -3.84 8.92c-1-1.49-2.17-2.86-3.45-4.11-.4-.41-.86-.77-1.36-1.05h-.01c-.16-.1-.32-.17-.49-.25l-.04-.02c-.15-.07-.31-.13-.48-.18l-.08-.03-.46-.12-.12-.03c-.15-.03-.3-.05-.46-.07l-.13-.02a5.873 5.873 0 0 0 -4.63 1.56c-1.05.98-.01-.01-.01-.01 2.56-2.42 4.35-5.8 4.35-9.57" fill="#a2be44"/><path d="m13.33 20.67c-.21 0-.41.01-.61.03l-.13.02c-.16.02-.31.04-.46.07l-.11.03c-.16.03-.31.07-.46.12l-.07.03c-.16.05-.33.12-.48.18l-.04.02a5.87 5.87 0 0 0 -1.86 1.29 25.652 25.652 0 0 0 -3.45 4.11c1.01 1.49 2.17 2.86 3.45 4.1.4.41.86.77 1.36 1.05h.01c.16.1.32.18.49.25l.04.02c.15.07.31.13.48.18l.08.03c.15.05.31.09.46.12l.11.03c.15.03.3.05.46.08l.14.02a5.898 5.898 0 0 0 6.51-5.87c0-3.26-2.64-5.9-5.9-5.9m34.92 5.89a26.097 26.097 0 0 0 -3.45-4.11c-.4-.41-.86-.76-1.36-1.05h-.01c-.15-.1-.32-.17-.48-.25l-.04-.02c-.15-.07-.31-.13-.47-.18l-.08-.03c-.15-.05-.3-.08-.46-.12l-.12-.03c-.15-.03-.3-.05-.46-.07l-.14-.03a5.898 5.898 0 0 0 -6.51 5.87 5.898 5.898 0 0 0 6.51 5.87l.14-.02.46-.07.12-.03.46-.12.08-.03c.16-.06.32-.11.47-.18l.04-.02c.16-.07.33-.15.48-.24h.02c.5-.29.96-.65 1.36-1.06 1.29-1.24 2.44-2.62 3.45-4.1" fill="#62883a"/><path d="m79.14 68.73c0-.9.59-1.4 1.35-1.4s1.35.49 1.35 1.4v.45h.04c.35-1.25 1.9-1.85 2.65-1.85.95 0 1.46.62 1.46 1.45 0 1.11-.71 1.49-1.47 1.49-.86 0-2.4-.37-2.4 3.32v3.48c0 .8-.33 1.49-1.5 1.49s-1.49-.7-1.49-1.49v-8.35zm10.56 4.79c0 1.58 1.01 2.73 2.72 2.73 2.21 0 2.21-1.48 3.4-1.48.7 0 1.21.61 1.21 1.17 0 1.8-2.84 2.64-4.61 2.64-4.11 0-5.66-2.82-5.66-5.42 0-3.48 2.07-5.82 5.55-5.82s5.31 2.44 5.31 4.9c0 1.02-.31 1.29-1.29 1.29h-6.64zm5.15-1.72c-.16-1.37-1.29-2.37-2.6-2.37-1.46 0-2.47.92-2.79 2.37zm15.32 9.25c0 .98-.59 1.49-1.49 1.49s-1.49-.51-1.49-1.49v-4h-.04c-.55.96-1.58 1.52-2.95 1.52-3.15 0-4.6-2.68-4.6-5.55 0-3.87 2.19-5.69 4.69-5.69 1.45 0 2.66.62 3.15 1.88h.04v-.47c0-.92.47-1.42 1.35-1.42s1.35.49 1.35 1.42v12.3zm-5.22-4.8c1.82.02 2.4-1.79 2.4-3.32 0-1.7-.66-3.26-2.4-3.26-1.6.04-2.37 1.5-2.37 3.26 0 1.39.47 3.32 2.37 3.32m27.2-7.5c0-.92.43-1.42 1.35-1.42s1.35.49 1.35 1.42v.47h.04c.49-1.27 1.7-1.88 3.15-1.88 2.49 0 4.69 1.82 4.69 5.69 0 2.87-1.46 5.55-4.61 5.55-1.37 0-2.4-.55-2.95-1.52h-.04v4c0 .98-.6 1.49-1.49 1.49s-1.5-.51-1.5-1.49v-12.31zm7.59 4.17c0-1.76-.78-3.21-2.37-3.26-1.74 0-2.4 1.56-2.4 3.26 0 1.53.57 3.34 2.4 3.32 1.9 0 2.37-1.93 2.37-3.32m-16.95 4.16c0 .9-.41 1.49-1.35 1.49s-1.35-.59-1.35-1.49v-.39h-.04c-.84 1.11-1.92 1.88-3.62 1.88-1.8 0-3.77-.9-3.77-3.93v-5.82c0-.79.33-1.49 1.49-1.49s1.5.7 1.5 1.49v5.22c0 1.21.59 2.07 1.88 2.07 1.05 0 2.27-.86 2.27-2.35v-4.94c0-.79.33-1.49 1.5-1.49s1.5.7 1.5 1.49v8.25zm-46.45-1.6c0 1.25.12 2.03.12 2.5 0 .41-.45.59-1.17.65-.77.07-1.65-.79-1.59-1.53l-.03.02c-1.65 2.39-7.02 2.09-7.02-1.66 0-2.6 2.19-3.28 5.32-3.49 1.01-.07 1.52-.29 1.52-1.16s-.88-1.26-1.89-1.23c-2 .07-1.82 1.64-3.01 1.64-.76 0-1.27-.54-1.27-1.15 0-1.19 1.43-2.75 4.5-2.75 2.87 0 4.5.97 4.5 3.12v5.02zm-2.84-2.42c-.33.31-.86.44-1.96.62-1.1.19-1.89.59-1.89 1.49s.96 1.23 1.66 1.23c1.32 0 2.19-.86 2.19-2.17zm80.34 2.42c0 1.25.12 2.03.12 2.5 0 .41-.45.59-1.17.65-.76.07-1.65-.79-1.59-1.53l-.02.02c-1.65 2.39-7.02 2.09-7.02-1.66 0-2.6 2.19-3.28 5.33-3.49 1-.07 1.52-.29 1.52-1.16s-.88-1.26-1.89-1.23c-2 .07-1.82 1.64-3.01 1.64-.76 0-1.27-.54-1.27-1.15 0-1.19 1.43-2.75 4.5-2.75 2.87 0 4.5.97 4.5 3.12v5.02zm-2.84-2.42c-.33.31-.87.44-1.96.62-1.1.19-1.89.59-1.89 1.49s.96 1.23 1.66 1.23c1.31 0 2.19-.86 2.19-2.17zm-66.8-20.74c-10.55 0-19.13-8.58-19.13-19.13s8.58-19.13 19.13-19.13c5.25 0 10.15 2.09 13.79 5.87a4.358 4.358 0 0 1 -.12 6.16 4.356 4.356 0 0 1 -6.15-.12c-1.98-2.06-4.66-3.2-7.52-3.2-5.75 0-10.43 4.68-10.43 10.43s4.68 10.44 10.43 10.44c2.86 0 5.54-1.14 7.52-3.21a4.346 4.346 0 0 1 6.15-.11 4.346 4.346 0 0 1 .12 6.15c-3.64 3.78-8.53 5.87-13.79 5.87m51.81-10.59c0 4.19.4 6.8.4 8.38 0 1.38-1.62 2.08-3.9 2.2-3.15.15-5.53-2.63-5.35-5.14 0-.16.01-.07-.08.07-5.53 8.01-23.51 7-23.51-5.54 0-8.73 7.34-11.01 17.83-11.68 3.37-.22 5.08-.98 5.08-3.87s-2.95-4.24-6.32-4.12c-6.69.24-6.1 5.49-10.08 5.49-2.54 0-4.26-1.78-4.26-3.84 0-3.99 4.78-9.2 15.07-9.2 9.61 0 15.09 3.22 15.09 10.43v16.82zm-9.51-8.07c-1.1 1.03-2.9 1.47-6.57 2.08-3.67.62-6.33 1.97-6.33 4.98s3.22 4.13 5.56 4.13c4.4 0 7.33-2.89 7.33-7.28v-3.91zm65.79 8.07c0 4.19.4 6.8.4 8.38 0 1.38-1.62 2.08-3.9 2.2-3.15.15-5.53-2.63-5.34-5.14.01-.16.01-.07-.08.07-5.53 8.01-23.5 7-23.5-5.54 0-8.73 7.34-11.01 17.83-11.68 3.38-.22 5.08-.98 5.08-3.87s-2.95-4.24-6.31-4.12c-6.69.24-6.1 5.49-10.08 5.49-2.54 0-4.26-1.78-4.26-3.84 0-3.99 4.77-9.2 15.07-9.2 9.61 0 15.09 3.22 15.09 10.43zm-9.51-8.07c-1.09 1.03-2.89 1.47-6.56 2.08-3.67.62-6.33 1.97-6.33 4.98s3.22 4.13 5.56 4.13c4.39 0 7.33-2.89 7.33-7.28zm-33.95-32.86c3.03 0 5.48 2.45 5.48 5.48s-2.45 5.48-5.48 5.48-5.48-2.45-5.48-5.48 2.45-5.48 5.48-5.48m-.01 14.09c-3.99 0-5.19 2.26-5.19 5.25v29.63c0 7.23-4.39 5.34-4.96 7.67-.8 3.28 2.58 4.48 4.75 4.46 7.17-.07 10.55-5.99 10.55-12.06v-29.64c.02-2.98-1.15-5.3-5.14-5.3m-21.3 52.42c-1.17 0-1.52.66-1.52 1.54v8.14c0 .88.34 1.56 1.5 1.56s1.52-.66 1.52-1.53v-8.15c0-.88-.34-1.56-1.5-1.56m.01-4.16c.89 0 1.62.72 1.62 1.62s-.73 1.61-1.62 1.61-1.62-.72-1.62-1.61.73-1.62 1.62-1.62" fill="#002c4b"/></svg>