<svg version="1.1" id="Layer_1" xmlns="http://www.w3.org/2000/svg" xmlns:xlink="http://www.w3.org/1999/xlink" x="0px" y="0px"
	 width="100%" viewBox="0 0 1242 506" enable-background="new 0 0 1242 506" xml:space="preserve">
<path fill="#FEFFFF" opacity="1.000000" stroke="none" 
	d="
M769.000000,507.000000 
	C512.666687,507.000000 256.833374,507.000000 1.000034,507.000000 
	C1.000023,338.333344 1.000023,169.666718 1.000011,1.000057 
	C414.999969,1.000038 828.999939,1.000038 1243.000000,1.000019 
	C1243.000000,169.666611 1243.000000,338.333221 1243.000000,506.999908 
	C1085.166626,507.000000 927.333313,507.000000 769.000000,507.000000 
M386.536560,357.769073 
	C386.593231,335.528900 386.671173,313.288757 386.686829,291.048584 
	C386.689606,287.082428 386.434052,283.116119 386.633087,278.251343 
	C386.633087,218.658005 386.633087,159.064667 386.633087,99.247719 
	C385.270844,99.128738 384.312195,98.971901 383.353546,98.971741 
	C326.546295,98.962151 269.739044,98.964745 212.931793,98.976517 
	C212.270905,98.976654 211.610062,99.111435 210.029404,99.027565 
	C171.754166,99.027565 133.478943,99.027565 94.729073,99.027565 
	C94.729073,101.282410 94.729073,103.076118 94.729073,104.869835 
	C94.729073,126.031960 94.702179,147.194153 94.744576,168.356186 
	C94.758240,175.176468 94.954300,181.996399 94.789574,189.743027 
	C94.789574,256.721039 94.789574,323.699066 94.789574,390.709930 
	C113.547821,390.709930 131.653351,390.709930 150.719559,390.948273 
	C188.831772,390.965576 226.943970,391.001495 265.056183,390.991394 
	C281.029907,390.987183 297.003601,390.885468 313.908875,390.975098 
	C338.085266,390.975098 362.261658,390.975098 386.062164,390.975098 
	C386.062164,379.648987 386.062164,369.082550 386.536560,357.769073 
M705.618042,215.499435 
	C705.618042,195.125305 705.618042,174.751190 705.618042,154.377060 
	C707.442627,155.508530 708.258667,156.860199 709.043091,158.230011 
	C719.703369,176.846848 730.305908,195.497070 741.037109,214.072937 
	C747.115662,224.595154 755.467346,232.905243 767.870056,234.524094 
	C777.005005,235.716415 786.420654,234.758118 795.835266,234.758118 
	C795.835266,189.736450 795.835266,144.513123 795.835266,99.396103 
	C785.168457,99.396103 774.790161,99.396103 763.849854,99.396103 
	C763.849854,125.926315 763.849854,152.031464 763.849854,179.465469 
	C752.232056,157.270401 741.235229,136.392075 730.367615,115.446724 
	C724.633728,104.395546 716.219055,98.207016 703.251160,98.928375 
	C696.108643,99.325691 688.925842,98.999504 681.761230,98.999504 
	C679.168701,98.999504 676.576233,98.999504 673.708496,98.999504 
	C673.708496,136.943939 673.708496,174.178741 673.708496,211.413528 
	C671.923035,210.142456 670.922913,208.538589 669.980042,206.901733 
	C652.217712,176.064850 634.439636,145.237061 616.723389,114.373672 
	C612.974548,107.842819 607.747681,103.137962 600.396912,101.419685 
	C584.016479,97.590691 567.377258,99.399078 550.938843,98.979485 
	C550.938843,144.934082 550.938843,190.283997 550.938843,235.433487 
	C560.194214,235.433487 568.934937,235.433487 578.224060,235.433487 
	C578.224060,200.930435 578.224060,166.824936 578.224060,131.605133 
	C589.431335,149.911438 599.982910,167.146744 611.124634,185.346039 
	C604.124634,185.346039 598.255981,185.346039 592.394043,185.346039 
	C592.394043,193.245453 592.394043,200.515259 592.394043,208.274551 
	C600.928894,208.274551 609.224121,208.112381 617.502991,208.409439 
	C619.187134,208.469879 621.500183,209.861938 622.339783,211.321152 
	C625.901184,217.510239 629.246338,223.851074 632.211853,230.345871 
	C634.087891,234.454666 636.445557,236.051407 641.191650,235.970551 
	C660.513916,235.641327 679.845032,235.833511 699.172913,235.833511 
	C701.126343,235.833511 703.079773,235.833496 705.617981,235.833496 
	C705.617981,229.074997 705.617981,222.787003 705.618042,215.499435 
M914.962891,291.500000 
	C914.962891,324.559967 914.962891,357.619934 914.962891,390.598755 
	C927.488953,390.598755 939.240662,390.598755 951.741821,390.598755 
	C951.741821,363.912842 951.741821,337.491577 951.741821,311.070282 
	C953.534851,312.360504 954.401672,313.738403 955.240234,315.133240 
	C965.865173,332.806000 976.400757,350.533173 987.138977,368.136810 
	C993.930115,379.269836 1003.428406,387.519836 1016.507141,389.413208 
	C1027.922241,391.065796 1039.613892,390.808807 1051.452881,391.409180 
	C1051.452881,345.013245 1051.452881,299.650940 1051.452881,254.324036 
	C1039.233032,254.324036 1027.331421,254.324036 1014.868896,254.324036 
	C1014.868896,280.932892 1014.868896,307.218079 1014.868896,334.785980 
	C1002.134521,313.275696 990.100891,292.980591 978.100037,272.666199 
	C970.745117,260.216339 960.413513,253.178375 945.411072,253.886505 
	C938.098267,254.231628 930.754517,253.916794 923.424744,253.903870 
	C920.668701,253.899002 917.912720,253.903076 914.962891,253.903076 
	C914.962891,266.545624 914.962891,278.522827 914.962891,291.500000 
M687.183533,269.502625 
	C687.183533,264.406860 687.183533,259.311096 687.183533,254.166290 
	C674.808655,254.166290 663.055969,254.166290 650.827271,254.166290 
	C650.827271,280.738953 650.827271,307.082458 650.827271,334.808167 
	C649.094543,332.153778 648.079163,330.719818 647.186829,329.213043 
	C635.830261,310.036499 624.559387,290.808838 613.122986,271.680145 
	C606.114685,259.957916 596.126221,253.354523 581.944763,253.815689 
	C572.791443,254.113373 563.619263,253.816696 554.455566,253.826538 
	C553.204041,253.827881 551.952759,254.062531 550.917603,254.167282 
	C550.917603,299.855255 550.917603,345.097137 550.917603,390.533020 
	C563.020935,390.533020 574.772522,390.533020 587.113037,390.533020 
	C587.113037,363.665314 587.113037,337.022552 587.113037,308.884583 
	C588.958862,311.904755 589.989380,313.567291 590.997131,315.243500 
	C601.624390,332.920624 612.173828,350.645050 622.899292,368.262360 
	C629.804504,379.604675 639.619507,387.652893 652.864746,389.504822 
	C663.972107,391.057831 675.345459,390.707611 687.183594,391.225555 
	C687.183594,350.367615 687.183594,310.434479 687.183533,269.502625 
M906.053101,306.519531 
	C905.845398,302.537201 906.165771,298.441925 905.342163,294.591309 
	C900.853516,273.605591 886.643494,261.895355 867.010315,256.073700 
	C852.220825,251.688309 836.881287,253.101135 821.825317,253.917236 
	C788.484924,255.724457 769.062195,276.829956 769.062195,310.116302 
	C769.062195,319.110657 769.061951,328.105011 769.062195,337.099365 
	C769.062927,363.890900 783.348572,383.190948 809.682434,388.656708 
	C822.529419,391.323151 836.137573,390.963806 849.387024,390.803833 
	C857.053467,390.711304 865.018188,389.237152 872.277771,386.730957 
	C889.730957,380.705719 907.478027,364.411194 906.140320,338.489502 
	C905.608826,328.190094 906.053101,317.840302 906.053101,306.519531 
M414.066284,221.493256 
	C414.066284,226.106476 414.066284,230.719711 414.066284,235.469635 
	C429.358276,235.469635 444.089691,235.469635 459.287170,235.469635 
	C459.287170,197.735413 459.287170,160.307037 459.287170,122.796097 
	C465.551361,122.796097 471.403259,122.302025 477.132904,122.927559 
	C483.555847,123.628784 487.789154,129.647018 487.432159,136.194336 
	C487.107452,142.148819 482.934753,146.288696 476.380219,146.995361 
	C473.928864,147.259644 471.447815,147.249161 468.695984,147.377167 
	C468.695984,155.647552 468.695984,163.690445 468.695984,171.972549 
	C474.532532,171.972549 480.026886,171.863312 485.513489,172.022110 
	C487.976990,172.093414 490.546631,172.343369 492.857727,173.130219 
	C500.580444,175.759537 505.791565,184.154541 504.813599,191.913132 
	C503.677155,200.929092 496.813934,207.735245 487.953339,208.138763 
	C481.549347,208.430389 475.121368,208.195633 468.623291,208.195633 
	C468.623291,217.801086 468.623291,226.562210 468.623291,236.680862 
	C482.500885,235.749405 496.460724,236.648651 509.480835,233.571548 
	C540.395020,226.265442 551.455322,190.212769 530.146545,167.851730 
	C524.619324,162.051605 516.908081,158.332657 510.445953,153.829117 
	C512.006042,151.797180 514.575928,149.108612 516.389404,145.981354 
	C528.302734,125.437042 513.062805,99.712761 488.212341,99.175774 
	C463.895599,98.650330 439.557831,99.096901 415.229309,99.138908 
	C414.955597,99.139381 414.682373,99.436325 414.066284,99.793564 
	C414.066284,139.902924 414.066284,180.199036 414.066284,221.493256 
M532.165405,259.574646 
	C532.165405,257.805786 532.165405,256.036957 532.165405,254.181702 
	C519.854614,254.181702 508.113312,254.181702 495.841095,254.181702 
	C495.841095,290.643280 495.841095,326.861298 495.841095,363.218414 
	C490.312134,363.218414 485.315552,363.219574 480.318970,363.218170 
	C466.085266,363.214172 459.174011,356.357971 459.168701,342.192200 
	C459.158386,314.696716 459.165497,287.201263 459.165375,259.705780 
	C459.165375,257.922974 459.165405,256.140167 459.165405,254.302185 
	C443.827179,254.302185 428.962555,254.302185 413.956146,254.302185 
	C413.956146,283.157135 413.942932,311.644623 413.959839,340.132141 
	C413.977356,369.623901 435.069824,390.691559 464.686584,390.759613 
	C485.516357,390.807465 506.346375,390.769958 527.176270,390.770569 
	C528.754333,390.770599 530.332397,390.770569 532.165466,390.770569 
	C532.165466,346.855255 532.165466,303.705994 532.165405,259.574646 
M1051.963135,145.697815 
	C1050.344849,121.306747 1033.371948,102.741608 1009.123657,99.864212 
	C999.751099,98.752029 990.158875,98.886612 980.697144,99.248329 
	C955.921631,100.195496 936.007996,118.086960 933.926514,142.676102 
	C932.555176,158.876495 932.537659,175.357544 933.766663,191.572495 
	C935.540344,214.973709 951.496033,231.649460 974.719116,235.201538 
	C984.339050,236.672958 994.317871,236.095261 1004.127441,235.971939 
	C1030.606201,235.639084 1051.837158,214.091324 1051.961670,187.633728 
	C1052.025879,173.973999 1051.969971,160.313705 1051.963135,145.697815 
M924.061584,210.863464 
	C922.627441,210.069763 921.199280,208.597824 919.758362,208.585281 
	C901.595337,208.427124 883.429993,208.557053 865.266174,208.451294 
	C852.836243,208.378922 845.357361,200.841675 845.300110,188.494186 
	C845.235168,174.496216 845.251221,160.497604 845.294861,146.499466 
	C845.332458,134.424622 853.148438,126.195221 864.499451,126.166710 
	C875.849854,126.138199 883.771973,134.403976 883.834900,146.377335 
	C883.865234,152.145721 883.840149,157.914429 883.840149,164.003983 
	C890.867310,164.003983 897.336914,164.003983 903.806519,164.003983 
	C910.404480,164.003983 917.002502,164.003983 923.867676,164.003983 
	C923.867676,158.049484 923.925049,152.740707 923.857849,147.433533 
	C923.559937,123.920815 906.473816,103.431572 883.151611,100.101936 
	C872.686951,98.607941 861.846558,98.596268 851.266541,99.287575 
	C825.350830,100.980965 805.987854,122.115540 805.845398,147.968063 
	C805.777466,160.299515 806.291138,172.652405 805.735168,184.959167 
	C804.538391,211.447861 825.956543,235.879227 856.425415,235.831451 
	C877.422791,235.798538 898.420227,235.832199 919.417664,235.818054 
	C920.862732,235.817078 922.307617,235.665146 924.064453,235.565765 
	C924.064453,227.419525 924.064453,219.610565 924.061584,210.863464 
M705.000916,290.500000 
	C705.000916,323.907532 705.000916,357.315063 705.000916,390.700287 
	C720.633057,390.700287 735.690735,390.700287 750.712891,390.700287 
	C750.712891,345.027161 750.712891,299.653381 750.712891,254.299591 
	C735.367249,254.299591 720.309509,254.299591 705.000916,254.299591 
	C705.000916,266.231018 705.000916,277.865509 705.000916,290.500000 
M1153.955078,370.481171 
	C1152.535522,365.879913 1151.130737,361.274048 1149.693726,356.678314 
	C1146.030518,344.963074 1146.024780,344.964874 1132.921387,346.122192 
	C1128.533203,360.493195 1124.095459,375.026917 1119.576904,389.824768 
	C1123.385254,389.824768 1126.627441,389.824768 1129.911621,389.824768 
	C1131.017334,386.103027 1132.052612,382.618958 1133.112061,379.052856 
	C1137.424194,379.052856 1141.540039,379.052856 1145.717651,379.052856 
	C1146.932861,382.799561 1148.094727,386.382172 1149.247437,389.935974 
	C1152.861084,389.935974 1156.162231,389.935974 1159.932373,389.935974 
	C1157.938599,383.529968 1156.030273,377.398315 1153.955078,370.481171 
M1084.151245,361.505035 
	C1083.184204,359.920746 1081.058228,357.739288 1081.500488,356.881104 
	C1082.326416,355.278168 1084.592285,353.578461 1086.351074,353.474365 
	C1089.724243,353.274780 1093.161865,354.162476 1096.979126,354.651093 
	C1097.622437,352.440948 1098.339233,349.978668 1099.118896,347.300049 
	C1092.217285,344.585266 1085.631348,343.926422 1078.996216,346.752106 
	C1074.366333,348.723785 1071.489136,352.207062 1071.029907,357.334076 
	C1070.560181,362.578522 1073.131104,366.313721 1077.492432,368.781708 
	C1080.364868,370.407227 1083.738159,371.225464 1086.422363,373.078522 
	C1088.185181,374.295624 1089.119019,376.713318 1090.424194,378.593292 
	C1088.495728,379.878784 1086.593872,382.185242 1084.633179,382.236267 
	C1080.611450,382.340912 1076.558228,381.236664 1072.222168,380.585724 
	C1071.709351,382.871582 1071.141357,385.403717 1070.526855,388.142944 
	C1078.214722,391.413818 1085.627563,391.990479 1093.051514,388.845764 
	C1097.884644,386.798492 1100.606201,382.908783 1100.902832,377.620911 
	C1101.179932,372.686676 1098.991455,368.864227 1094.706787,366.498596 
	C1091.525269,364.742004 1088.115356,363.399139 1084.151245,361.505035 
M1168.140747,378.936951 
	C1163.899536,381.475861 1162.582886,384.900543 1164.816650,388.145508 
	C1166.927856,391.212463 1170.104248,392.115143 1172.888916,389.731201 
	C1174.426758,388.414764 1175.394287,385.490662 1175.261353,383.376648 
	C1175.041626,379.881836 1172.318115,378.492706 1168.140747,378.936951 
M1107.833496,379.956390 
	C1105.012817,382.669586 1104.489502,386.136566 1107.179932,388.620544 
	C1108.736694,390.057739 1112.780518,390.712036 1114.375244,389.674530 
	C1116.065186,388.575104 1117.244385,384.813690 1116.755371,382.640503 
	C1115.796997,378.381622 1112.185303,378.096436 1107.833496,379.956390 
z"/>
<path fill="#01A3E0" opacity="1.000000" stroke="none" 
	d="
M210.949188,99.183365 
	C211.610062,99.111435 212.270905,98.976654 212.931793,98.976517 
	C269.739044,98.964745 326.546295,98.962151 383.353546,98.971741 
	C384.312195,98.971901 385.270844,99.128738 386.633087,99.247719 
	C386.633087,159.064667 386.633087,218.658005 386.084595,278.671570 
	C377.832489,278.057281 370.151154,276.403473 362.420288,276.124969 
	C348.846863,275.635986 335.183502,275.205017 321.670471,276.231934 
	C310.383789,277.089661 299.258179,280.067291 287.786682,281.890625 
	C282.072510,273.748535 277.152649,265.398163 271.097961,257.973175 
	C251.252701,233.636566 227.147903,214.696075 198.002029,202.564804 
	C192.850159,200.420441 187.434677,198.909424 182.039352,196.794327 
	C181.823700,196.296356 181.709641,196.110001 181.674561,195.465790 
	C181.630981,160.063965 191.715820,128.229980 210.949188,99.183365 
z"/>
<path fill="#034178" opacity="1.000000" stroke="none" 
	d="
M705.618042,215.999207 
	C705.617981,222.787003 705.617981,229.074997 705.617981,235.833496 
	C703.079773,235.833496 701.126343,235.833511 699.172913,235.833511 
	C679.845032,235.833511 660.513916,235.641327 641.191650,235.970551 
	C636.445557,236.051407 634.087891,234.454666 632.211853,230.345871 
	C629.246338,223.851074 625.901184,217.510239 622.339783,211.321152 
	C621.500183,209.861938 619.187134,208.469879 617.502991,208.409439 
	C609.224121,208.112381 600.928894,208.274551 592.394043,208.274551 
	C592.394043,200.515259 592.394043,193.245453 592.394043,185.346039 
	C598.255981,185.346039 604.124634,185.346039 611.124634,185.346039 
	C599.982910,167.146744 589.431335,149.911438 578.224060,131.605133 
	C578.224060,166.824936 578.224060,200.930435 578.224060,235.433487 
	C568.934937,235.433487 560.194214,235.433487 550.938843,235.433487 
	C550.938843,190.283997 550.938843,144.934082 550.938843,98.979485 
	C567.377258,99.399078 584.016479,97.590691 600.396912,101.419685 
	C607.747681,103.137962 612.974548,107.842819 616.723389,114.373672 
	C634.439636,145.237061 652.217712,176.064850 669.980042,206.901733 
	C670.922913,208.538589 671.923035,210.142456 673.708496,211.413528 
	C673.708496,174.178741 673.708496,136.943939 673.708496,98.999504 
	C676.576233,98.999504 679.168701,98.999504 681.761230,98.999504 
	C688.925842,98.999504 696.108643,99.325691 703.251160,98.928375 
	C716.219055,98.207016 724.633728,104.395546 730.367615,115.446724 
	C741.235229,136.392075 752.232056,157.270401 763.849854,179.465469 
	C763.849854,152.031464 763.849854,125.926315 763.849854,99.396103 
	C774.790161,99.396103 785.168457,99.396103 795.835266,99.396103 
	C795.835266,144.513123 795.835266,189.736450 795.835266,234.758118 
	C786.420654,234.758118 777.005005,235.716415 767.870056,234.524094 
	C755.467346,232.905243 747.115662,224.595154 741.037109,214.072937 
	C730.305908,195.497070 719.703369,176.846848 709.043091,158.230011 
	C708.258667,156.860199 707.442627,155.508530 705.618042,154.377060 
	C705.618042,174.751190 705.618042,195.125305 705.618042,215.999207 
z"/>
<path fill="#D23D4D" opacity="1.000000" stroke="none" 
	d="
M181.595596,195.923660 
	C181.709641,196.110001 181.823700,196.296356 181.933167,197.235413 
	C182.291077,223.293137 188.459229,247.121887 199.699036,269.772644 
	C206.613190,283.706238 215.754196,296.042084 225.378387,308.178406 
	C201.589127,324.090271 180.739288,342.684143 164.576782,366.076599 
	C159.140656,373.944458 154.670517,382.479706 149.758865,390.709930 
	C131.653351,390.709930 113.547821,390.709930 94.789574,390.709930 
	C94.789574,323.699066 94.789574,256.721039 95.328049,189.243225 
	C124.989082,184.615524 153.572708,186.922119 181.595596,195.923660 
z"/>
<path fill="#034078" opacity="1.000000" stroke="none" 
	d="
M914.962891,291.000000 
	C914.962891,278.522827 914.962891,266.545624 914.962891,253.903076 
	C917.912720,253.903076 920.668701,253.899002 923.424744,253.903870 
	C930.754517,253.916794 938.098267,254.231628 945.411072,253.886505 
	C960.413513,253.178375 970.745117,260.216339 978.100037,272.666199 
	C990.100891,292.980591 1002.134521,313.275696 1014.868896,334.785980 
	C1014.868896,307.218079 1014.868896,280.932892 1014.868896,254.324036 
	C1027.331421,254.324036 1039.233032,254.324036 1051.452881,254.324036 
	C1051.452881,299.650940 1051.452881,345.013245 1051.452881,391.409180 
	C1039.613892,390.808807 1027.922241,391.065796 1016.507141,389.413208 
	C1003.428406,387.519836 993.930115,379.269836 987.138977,368.136810 
	C976.400757,350.533173 965.865173,332.806000 955.240234,315.133240 
	C954.401672,313.738403 953.534851,312.360504 951.741821,311.070282 
	C951.741821,337.491577 951.741821,363.912842 951.741821,390.598755 
	C939.240662,390.598755 927.488953,390.598755 914.962891,390.598755 
	C914.962891,357.619934 914.962891,324.559967 914.962891,291.000000 
z"/>
<path fill="#024077" opacity="1.000000" stroke="none" 
	d="
M687.183594,270.002014 
	C687.183594,310.434479 687.183594,350.367615 687.183594,391.225555 
	C675.345459,390.707611 663.972107,391.057831 652.864746,389.504822 
	C639.619507,387.652893 629.804504,379.604675 622.899292,368.262360 
	C612.173828,350.645050 601.624390,332.920624 590.997131,315.243500 
	C589.989380,313.567291 588.958862,311.904755 587.113037,308.884583 
	C587.113037,337.022552 587.113037,363.665314 587.113037,390.533020 
	C574.772522,390.533020 563.020935,390.533020 550.917603,390.533020 
	C550.917603,345.097137 550.917603,299.855255 550.917603,254.167282 
	C551.952759,254.062531 553.204041,253.827881 554.455566,253.826538 
	C563.619263,253.816696 572.791443,254.113373 581.944763,253.815689 
	C596.126221,253.354523 606.114685,259.957916 613.122986,271.680145 
	C624.559387,290.808838 635.830261,310.036499 647.186829,329.213043 
	C648.079163,330.719818 649.094543,332.153778 650.827271,334.808167 
	C650.827271,307.082458 650.827271,280.738953 650.827271,254.166290 
	C663.055969,254.166290 674.808655,254.166290 687.183533,254.166290 
	C687.183533,259.311096 687.183533,264.406860 687.183594,270.002014 
z"/>
<path fill="#034078" opacity="1.000000" stroke="none" 
	d="
M906.053101,307.016479 
	C906.053101,317.840302 905.608826,328.190094 906.140320,338.489502 
	C907.478027,364.411194 889.730957,380.705719 872.277771,386.730957 
	C865.018188,389.237152 857.053467,390.711304 849.387024,390.803833 
	C836.137573,390.963806 822.529419,391.323151 809.682434,388.656708 
	C783.348572,383.190948 769.062927,363.890900 769.062195,337.099365 
	C769.061951,328.105011 769.062195,319.110657 769.062195,310.116302 
	C769.062195,276.829956 788.484924,255.724457 821.825317,253.917236 
	C836.881287,253.101135 852.220825,251.688309 867.010315,256.073700 
	C886.643494,261.895355 900.853516,273.605591 905.342163,294.591309 
	C906.165771,298.441925 905.845398,302.537201 906.053101,307.016479 
M816.551208,294.589630 
	C816.409607,295.067810 816.146118,295.545502 816.144104,296.024261 
	C816.073242,313.178680 815.665649,330.342896 816.126160,347.483673 
	C816.363708,356.325104 825.499512,362.069733 837.339417,362.082947 
	C849.694702,362.096741 858.040833,356.521362 859.159546,347.493073 
	C859.261780,346.668518 859.314392,345.832367 859.314819,345.001556 
	C859.322937,329.840668 859.532410,314.674438 859.155273,299.522919 
	C859.070679,296.126282 857.573975,292.331909 855.610901,289.492615 
	C848.531921,279.253998 821.963745,279.176697 816.551208,294.589630 
z"/>
<path fill="#034178" opacity="1.000000" stroke="none" 
	d="
M414.066284,220.994202 
	C414.066284,180.199036 414.066284,139.902924 414.066284,99.793564 
	C414.682373,99.436325 414.955597,99.139381 415.229309,99.138908 
	C439.557831,99.096901 463.895599,98.650330 488.212341,99.175774 
	C513.062805,99.712761 528.302734,125.437042 516.389404,145.981354 
	C514.575928,149.108612 512.006042,151.797180 510.445953,153.829117 
	C516.908081,158.332657 524.619324,162.051605 530.146545,167.851730 
	C551.455322,190.212769 540.395020,226.265442 509.480835,233.571548 
	C496.460724,236.648651 482.500885,235.749405 468.623291,236.680862 
	C468.623291,226.562210 468.623291,217.801086 468.623291,208.195633 
	C475.121368,208.195633 481.549347,208.430389 487.953339,208.138763 
	C496.813934,207.735245 503.677155,200.929092 504.813599,191.913132 
	C505.791565,184.154541 500.580444,175.759537 492.857727,173.130219 
	C490.546631,172.343369 487.976990,172.093414 485.513489,172.022110 
	C480.026886,171.863312 474.532532,171.972549 468.695984,171.972549 
	C468.695984,163.690445 468.695984,155.647552 468.695984,147.377167 
	C471.447815,147.249161 473.928864,147.259644 476.380219,146.995361 
	C482.934753,146.288696 487.107452,142.148819 487.432159,136.194336 
	C487.789154,129.647018 483.555847,123.628784 477.132904,122.927559 
	C471.403259,122.302025 465.551361,122.796097 459.287170,122.796097 
	C459.287170,160.307037 459.287170,197.735413 459.287170,235.469635 
	C444.089691,235.469635 429.358276,235.469635 414.066284,235.469635 
	C414.066284,230.719711 414.066284,226.106476 414.066284,220.994202 
z"/>
<path fill="#024077" opacity="1.000000" stroke="none" 
	d="
M532.165405,260.065704 
	C532.165466,303.705994 532.165466,346.855255 532.165466,390.770569 
	C530.332397,390.770569 528.754333,390.770599 527.176270,390.770569 
	C506.346375,390.769958 485.516357,390.807465 464.686584,390.759613 
	C435.069824,390.691559 413.977356,369.623901 413.959839,340.132141 
	C413.942932,311.644623 413.956146,283.157135 413.956146,254.302185 
	C428.962555,254.302185 443.827179,254.302185 459.165405,254.302185 
	C459.165405,256.140167 459.165375,257.922974 459.165375,259.705780 
	C459.165497,287.201263 459.158386,314.696716 459.168701,342.192200 
	C459.174011,356.357971 466.085266,363.214172 480.318970,363.218170 
	C485.315552,363.219574 490.312134,363.218414 495.841095,363.218414 
	C495.841095,326.861298 495.841095,290.643280 495.841095,254.181702 
	C508.113312,254.181702 519.854614,254.181702 532.165405,254.181702 
	C532.165405,256.036957 532.165405,257.805786 532.165405,260.065704 
z"/>
<path fill="#034078" opacity="1.000000" stroke="none" 
	d="
M1051.965820,146.175735 
	C1051.969971,160.313705 1052.025879,173.973999 1051.961670,187.633728 
	C1051.837158,214.091324 1030.606201,235.639084 1004.127441,235.971939 
	C994.317871,236.095261 984.339050,236.672958 974.719116,235.201538 
	C951.496033,231.649460 935.540344,214.973709 933.766663,191.572495 
	C932.537659,175.357544 932.555176,158.876495 933.926514,142.676102 
	C936.007996,118.086960 955.921631,100.195496 980.697144,99.248329 
	C990.158875,98.886612 999.751099,98.752029 1009.123657,99.864212 
	C1033.371948,102.741608 1050.344849,121.306747 1051.965820,146.175735 
M1011.564331,176.496857 
	C1011.562378,166.003555 1011.747559,155.505966 1011.507507,145.018112 
	C1011.252258,133.867996 1003.902100,127.818871 991.389587,127.999550 
	C980.756714,128.153107 973.923401,134.933258 973.882141,145.542206 
	C973.824463,160.365860 973.814087,175.190170 973.887512,190.013687 
	C973.938782,200.357681 980.703918,206.996277 991.175293,207.195114 
	C1003.843994,207.435654 1011.067017,201.561447 1011.523010,190.485062 
	C1011.700989,186.161667 1011.559998,181.825150 1011.564331,176.496857 
z"/>
<path fill="#034078" opacity="1.000000" stroke="none" 
	d="
M924.062988,211.332535 
	C924.064453,219.610565 924.064453,227.419525 924.064453,235.565765 
	C922.307617,235.665146 920.862732,235.817078 919.417664,235.818054 
	C898.420227,235.832199 877.422791,235.798538 856.425415,235.831451 
	C825.956543,235.879227 804.538391,211.447861 805.735168,184.959167 
	C806.291138,172.652405 805.777466,160.299515 805.845398,147.968063 
	C805.987854,122.115540 825.350830,100.980965 851.266541,99.287575 
	C861.846558,98.596268 872.686951,98.607941 883.151611,100.101936 
	C906.473816,103.431572 923.559937,123.920815 923.857849,147.433533 
	C923.925049,152.740707 923.867676,158.049484 923.867676,164.003983 
	C917.002502,164.003983 910.404480,164.003983 903.806519,164.003983 
	C897.336914,164.003983 890.867310,164.003983 883.840149,164.003983 
	C883.840149,157.914429 883.865234,152.145721 883.834900,146.377335 
	C883.771973,134.403976 875.849854,126.138199 864.499451,126.166710 
	C853.148438,126.195221 845.332458,134.424622 845.294861,146.499466 
	C845.251221,160.497604 845.235168,174.496216 845.300110,188.494186 
	C845.357361,200.841675 852.836243,208.378922 865.266174,208.451294 
	C883.429993,208.557053 901.595337,208.427124 919.758362,208.585281 
	C921.199280,208.597824 922.627441,210.069763 924.062988,211.332535 
z"/>
<path fill="#FED703" opacity="1.000000" stroke="none" 
	d="
M181.674561,195.465790 
	C153.572708,186.922119 124.989082,184.615524 95.466721,188.779953 
	C94.954300,181.996399 94.758240,175.176468 94.744576,168.356186 
	C94.702179,147.194153 94.729073,126.031960 94.729073,104.869835 
	C94.729073,103.076118 94.729073,101.282410 94.729073,99.027565 
	C133.478943,99.027565 171.754166,99.027565 210.489288,99.105469 
	C191.715820,128.229980 181.630981,160.063965 181.674561,195.465790 
z"/>
<path fill="#F47922" opacity="1.000000" stroke="none" 
	d="
M150.239212,390.829102 
	C154.670517,382.479706 159.140656,373.944458 164.576782,366.076599 
	C180.739288,342.684143 201.589127,324.090271 225.684952,308.373901 
	C238.799469,321.570831 252.854492,332.964905 268.947968,341.668365 
	C282.569427,349.034973 296.712738,355.138672 312.163300,357.907410 
	C312.209198,358.018372 312.237122,358.256897 312.203369,358.659119 
	C312.438843,369.650238 312.708069,380.239166 312.977325,390.828064 
	C297.003601,390.885468 281.029907,390.987183 265.056183,390.991394 
	C226.943970,391.001495 188.831772,390.965576 150.239212,390.829102 
z"/>
<path fill="#015E2D" opacity="1.000000" stroke="none" 
	d="
M288.061249,282.106140 
	C299.258179,280.067291 310.383789,277.089661 321.670471,276.231934 
	C335.183502,275.205017 348.846863,275.635986 362.420288,276.124969 
	C370.151154,276.403473 377.832489,278.057281 385.916962,279.120850 
	C386.434052,283.116119 386.689606,287.082428 386.686829,291.048584 
	C386.671173,313.288757 386.593231,335.528900 385.939270,358.210571 
	C360.945679,363.704071 336.578979,363.277802 312.237122,358.256897 
	C312.237122,358.256897 312.209198,358.018372 312.140320,357.469269 
	C311.976135,354.602264 312.129669,352.242432 311.747192,349.972900 
	C307.708771,326.011169 300.357025,303.192261 288.061249,282.106140 
z"/>
<path fill="#013F77" opacity="1.000000" stroke="none" 
	d="
M705.000916,290.000000 
	C705.000916,277.865509 705.000916,266.231018 705.000916,254.299591 
	C720.309509,254.299591 735.367249,254.299591 750.712891,254.299591 
	C750.712891,299.653381 750.712891,345.027161 750.712891,390.700287 
	C735.690735,390.700287 720.633057,390.700287 705.000916,390.700287 
	C705.000916,357.315063 705.000916,323.907532 705.000916,290.000000 
z"/>
<path fill="#FDD705" opacity="1.000000" stroke="none" 
	d="
M312.203369,358.659119 
	C336.578979,363.277802 360.945679,363.704071 385.702087,358.584106 
	C386.062164,369.082550 386.062164,379.648987 386.062164,390.975098 
	C362.261658,390.975098 338.085266,390.975098 313.443115,390.901581 
	C312.708069,380.239166 312.438843,369.650238 312.203369,358.659119 
z"/>
<path fill="#07447A" opacity="1.000000" stroke="none" 
	d="
M1154.038452,370.873932 
	C1156.030273,377.398315 1157.938599,383.529968 1159.932373,389.935974 
	C1156.162231,389.935974 1152.861084,389.935974 1149.247437,389.935974 
	C1148.094727,386.382172 1146.932861,382.799561 1145.717651,379.052856 
	C1141.540039,379.052856 1137.424194,379.052856 1133.112061,379.052856 
	C1132.052612,382.618958 1131.017334,386.103027 1129.911621,389.824768 
	C1126.627441,389.824768 1123.385254,389.824768 1119.576904,389.824768 
	C1124.095459,375.026917 1128.533203,360.493195 1132.921387,346.122192 
	C1146.024780,344.964874 1146.030518,344.963074 1149.693726,356.678314 
	C1151.130737,361.274048 1152.535522,365.879913 1154.038452,370.873932 
M1141.338623,361.161133 
	C1140.771118,359.025940 1140.203491,356.890778 1139.305420,353.511688 
	C1137.579102,360.026337 1136.171753,365.337250 1134.716431,370.829468 
	C1138.136108,370.829468 1140.991577,370.829468 1144.137207,370.829468 
	C1143.233765,367.594666 1142.438477,364.747101 1141.338623,361.161133 
z"/>
<path fill="#08447B" opacity="1.000000" stroke="none" 
	d="
M1084.479248,361.688477 
	C1088.115356,363.399139 1091.525269,364.742004 1094.706787,366.498596 
	C1098.991455,368.864227 1101.179932,372.686676 1100.902832,377.620911 
	C1100.606201,382.908783 1097.884644,386.798492 1093.051514,388.845764 
	C1085.627563,391.990479 1078.214722,391.413818 1070.526855,388.142944 
	C1071.141357,385.403717 1071.709351,382.871582 1072.222168,380.585724 
	C1076.558228,381.236664 1080.611450,382.340912 1084.633179,382.236267 
	C1086.593872,382.185242 1088.495728,379.878784 1090.424194,378.593292 
	C1089.119019,376.713318 1088.185181,374.295624 1086.422363,373.078522 
	C1083.738159,371.225464 1080.364868,370.407227 1077.492432,368.781708 
	C1073.131104,366.313721 1070.560181,362.578522 1071.029907,357.334076 
	C1071.489136,352.207062 1074.366333,348.723785 1078.996216,346.752106 
	C1085.631348,343.926422 1092.217285,344.585266 1099.118896,347.300049 
	C1098.339233,349.978668 1097.622437,352.440948 1096.979126,354.651093 
	C1093.161865,354.162476 1089.724243,353.274780 1086.351074,353.474365 
	C1084.592285,353.578461 1082.326416,355.278168 1081.500488,356.881104 
	C1081.058228,357.739288 1083.184204,359.920746 1084.479248,361.688477 
z"/>
<path fill="#0D487D" opacity="1.000000" stroke="none" 
	d="
M1168.495850,378.879517 
	C1172.318115,378.492706 1175.041626,379.881836 1175.261353,383.376648 
	C1175.394287,385.490662 1174.426758,388.414764 1172.888916,389.731201 
	C1170.104248,392.115143 1166.927856,391.212463 1164.816650,388.145508 
	C1162.582886,384.900543 1163.899536,381.475861 1168.495850,378.879517 
z"/>
<path fill="#0A467C" opacity="1.000000" stroke="none" 
	d="
M1108.147949,379.721344 
	C1112.185303,378.096436 1115.796997,378.381622 1116.755371,382.640503 
	C1117.244385,384.813690 1116.065186,388.575104 1114.375244,389.674530 
	C1112.780518,390.712036 1108.736694,390.057739 1107.179932,388.620544 
	C1104.489502,386.136566 1105.012817,382.669586 1108.147949,379.721344 
z"/>
<path fill="#025696" opacity="1.000000" stroke="none" 
	d="
M287.786682,281.890625 
	C300.357025,303.192261 307.708771,326.011169 311.747192,349.972900 
	C312.129669,352.242432 311.976135,354.602264 312.094421,357.358276 
	C296.712738,355.138672 282.569427,349.034973 268.947968,341.668365 
	C252.854492,332.964905 238.799469,321.570831 225.904984,308.138306 
	C215.754196,296.042084 206.613190,283.706238 199.699036,269.772644 
	C188.459229,247.121887 182.291077,223.293137 182.034729,197.547012 
	C187.434677,198.909424 192.850159,200.420441 198.002029,202.564804 
	C227.147903,214.696075 251.252701,233.636566 271.097961,257.973175 
	C277.152649,265.398163 282.072510,273.748535 287.786682,281.890625 
z"/>
<path fill="#FEFEFE" opacity="1.000000" stroke="none" 
	d="
M816.703186,294.208740 
	C821.963745,279.176697 848.531921,279.253998 855.610901,289.492615 
	C857.573975,292.331909 859.070679,296.126282 859.155273,299.522919 
	C859.532410,314.674438 859.322937,329.840668 859.314819,345.001556 
	C859.314392,345.832367 859.261780,346.668518 859.159546,347.493073 
	C858.040833,356.521362 849.694702,362.096741 837.339417,362.082947 
	C825.499512,362.069733 816.363708,356.325104 816.126160,347.483673 
	C815.665649,330.342896 816.073242,313.178680 816.144104,296.024261 
	C816.146118,295.545502 816.409607,295.067810 816.703186,294.208740 
z"/>
<path fill="#FCFDFD" opacity="1.000000" stroke="none" 
	d="
M1011.564331,176.995728 
	C1011.559998,181.825150 1011.700989,186.161667 1011.523010,190.485062 
	C1011.067017,201.561447 1003.843994,207.435654 991.175293,207.195114 
	C980.703918,206.996277 973.938782,200.357681 973.887512,190.013687 
	C973.814087,175.190170 973.824463,160.365860 973.882141,145.542206 
	C973.923401,134.933258 980.756714,128.153107 991.389587,127.999550 
	C1003.902100,127.818871 1011.252258,133.867996 1011.507507,145.018112 
	C1011.747559,155.505966 1011.562378,166.003555 1011.564331,176.995728 
z"/>
<path fill="#F1F5F8" opacity="1.000000" stroke="none" 
	d="
M1141.490967,361.530334 
	C1142.438477,364.747101 1143.233765,367.594666 1144.137207,370.829468 
	C1140.991577,370.829468 1138.136108,370.829468 1134.716431,370.829468 
	C1136.171753,365.337250 1137.579102,360.026337 1139.305420,353.511688 
	C1140.203491,356.890778 1140.771118,359.025940 1141.490967,361.530334 
z"/>
</svg>