<?xml version="1.0" encoding="iso-8859-1"?>
<!-- Generator: Adobe Illustrator 21.0.0, SVG Export Plug-In . SVG Version: 6.00 Build 0)  -->
<svg version="1.1" id="Capa_1" xmlns="http://www.w3.org/2000/svg" xmlns:xlink="http://www.w3.org/1999/xlink" x="0px" y="0px"
	 viewBox="0 0 280.74 44.89" style="enable-background:new 0 0 280.74 44.89;" xml:space="preserve">
<g>
	<path style="fill:#ED1B24;" d="M65.48,5h6.98c1.39,0,2.41,0.04,3.09,0.12c0.68,0.09,1.29,0.26,1.82,0.52
		c0.54,0.27,0.98,0.62,1.34,1.05c0.36,0.44,0.54,0.93,0.54,1.48c0,0.59-0.22,1.13-0.66,1.63c-0.44,0.49-1.04,0.86-1.79,1.11
		c1.06,0.23,1.87,0.61,2.45,1.15c0.57,0.54,0.85,1.18,0.85,1.91c0,0.58-0.18,1.14-0.55,1.68c-0.37,0.54-0.87,0.98-1.52,1.31
		c-0.64,0.32-1.43,0.52-2.36,0.6c-0.59,0.04-2,0.07-4.25,0.09h-5.94V5L65.48,5z M69.01,7.1v2.92h2.31c1.37,0,2.22-0.01,2.56-0.04
		c0.6-0.05,1.08-0.2,1.42-0.45c0.34-0.25,0.52-0.58,0.52-0.98c0-0.39-0.15-0.71-0.45-0.95c-0.3-0.24-0.74-0.39-1.32-0.44
		c-0.35-0.03-1.35-0.04-3.01-0.04H69.01L69.01,7.1z M69.01,12.12v3.39h3.27c1.27,0,2.08-0.03,2.42-0.08
		c0.52-0.07,0.95-0.24,1.28-0.51c0.33-0.27,0.5-0.63,0.5-1.08c0-0.38-0.13-0.7-0.38-0.97c-0.25-0.27-0.62-0.46-1.1-0.58
		c-0.48-0.12-1.52-0.18-3.13-0.18H69.01L69.01,12.12z M85.54,11.31l-3.02-0.39c0.34-0.9,0.93-1.56,1.76-1.99
		c0.83-0.43,2.07-0.65,3.71-0.65c1.49,0,2.6,0.13,3.34,0.38c0.73,0.26,1.24,0.58,1.54,0.98c0.3,0.39,0.45,1.12,0.45,2.17l-0.05,2.83
		c0,0.8,0.05,1.4,0.16,1.78c0.11,0.38,0.3,0.79,0.6,1.23h-3.31c-0.09-0.16-0.2-0.39-0.32-0.71c-0.05-0.14-0.09-0.24-0.12-0.28
		c-0.57,0.41-1.18,0.71-1.83,0.91c-0.65,0.2-1.34,0.31-2.08,0.31c-1.3,0-2.32-0.26-3.07-0.77c-0.75-0.51-1.12-1.16-1.12-1.94
		c0-0.52,0.17-0.98,0.51-1.38c0.34-0.4,0.82-0.72,1.43-0.93c0.61-0.22,1.5-0.4,2.66-0.57c1.56-0.21,2.64-0.41,3.25-0.59v-0.24
		c0-0.47-0.16-0.81-0.48-1.01c-0.32-0.2-0.92-0.3-1.8-0.3c-0.6,0-1.06,0.09-1.39,0.26C86.02,10.57,85.75,10.88,85.54,11.31
		L85.54,11.31z M90.03,13.27c-0.43,0.1-1.11,0.23-2.04,0.37c-0.93,0.14-1.54,0.29-1.82,0.42c-0.43,0.23-0.65,0.51-0.65,0.85
		c0,0.34,0.17,0.63,0.52,0.88c0.35,0.25,0.79,0.37,1.33,0.37c0.6,0,1.18-0.14,1.73-0.43c0.4-0.22,0.67-0.49,0.8-0.8
		c0.09-0.21,0.13-0.6,0.13-1.18V13.27L90.03,13.27z M108.11,17.65h-3.34v-4.67c0-0.99-0.07-1.63-0.22-1.92
		c-0.15-0.29-0.38-0.52-0.7-0.68c-0.33-0.16-0.71-0.24-1.17-0.24c-0.59,0-1.11,0.11-1.57,0.34c-0.47,0.23-0.78,0.54-0.95,0.91
		c-0.17,0.38-0.26,1.08-0.26,2.11v4.15h-3.34V8.48h3.1v1.35c1.11-1.03,2.5-1.54,4.19-1.54c0.74,0,1.42,0.1,2.03,0.29
		c0.62,0.19,1.08,0.44,1.39,0.74c0.32,0.3,0.54,0.64,0.66,1.02c0.13,0.38,0.19,0.92,0.19,1.63V17.65L108.11,17.65z M122.52,11.2
		l-3.29,0.42c-0.11-0.47-0.36-0.83-0.76-1.07c-0.39-0.24-0.9-0.36-1.53-0.36c-0.83,0-1.5,0.21-1.99,0.63
		c-0.5,0.42-0.74,1.12-0.74,2.1c0,1.09,0.25,1.86,0.76,2.31c0.5,0.45,1.18,0.67,2.02,0.67c0.63,0,1.15-0.13,1.56-0.39
		c0.41-0.26,0.69-0.71,0.86-1.35l3.29,0.41c-0.34,1.1-1,1.92-1.96,2.48c-0.97,0.56-2.26,0.84-3.89,0.84c-1.84,0-3.32-0.42-4.42-1.27
		c-1.1-0.85-1.65-2.02-1.65-3.52c0-1.52,0.55-2.7,1.65-3.54c1.1-0.85,2.59-1.27,4.47-1.27c1.54,0,2.76,0.24,3.67,0.72
		C121.47,9.49,122.12,10.22,122.52,11.2L122.52,11.2z M124.27,12.96c0-0.81,0.27-1.59,0.82-2.34c0.55-0.76,1.32-1.33,2.33-1.73
		c1-0.4,2.12-0.6,3.36-0.6c1.91,0,3.48,0.45,4.7,1.35c1.22,0.9,1.83,2.04,1.83,3.42c0,1.39-0.62,2.54-1.85,3.46
		c-1.24,0.91-2.79,1.37-4.66,1.37c-1.16,0-2.26-0.19-3.31-0.57c-1.05-0.38-1.85-0.94-2.4-1.67
		C124.55,14.91,124.27,14.01,124.27,12.96L124.27,12.96z M127.71,13.09c0,0.91,0.3,1.61,0.89,2.09c0.6,0.49,1.33,0.73,2.2,0.73
		c0.87,0,1.6-0.24,2.19-0.73c0.59-0.48,0.89-1.19,0.89-2.11c0-0.9-0.3-1.59-0.89-2.07c-0.59-0.49-1.32-0.73-2.19-0.73
		c-0.87,0-1.6,0.24-2.2,0.73C128.01,11.48,127.71,12.18,127.71,13.09L127.71,13.09z"/>
	<path style="fill:#ED1B24;" d="M65.83,23.68h18.21v3.41H72.65v2.54h10.55v3.25H72.65v3.14h11.72v3.61H65.83V23.68L65.83,23.68z
		 M102.71,33.1l5.97,1.3c-0.4,1.21-1.03,2.22-1.9,3.03c-0.86,0.81-1.93,1.42-3.21,1.84c-1.28,0.41-2.9,0.62-4.88,0.62
		c-2.4,0-4.35-0.25-5.88-0.75c-1.52-0.5-2.82-1.39-3.93-2.66c-1.1-1.27-1.66-2.89-1.66-4.86c0-2.63,0.97-4.66,2.91-6.08
		c1.94-1.41,4.69-2.12,8.23-2.12c2.77,0,4.96,0.4,6.55,1.22c1.58,0.81,2.77,2.06,3.54,3.74l-6,0.96c-0.21-0.48-0.43-0.83-0.66-1.06
		c-0.38-0.37-0.85-0.66-1.4-0.86c-0.55-0.2-1.17-0.3-1.85-0.3c-1.55,0-2.73,0.45-3.55,1.34c-0.62,0.66-0.93,1.71-0.93,3.13
		c0,1.77,0.37,2.97,1.11,3.63c0.74,0.65,1.78,0.98,3.13,0.98c1.3,0,2.29-0.26,2.95-0.79C101.93,34.87,102.41,34.1,102.71,33.1
		L102.71,33.1z M111.11,31.66c0-2.6,1-4.63,3-6.07c2-1.45,4.79-2.17,8.37-2.17c3.67,0,6.49,0.71,8.48,2.13
		c1.98,1.42,2.97,3.42,2.97,5.98c0,1.86-0.43,3.39-1.3,4.58c-0.87,1.19-2.12,2.12-3.76,2.78c-1.64,0.66-3.68,0.99-6.13,0.99
		c-2.48,0-4.54-0.29-6.17-0.86c-1.63-0.58-2.95-1.48-3.96-2.72C111.61,35.07,111.11,33.52,111.11,31.66L111.11,31.66z M117.9,31.67
		c0,1.61,0.41,2.76,1.24,3.47c0.83,0.7,1.96,1.05,3.38,1.05c1.46,0,2.6-0.35,3.4-1.03c0.81-0.69,1.2-1.92,1.2-3.71
		c0-1.5-0.42-2.59-1.26-3.28c-0.84-0.69-1.97-1.04-3.41-1.04c-1.37,0-2.48,0.35-3.31,1.05C118.32,28.89,117.9,30.05,117.9,31.67
		L117.9,31.67z M137.65,23.68h6.35l8.26,8.8v-8.8h6.43v15.94h-6.43l-8.21-8.75v8.75h-6.4V23.68L137.65,23.68z M162.35,31.66
		c0-2.6,1-4.63,3-6.07c2-1.45,4.79-2.17,8.37-2.17c3.67,0,6.49,0.71,8.48,2.13c1.98,1.42,2.97,3.42,2.97,5.98
		c0,1.86-0.43,3.39-1.3,4.58c-0.87,1.19-2.12,2.12-3.76,2.78c-1.64,0.66-3.68,0.99-6.13,0.99c-2.48,0-4.54-0.29-6.17-0.86
		c-1.63-0.58-2.95-1.48-3.96-2.72C162.86,35.07,162.35,33.52,162.35,31.66L162.35,31.66z M169.15,31.67c0,1.61,0.42,2.76,1.24,3.47
		c0.83,0.7,1.96,1.05,3.38,1.05c1.46,0,2.6-0.35,3.4-1.03c0.81-0.69,1.2-1.92,1.2-3.71c0-1.5-0.42-2.59-1.26-3.28
		c-0.84-0.69-1.97-1.04-3.41-1.04c-1.37,0-2.48,0.35-3.31,1.05C169.57,28.89,169.15,30.05,169.15,31.67L169.15,31.67z M188.78,23.68
		h8.97l3.42,9.7l3.43-9.7h8.94v15.94h-5.57V27.47l-4.3,12.15h-5.04l-4.29-12.15v12.15h-5.57V23.68L188.78,23.68z M218.15,23.68h6.83
		v15.94h-6.83V23.68L218.15,23.68z M244.52,33.1l5.97,1.3c-0.4,1.21-1.03,2.22-1.9,3.03c-0.86,0.81-1.93,1.42-3.21,1.84
		c-1.28,0.41-2.9,0.62-4.88,0.62c-2.4,0-4.35-0.25-5.88-0.75c-1.52-0.5-2.82-1.39-3.93-2.66c-1.1-1.27-1.66-2.89-1.66-4.86
		c0-2.63,0.97-4.66,2.91-6.08c1.94-1.41,4.69-2.12,8.23-2.12c2.77,0,4.96,0.4,6.55,1.22c1.58,0.81,2.77,2.06,3.54,3.74l-6,0.96
		c-0.21-0.48-0.43-0.83-0.66-1.06c-0.38-0.37-0.85-0.66-1.4-0.86c-0.55-0.2-1.17-0.3-1.85-0.3c-1.55,0-2.73,0.45-3.55,1.34
		c-0.62,0.66-0.93,1.71-0.93,3.13c0,1.77,0.37,2.97,1.11,3.63c0.74,0.65,1.78,0.98,3.13,0.98c1.3,0,2.29-0.26,2.95-0.79
		C243.73,34.87,244.22,34.1,244.52,33.1L244.52,33.1z M252.91,31.66c0-2.6,1-4.63,3-6.07c2-1.45,4.79-2.17,8.37-2.17
		c3.67,0,6.49,0.71,8.47,2.13c1.98,1.42,2.97,3.42,2.97,5.98c0,1.86-0.43,3.39-1.3,4.58c-0.87,1.19-2.12,2.12-3.76,2.78
		c-1.64,0.66-3.68,0.99-6.13,0.99c-2.48,0-4.54-0.29-6.17-0.86c-1.63-0.58-2.95-1.48-3.96-2.72
		C253.42,35.07,252.91,33.52,252.91,31.66L252.91,31.66z M259.71,31.67c0,1.61,0.42,2.76,1.24,3.47c0.83,0.7,1.96,1.05,3.38,1.05
		c1.46,0,2.6-0.35,3.4-1.03c0.81-0.69,1.2-1.92,1.2-3.71c0-1.5-0.42-2.59-1.26-3.28c-0.84-0.69-1.97-1.04-3.41-1.04
		c-1.37,0-2.48,0.35-3.31,1.05C260.13,28.89,259.71,30.05,259.71,31.67L259.71,31.67z"/>
	<path style="fill:#ED1B24;" d="M40.49,21.55C38.84,13.4,25.09,10.43,5,12.08c12.62,2.18,21.26,7.3,22.61,14.42
		c0.4,3.6-1.11,8.33-6.14,13.15C35.33,34.88,41.82,28.12,40.49,21.55L40.49,21.55z"/>
	<path style="fill:#C2C5CA;" d="M54.85,17.09c-1.07-5.69-9.82-8.81-28.56-6.53c9.23,1.37,15.98,4.76,17.11,10.08
		c0.75,3.49-1.7,7.8-5.4,11.15C47.79,28.33,55.79,23.09,54.85,17.09L54.85,17.09z"/>
</g>
</svg>
