<svg width="1242" height="506" version="1.1" xmlns="http://www.w3.org/2000/svg" desc="Created with imagetracer.js version 1.2.6" ><path fill="rgb(206,81,70)" stroke="rgb(206,81,70)" stroke-width="1" opacity="1" d="M 106.5 186 L 137.5 186 L 138.5 187 L 147.5 187 L 172.5 192 L 181 195 L 182 217.5 L 185 232.5 L 194 259.5 Q 208 291.5 231.5 314 Q 248.2 330.3 269.5 342 L 289.5 351 L 311 357 L 312 363.5 L 312 388.5 L 310.5 390 L 149.5 390 L 147.5 390 L 94.5 390 L 94 389.5 L 94 188 L 106.5 186 Z " /><path fill="rgb(245,216,55)" stroke="rgb(245,216,55)" stroke-width="1" opacity="1" d="M 94 98 L 210 98.5 Q 194.2 120.2 186 149.5 L 182 169.5 L 181 195 L 172.5 192 L 147.5 187 L 138.5 187 L 137.5 186 L 106.5 186 L 94 188 L 94 98 Z " /><path fill="rgb(245,216,55)" stroke="rgb(245,216,55)" stroke-width="1" opacity="1" d="M 223.5 308 L 222.5 310 L 223.5 308 Z " /><path fill="rgb(245,216,55)" stroke="rgb(245,216,55)" stroke-width="1" opacity="1" d="M 220.5 310 L 219.5 312 L 220.5 310 Z " /><path fill="rgb(245,216,55)" stroke="rgb(245,216,55)" stroke-width="1" opacity="1" d="M 217.5 312 L 216.5 314 L 217.5 312 Z " /><path fill="rgb(245,216,55)" stroke="rgb(245,216,55)" stroke-width="1" opacity="1" d="M 214.5 314 L 212.5 317 L 214.5 314 Z " /><path fill="rgb(245,216,55)" stroke="rgb(245,216,55)" stroke-width="1" opacity="1" d="M 210.5 317 L 209.5 319 L 210.5 317 Z " /><path fill="rgb(245,216,55)" stroke="rgb(245,216,55)" stroke-width="1" opacity="1" d="M 206.5 320 L 203.5 324 L 206.5 320 Z " /><path fill="rgb(245,216,55)" stroke="rgb(245,216,55)" stroke-width="1" opacity="1" d="M 200.5 325 L 198.5 328 L 200.5 325 Z " /><path fill="rgb(245,216,55)" stroke="rgb(245,216,55)" stroke-width="1" opacity="1" d="M 193.5 331 L 180.5 345 L 193.5 331 Z " /><path fill="rgb(245,216,55)" stroke="rgb(245,216,55)" stroke-width="1" opacity="1" d="M 176.5 349 L 173.5 353 L 176.5 349 Z " /><path fill="rgb(245,216,55)" stroke="rgb(245,216,55)" stroke-width="1" opacity="1" d="M 171.5 355 L 169.5 358 L 171.5 355 Z " /><path fill="rgb(245,216,55)" stroke="rgb(245,216,55)" stroke-width="1" opacity="1" d="M 311 357 L 332.5 361 L 365.5 361 L 385.5 357 L 386 390 L 311 389.5 L 312 388.5 L 312 363.5 L 311 357 Z " /><path fill="rgb(245,216,55)" stroke="rgb(245,216,55)" stroke-width="1" opacity="1" d="M 167.5 360 L 166.5 362 L 167.5 360 Z " /><path fill="rgb(245,216,55)" stroke="rgb(245,216,55)" stroke-width="1" opacity="1" d="M 164.5 364 L 163.5 366 L 164.5 364 Z " /><path fill="rgb(245,216,55)" stroke="rgb(245,216,55)" stroke-width="1" opacity="1" d="M 162.5 367 L 161.5 369 L 162.5 367 Z " /><path fill="rgb(245,216,55)" stroke="rgb(245,216,55)" stroke-width="1" opacity="1" d="M 156.5 376 L 155.5 378 L 156.5 376 Z " /><path fill="rgb(245,216,55)" stroke="rgb(245,216,55)" stroke-width="1" opacity="1" d="M 153.5 381 L 152.5 383 L 153.5 381 Z " /><path fill="rgb(245,216,55)" stroke="rgb(245,216,55)" stroke-width="1" opacity="1" d="M 150.5 386 L 150 387.5 L 148.5 390 L 149 388.5 L 150.5 386 Z " /><path fill="rgb(0,66,117)" stroke="rgb(0,66,117)" stroke-width="1" opacity="1" d="M 413 98 L 490 98.5 L 414 99 L 413.5 234 L 413 98 Z " /><path fill="rgb(0,66,117)" stroke="rgb(0,66,117)" stroke-width="1" opacity="1" d="M 550.5 98 L 584 98.5 L 550.5 99 L 550.5 98 Z " /><path fill="rgb(0,66,117)" stroke="rgb(0,66,117)" stroke-width="1" opacity="1" d="M 673.5 98 L 710 98.5 L 673.5 99 L 673.5 98 Z " /><path fill="rgb(0,66,117)" stroke="rgb(0,66,117)" stroke-width="1" opacity="1" d="M 764.5 98 L 781 98.5 L 764 99 L 763.5 180 Q 760.8 178.8 763 177.5 L 763 99.5 L 764.5 98 Z " /><path fill="rgb(0,66,117)" stroke="rgb(0,66,117)" stroke-width="1" opacity="1" d="M 849.5 98 L 878 98.5 L 849.5 99 L 849.5 98 Z " /><path fill="rgb(0,66,117)" stroke="rgb(0,66,117)" stroke-width="1" opacity="1" d="M 979.5 98 L 1005 98.5 L 979.5 99 L 979.5 98 Z " /><path fill="rgb(0,66,117)" stroke="rgb(0,66,117)" stroke-width="1" opacity="1" d="M 720.5 103 L 724.5 108 L 720.5 103 Z " /><path fill="rgb(0,66,117)" stroke="rgb(0,66,117)" stroke-width="1" opacity="1" d="M 505.5 104 L 506.5 106 L 505.5 104 Z " /><path fill="rgb(0,66,117)" stroke="rgb(0,66,117)" stroke-width="1" opacity="1" d="M 607.5 104 L 608.5 106 L 607.5 104 Z " /><path fill="rgb(0,66,117)" stroke="rgb(0,66,117)" stroke-width="1" opacity="1" d="M 954.5 106 L 953.5 108 L 954.5 106 Z " /><path fill="rgb(0,66,117)" stroke="rgb(0,66,117)" stroke-width="1" opacity="1" d="M 825.5 107 L 824.5 109 L 825.5 107 Z " /><path fill="rgb(0,66,117)" stroke="rgb(0,66,117)" stroke-width="1" opacity="1" d="M 903.5 108 L 905.5 111 L 903.5 108 Z " /><path fill="rgb(0,66,117)" stroke="rgb(0,66,117)" stroke-width="1" opacity="1" d="M 951.5 108 L 948.5 112 L 951.5 108 Z " /><path fill="rgb(0,66,117)" stroke="rgb(0,66,117)" stroke-width="1" opacity="1" d="M 1031.5 108 L 1032.5 110 L 1031.5 108 Z " /><path fill="rgb(0,66,117)" stroke="rgb(0,66,117)" stroke-width="1" opacity="1" d="M 612.5 109 L 613.5 111 L 612.5 109 Z " /><path fill="rgb(0,66,117)" stroke="rgb(0,66,117)" stroke-width="1" opacity="1" d="M 821.5 110 L 817.5 115 L 821.5 110 Z " /><path fill="rgb(0,66,117)" stroke="rgb(0,66,117)" stroke-width="1" opacity="1" d="M 512.5 111 L 513.5 113 L 512.5 111 Z " /><path fill="rgb(0,66,117)" stroke="rgb(0,66,117)" stroke-width="1" opacity="1" d="M 614.5 112 L 615.5 114 L 614.5 112 Z " /><path fill="rgb(0,66,117)" stroke="rgb(0,66,117)" stroke-width="1" opacity="1" d="M 910.5 115 L 912.5 118 L 910.5 115 Z " /><path fill="rgb(0,66,117)" stroke="rgb(0,66,117)" stroke-width="1" opacity="1" d="M 944.5 115 L 942.5 118 L 944.5 115 Z " /><path fill="rgb(0,66,117)" stroke="rgb(0,66,117)" stroke-width="1" opacity="1" d="M 1040.5 117 L 1041.5 119 L 1040.5 117 Z " /><path fill="rgb(0,66,117)" stroke="rgb(0,66,117)" stroke-width="1" opacity="1" d="M 814.5 118 L 813.5 120 L 814.5 118 Z " /><path fill="rgb(0,66,117)" stroke="rgb(0,66,117)" stroke-width="1" opacity="1" d="M 812.5 121 L 811.5 123 L 812.5 121 Z " /><path fill="rgb(0,66,117)" stroke="rgb(0,66,117)" stroke-width="1" opacity="1" d="M 481.5 123 L 484.5 127 L 481.5 123 Z " /><path fill="rgb(0,66,117)" stroke="rgb(0,66,117)" stroke-width="1" opacity="1" d="M 851.5 128 L 847.5 133 L 851.5 128 Z " /><path fill="rgb(0,66,117)" stroke="rgb(0,66,117)" stroke-width="1" opacity="1" d="M 875.5 128 L 879.5 133 L 875.5 128 Z " /><path fill="rgb(0,66,117)" stroke="rgb(0,66,117)" stroke-width="1" opacity="1" d="M 1003.5 129 L 1007.5 134 L 1003.5 129 Z " /><path fill="rgb(0,66,117)" stroke="rgb(0,66,117)" stroke-width="1" opacity="1" d="M 576 130 L 578 130.5 L 577 131.5 L 577 233.5 L 575.5 235 L 550 234.5 L 576 234 L 576 130 Z " /><path fill="rgb(0,66,117)" stroke="rgb(0,66,117)" stroke-width="1" opacity="1" d="M 978.5 130 L 976.5 133 L 978.5 130 Z " /><path fill="rgb(0,66,117)" stroke="rgb(0,66,117)" stroke-width="1" opacity="1" d="M 580.5 135 L 581.5 137 L 580.5 135 Z " /><path fill="rgb(0,66,117)" stroke="rgb(0,66,117)" stroke-width="1" opacity="1" d="M 805.5 139 L 806 141.5 L 805 141.5 L 805.5 139 Z " /><path fill="rgb(0,66,117)" stroke="rgb(0,66,117)" stroke-width="1" opacity="1" d="M 485.5 140 L 484.5 142 L 485.5 140 Z " /><path fill="rgb(0,66,117)" stroke="rgb(0,66,117)" stroke-width="1" opacity="1" d="M 583.5 140 L 584.5 142 L 583.5 140 Z " /><path fill="rgb(0,66,117)" stroke="rgb(0,66,117)" stroke-width="1" opacity="1" d="M 972.5 141 L 973 191.5 L 972 191.5 L 972.5 141 Z " /><path fill="rgb(0,66,117)" stroke="rgb(0,66,117)" stroke-width="1" opacity="1" d="M 1050.5 142 L 1051 190.5 L 1050 190.5 L 1050.5 142 Z " /><path fill="rgb(0,66,117)" stroke="rgb(0,66,117)" stroke-width="1" opacity="1" d="M 482.5 143 L 481.5 145 L 482.5 143 Z " /><path fill="rgb(0,66,117)" stroke="rgb(0,66,117)" stroke-width="1" opacity="1" d="M 922.5 144 L 923 162.5 L 922 162.5 L 922.5 144 Z " /><path fill="rgb(0,66,117)" stroke="rgb(0,66,117)" stroke-width="1" opacity="1" d="M 468.5 146 L 476 146.5 L 468.5 147 L 468.5 146 Z " /><path fill="rgb(0,66,117)" stroke="rgb(0,66,117)" stroke-width="1" opacity="1" d="M 513.5 147 L 511.5 150 L 513.5 147 Z " /><path fill="rgb(0,66,117)" stroke="rgb(0,66,117)" stroke-width="1" opacity="1" d="M 636.5 151 L 637.5 153 L 636.5 151 Z " /><path fill="rgb(0,66,117)" stroke="rgb(0,66,117)" stroke-width="1" opacity="1" d="M 507.5 153 L 508.5 155 L 507.5 153 Z " /><path fill="rgb(0,66,117)" stroke="rgb(0,66,117)" stroke-width="1" opacity="1" d="M 591.5 153 L 592.5 155 L 591.5 153 Z " /><path fill="rgb(0,66,117)" stroke="rgb(0,66,117)" stroke-width="1" opacity="1" d="M 518.5 158 L 519.5 160 L 518.5 158 Z " /><path fill="rgb(0,66,117)" stroke="rgb(0,66,117)" stroke-width="1" opacity="1" d="M 524.5 162 L 530.5 169 L 524.5 162 Z " /><path fill="rgb(0,66,117)" stroke="rgb(0,66,117)" stroke-width="1" opacity="1" d="M 643.5 163 L 644.5 165 L 643.5 163 Z " /><path fill="rgb(0,66,117)" stroke="rgb(0,66,117)" stroke-width="1" opacity="1" d="M 599.5 166 L 600.5 168 L 599.5 166 Z " /><path fill="rgb(0,66,117)" stroke="rgb(0,66,117)" stroke-width="1" opacity="1" d="M 468.5 170 L 487 170.5 L 468.5 171 L 468.5 170 Z " /><path fill="rgb(0,66,117)" stroke="rgb(0,66,117)" stroke-width="1" opacity="1" d="M 602.5 171 L 603.5 173 L 602.5 171 Z " /><path fill="rgb(0,66,117)" stroke="rgb(0,66,117)" stroke-width="1" opacity="1" d="M 650.5 175 L 651.5 177 L 650.5 175 Z " /><path fill="rgb(0,66,117)" stroke="rgb(0,66,117)" stroke-width="1" opacity="1" d="M 591.5 185 L 592 206.5 L 591 206.5 L 591.5 185 Z " /><path fill="rgb(0,66,117)" stroke="rgb(0,66,117)" stroke-width="1" opacity="1" d="M 657.5 187 L 658.5 189 L 657.5 187 Z " /><path fill="rgb(0,66,117)" stroke="rgb(0,66,117)" stroke-width="1" opacity="1" d="M 805.5 191 L 806 193.5 L 805 193.5 L 805.5 191 Z " /><path fill="rgb(0,66,117)" stroke="rgb(0,66,117)" stroke-width="1" opacity="1" d="M 181 196 Q 232.2 212.5 264 249.5 L 281 271.5 L 286 279.5 L 286 282 L 282 281 Q 283.1 283.7 280.5 283 L 279.5 282 L 277.5 284 L 276.5 283 Q 274.8 286.1 273 284.5 Q 273.8 286.8 271.5 286 L 270 285.5 Q 270.8 287.8 268.5 287 L 267 286.5 Q 267.8 288.8 265.5 288 L 264 287.5 Q 264.8 289.8 262.5 289 L 261 288.5 L 260.5 290 L 259 289.5 L 258.5 291 L 257 290.5 Q 257.8 292.8 255.5 292 L 254 291.5 L 253.5 293 L 252 292.5 L 251.5 294 L 250 293.5 Q 250.8 295.8 248.5 295 L 247 294.5 L 246.5 296 L 245 295.5 L 243.5 298 L 242 297.5 L 241.5 299 L 240 298.5 L 239.5 300 L 238 299.5 L 237.5 301 L 236 300.5 L 235.5 302 L 234 301.5 L 233.5 303 L 232 302.5 L 230.5 305 L 229 304.5 L 228.5 306 L 227 305.5 Q 227.8 307.8 225.5 307 Q 205.9 286.6 194 258.5 L 185 230.5 L 182 213.5 L 182 202.5 L 181 196 Z " /><path fill="rgb(0,66,117)" stroke="rgb(0,66,117)" stroke-width="1" opacity="1" d="M 1008.5 198 L 1007.5 200 L 1008.5 198 Z " /><path fill="rgb(0,66,117)" stroke="rgb(0,66,117)" stroke-width="1" opacity="1" d="M 975.5 199 L 979.5 204 L 975.5 199 Z " /><path fill="rgb(0,66,117)" stroke="rgb(0,66,117)" stroke-width="1" opacity="1" d="M 500.5 200 L 497.5 204 L 500.5 200 Z " /><path fill="rgb(0,66,117)" stroke="rgb(0,66,117)" stroke-width="1" opacity="1" d="M 848.5 201 L 850.5 204 L 848.5 201 Z " /><path fill="rgb(0,66,117)" stroke="rgb(0,66,117)" stroke-width="1" opacity="1" d="M 667.5 204 L 668.5 206 L 667.5 204 Z " /><path fill="rgb(0,66,117)" stroke="rgb(0,66,117)" stroke-width="1" opacity="1" d="M 852.5 204 L 853.5 206 L 852.5 204 Z " /><path fill="rgb(0,66,117)" stroke="rgb(0,66,117)" stroke-width="1" opacity="1" d="M 987.5 206 L 997 206.5 L 987.5 207 L 987.5 206 Z " /><path fill="rgb(0,66,117)" stroke="rgb(0,66,117)" stroke-width="1" opacity="1" d="M 939.5 211 L 940.5 213 L 939.5 211 Z " /><path fill="rgb(0,66,117)" stroke="rgb(0,66,117)" stroke-width="1" opacity="1" d="M 740.5 213 L 741.5 215 L 740.5 213 Z " /><path fill="rgb(0,66,117)" stroke="rgb(0,66,117)" stroke-width="1" opacity="1" d="M 1042.5 213 L 1041.5 215 L 1042.5 213 Z " /><path fill="rgb(0,66,117)" stroke="rgb(0,66,117)" stroke-width="1" opacity="1" d="M 814.5 214 L 815.5 216 L 814.5 214 Z " /><path fill="rgb(0,66,117)" stroke="rgb(0,66,117)" stroke-width="1" opacity="1" d="M 941.5 214 L 943.5 217 L 941.5 214 Z " /><path fill="rgb(0,66,117)" stroke="rgb(0,66,117)" stroke-width="1" opacity="1" d="M 742.5 216 L 743.5 218 L 742.5 216 Z " /><path fill="rgb(0,66,117)" stroke="rgb(0,66,117)" stroke-width="1" opacity="1" d="M 531.5 217 L 524.5 225 L 531.5 217 Z " /><path fill="rgb(0,66,117)" stroke="rgb(0,66,117)" stroke-width="1" opacity="1" d="M 1038.5 218 L 1034.5 223 L 1038.5 218 Z " /><path fill="rgb(0,66,117)" stroke="rgb(0,66,117)" stroke-width="1" opacity="1" d="M 745.5 220 L 750.5 226 L 745.5 220 Z " /><path fill="rgb(0,66,117)" stroke="rgb(0,66,117)" stroke-width="1" opacity="1" d="M 823.5 223 L 824.5 225 L 823.5 223 Z " /><path fill="rgb(0,66,117)" stroke="rgb(0,66,117)" stroke-width="1" opacity="1" d="M 950.5 223 L 952.5 226 L 950.5 223 Z " /><path fill="rgb(0,66,117)" stroke="rgb(0,66,117)" stroke-width="1" opacity="1" d="M 954.5 226 L 955.5 228 L 954.5 226 Z " /><path fill="rgb(0,66,117)" stroke="rgb(0,66,117)" stroke-width="1" opacity="1" d="M 753.5 227 L 754.5 229 L 753.5 227 Z " /><path fill="rgb(0,66,117)" stroke="rgb(0,66,117)" stroke-width="1" opacity="1" d="M 468.5 234 L 495 234.5 L 468.5 235 L 468.5 234 Z " /><path fill="rgb(0,66,117)" stroke="rgb(0,66,117)" stroke-width="1" opacity="1" d="M 634.5 234 L 704 234.5 L 634.5 235 L 634.5 234 Z " /><path fill="rgb(0,66,117)" stroke="rgb(0,66,117)" stroke-width="1" opacity="1" d="M 852.5 234 L 923 234.5 L 852.5 235 L 852.5 234 Z " /><path fill="rgb(0,66,117)" stroke="rgb(0,66,117)" stroke-width="1" opacity="1" d="M 976.5 234 L 979 234.5 L 976.5 235 L 976.5 234 Z " /><path fill="rgb(0,66,117)" stroke="rgb(0,66,117)" stroke-width="1" opacity="1" d="M 1005.5 234 L 1008 234.5 L 1005.5 235 L 1005.5 234 Z " /><path fill="rgb(0,66,117)" stroke="rgb(0,66,117)" stroke-width="1" opacity="1" d="M 950.5 253 L 953 253.5 L 950.5 254 L 950.5 253 Z " /><path fill="rgb(0,66,117)" stroke="rgb(0,66,117)" stroke-width="1" opacity="1" d="M 1014.5 253 L 1015 334.5 L 1014 334.5 L 1014.5 253 Z " /><path fill="rgb(0,66,117)" stroke="rgb(0,66,117)" stroke-width="1" opacity="1" d="M 963.5 257 L 964.5 259 L 963.5 257 Z " /><path fill="rgb(0,66,117)" stroke="rgb(0,66,117)" stroke-width="1" opacity="1" d="M 966.5 259 L 973.5 267 L 966.5 259 Z " /><path fill="rgb(0,66,117)" stroke="rgb(0,66,117)" stroke-width="1" opacity="1" d="M 603.5 260 L 607.5 265 L 603.5 260 Z " /><path fill="rgb(0,66,117)" stroke="rgb(0,66,117)" stroke-width="1" opacity="1" d="M 789.5 263 L 788.5 265 L 789.5 263 Z " /><path fill="rgb(0,66,117)" stroke="rgb(0,66,117)" stroke-width="1" opacity="1" d="M 886.5 265 L 888.5 268 L 886.5 265 Z " /><path fill="rgb(0,66,117)" stroke="rgb(0,66,117)" stroke-width="1" opacity="1" d="M 785.5 266 L 778.5 274 L 785.5 266 Z " /><path fill="rgb(0,66,117)" stroke="rgb(0,66,117)" stroke-width="1" opacity="1" d="M 609.5 267 L 610.5 269 L 609.5 267 Z " /><path fill="rgb(0,66,117)" stroke="rgb(0,66,117)" stroke-width="1" opacity="1" d="M 974.5 268 L 975.5 270 L 974.5 268 Z " /><path fill="rgb(0,66,117)" stroke="rgb(0,66,117)" stroke-width="1" opacity="1" d="M 894.5 273 L 895.5 275 L 894.5 273 Z " /><path fill="rgb(0,66,117)" stroke="rgb(0,66,117)" stroke-width="1" opacity="1" d="M 328.5 274 L 366.5 275 L 367.5 276 L 380.5 277 L 386 279.5 L 386 356.5 L 384.5 357 L 378.5 359 L 364.5 360 L 363.5 361 L 334.5 361 L 311 357 L 309 340.5 L 305 323.5 L 298 303.5 L 287 281.5 L 288.5 280 L 308.5 276 L 327.5 275 L 328.5 274 Z " /><path fill="rgb(0,66,117)" stroke="rgb(0,66,117)" stroke-width="1" opacity="1" d="M 776.5 276 L 775.5 278 L 776.5 276 Z " /><path fill="rgb(0,66,117)" stroke="rgb(0,66,117)" stroke-width="1" opacity="1" d="M 980.5 278 L 981.5 280 L 980.5 278 Z " /><path fill="rgb(0,66,117)" stroke="rgb(0,66,117)" stroke-width="1" opacity="1" d="M 852.5 285 L 855.5 289 L 852.5 285 Z " /><path fill="rgb(0,66,117)" stroke="rgb(0,66,117)" stroke-width="1" opacity="1" d="M 819.5 286 L 818.5 288 L 819.5 286 Z " /><path fill="rgb(0,66,117)" stroke="rgb(0,66,117)" stroke-width="1" opacity="1" d="M 621.5 287 L 622.5 289 L 621.5 287 Z " /><path fill="rgb(0,66,117)" stroke="rgb(0,66,117)" stroke-width="1" opacity="1" d="M 904.5 295 L 905 297.5 L 904 297.5 L 904.5 295 Z " /><path fill="rgb(0,66,117)" stroke="rgb(0,66,117)" stroke-width="1" opacity="1" d="M 814.5 296 L 815 346.5 L 814 346.5 L 814.5 296 Z " /><path fill="rgb(0,66,117)" stroke="rgb(0,66,117)" stroke-width="1" opacity="1" d="M 768.5 297 L 769 344.5 L 768 344.5 L 768.5 297 Z " /><path fill="rgb(0,66,117)" stroke="rgb(0,66,117)" stroke-width="1" opacity="1" d="M 993.5 300 L 994.5 302 L 993.5 300 Z " /><path fill="rgb(0,66,117)" stroke="rgb(0,66,117)" stroke-width="1" opacity="1" d="M 996.5 305 L 997.5 307 L 996.5 305 Z " /><path fill="rgb(0,66,117)" stroke="rgb(0,66,117)" stroke-width="1" opacity="1" d="M 950.5 307 L 951.5 309 L 950.5 307 Z " /><path fill="rgb(0,66,117)" stroke="rgb(0,66,117)" stroke-width="1" opacity="1" d="M 227.5 309 L 231.5 314 L 227.5 309 Z " /><path fill="rgb(0,66,117)" stroke="rgb(0,66,117)" stroke-width="1" opacity="1" d="M 634.5 309 L 635.5 311 L 634.5 309 Z " /><path fill="rgb(0,66,117)" stroke="rgb(0,66,117)" stroke-width="1" opacity="1" d="M 236.5 317 L 241.5 323 L 236.5 317 Z " /><path fill="rgb(0,66,117)" stroke="rgb(0,66,117)" stroke-width="1" opacity="1" d="M 243.5 323 L 246.5 327 L 243.5 323 Z " /><path fill="rgb(0,66,117)" stroke="rgb(0,66,117)" stroke-width="1" opacity="1" d="M 1009.5 327 L 1010.5 329 L 1009.5 327 Z " /><path fill="rgb(0,66,117)" stroke="rgb(0,66,117)" stroke-width="1" opacity="1" d="M 249.5 328 L 250.5 330 L 249.5 328 Z " /><path fill="rgb(0,66,117)" stroke="rgb(0,66,117)" stroke-width="1" opacity="1" d="M 252.5 330 L 253.5 332 L 252.5 330 Z " /><path fill="rgb(0,66,117)" stroke="rgb(0,66,117)" stroke-width="1" opacity="1" d="M 647.5 331 L 648.5 333 L 647.5 331 Z " /><path fill="rgb(0,66,117)" stroke="rgb(0,66,117)" stroke-width="1" opacity="1" d="M 255.5 332 L 256.5 334 L 255.5 332 Z " /><path fill="rgb(0,66,117)" stroke="rgb(0,66,117)" stroke-width="1" opacity="1" d="M 258.5 334 L 259.5 336 L 258.5 334 Z " /><path fill="rgb(0,66,117)" stroke="rgb(0,66,117)" stroke-width="1" opacity="1" d="M 263.5 337 L 264.5 339 L 263.5 337 Z " /><path fill="rgb(0,66,117)" stroke="rgb(0,66,117)" stroke-width="1" opacity="1" d="M 268.5 340 L 277 344.5 L 275.5 345 L 269.5 342 L 268.5 340 Z " /><path fill="rgb(0,66,117)" stroke="rgb(0,66,117)" stroke-width="1" opacity="1" d="M 413.5 344 L 414 346.5 L 413 346.5 L 413.5 344 Z " /><path fill="rgb(0,66,117)" stroke="rgb(0,66,117)" stroke-width="1" opacity="1" d="M 1083.5 344 L 1086 344.5 L 1083.5 345 L 1083.5 344 Z " /><path fill="rgb(0,66,117)" stroke="rgb(0,66,117)" stroke-width="1" opacity="1" d="M 1087.5 344 L 1091 344.5 L 1087.5 345 L 1087.5 344 Z " /><path fill="rgb(0,66,117)" stroke="rgb(0,66,117)" stroke-width="1" opacity="1" d="M 1075.5 347 L 1072.5 351 L 1075.5 347 Z " /><path fill="rgb(0,66,117)" stroke="rgb(0,66,117)" stroke-width="1" opacity="1" d="M 816.5 352 L 817.5 354 L 816.5 352 Z " /><path fill="rgb(0,66,117)" stroke="rgb(0,66,117)" stroke-width="1" opacity="1" d="M 856.5 352 L 855.5 354 L 856.5 352 Z " /><path fill="rgb(0,66,117)" stroke="rgb(0,66,117)" stroke-width="1" opacity="1" d="M 1082.5 352 L 1084 352.5 L 1080.5 355 L 1082.5 352 Z " /><path fill="rgb(0,66,117)" stroke="rgb(0,66,117)" stroke-width="1" opacity="1" d="M 1138.5 352 L 1137.5 354 L 1138.5 352 Z " /><path fill="rgb(0,66,117)" stroke="rgb(0,66,117)" stroke-width="1" opacity="1" d="M 461.5 355 L 465.5 360 L 461.5 355 Z " /><path fill="rgb(0,66,117)" stroke="rgb(0,66,117)" stroke-width="1" opacity="1" d="M 820.5 356 L 821.5 358 L 820.5 356 Z " /><path fill="rgb(0,66,117)" stroke="rgb(0,66,117)" stroke-width="1" opacity="1" d="M 851.5 357 L 850.5 359 L 851.5 357 Z " /><path fill="rgb(0,66,117)" stroke="rgb(0,66,117)" stroke-width="1" opacity="1" d="M 832.5 361 L 842 361.5 L 832.5 362 L 832.5 361 Z " /><path fill="rgb(0,66,117)" stroke="rgb(0,66,117)" stroke-width="1" opacity="1" d="M 472.5 362 L 475 362.5 L 472.5 363 L 472.5 362 Z " /><path fill="rgb(0,66,117)" stroke="rgb(0,66,117)" stroke-width="1" opacity="1" d="M 774.5 363 L 775.5 365 L 774.5 363 Z " /><path fill="rgb(0,66,117)" stroke="rgb(0,66,117)" stroke-width="1" opacity="1" d="M 897.5 365 L 896.5 367 L 897.5 365 Z " /><path fill="rgb(0,66,117)" stroke="rgb(0,66,117)" stroke-width="1" opacity="1" d="M 776.5 366 L 777.5 368 L 776.5 366 Z " /><path fill="rgb(0,66,117)" stroke="rgb(0,66,117)" stroke-width="1" opacity="1" d="M 1133.5 368 L 1134 370 L 1142.5 370 L 1143.5 369 L 1144 371 L 1133.5 371 L 1133.5 368 Z " /><path fill="rgb(0,66,117)" stroke="rgb(0,66,117)" stroke-width="1" opacity="1" d="M 422.5 369 L 423.5 371 L 422.5 369 Z " /><path fill="rgb(0,66,117)" stroke="rgb(0,66,117)" stroke-width="1" opacity="1" d="M 623.5 369 L 624.5 371 L 623.5 369 Z " /><path fill="rgb(0,66,117)" stroke="rgb(0,66,117)" stroke-width="1" opacity="1" d="M 894.5 369 L 888.5 376 L 894.5 369 Z " /><path fill="rgb(0,66,117)" stroke="rgb(0,66,117)" stroke-width="1" opacity="1" d="M 779.5 370 L 783.5 375 L 779.5 370 Z " /><path fill="rgb(0,66,117)" stroke="rgb(0,66,117)" stroke-width="1" opacity="1" d="M 989.5 371 L 991.5 374 L 989.5 371 Z " /><path fill="rgb(0,66,117)" stroke="rgb(0,66,117)" stroke-width="1" opacity="1" d="M 1087.5 372 L 1089.5 375 L 1087.5 372 Z " /><path fill="rgb(0,66,117)" stroke="rgb(0,66,117)" stroke-width="1" opacity="1" d="M 1099.5 374 L 1100 377.5 L 1099 377.5 L 1099.5 374 Z " /><path fill="rgb(0,66,117)" stroke="rgb(0,66,117)" stroke-width="1" opacity="1" d="M 628.5 375 L 630.5 378 L 628.5 375 Z " /><path fill="rgb(0,66,117)" stroke="rgb(0,66,117)" stroke-width="1" opacity="1" d="M 787.5 377 L 788.5 379 L 787.5 377 Z " /><path fill="rgb(0,66,117)" stroke="rgb(0,66,117)" stroke-width="1" opacity="1" d="M 885.5 377 L 884.5 379 L 885.5 377 Z " /><path fill="rgb(0,66,117)" stroke="rgb(0,66,117)" stroke-width="1" opacity="1" d="M 1132.5 377 L 1144.5 377 L 1146 378.5 L 1144.5 378 L 1132.5 378 L 1131.5 379 L 1132.5 377 Z " /><path fill="rgb(0,66,117)" stroke="rgb(0,66,117)" stroke-width="1" opacity="1" d="M 431.5 378 L 432.5 380 L 431.5 378 Z " /><path fill="rgb(0,66,117)" stroke="rgb(0,66,117)" stroke-width="1" opacity="1" d="M 790.5 379 L 791.5 381 L 790.5 379 Z " /><path fill="rgb(0,66,117)" stroke="rgb(0,66,117)" stroke-width="1" opacity="1" d="M 997.5 379 L 998.5 381 L 997.5 379 Z " /><path fill="rgb(0,66,117)" stroke="rgb(0,66,117)" stroke-width="1" opacity="1" d="M 1172.5 379 L 1173.5 381 L 1172.5 379 Z " /><path fill="rgb(0,66,117)" stroke="rgb(0,66,117)" stroke-width="1" opacity="1" d="M 634.5 380 L 635.5 382 L 634.5 380 Z " /><path fill="rgb(0,66,117)" stroke="rgb(0,66,117)" stroke-width="1" opacity="1" d="M 1115.5 386 L 1113.5 389 L 1115.5 386 Z " /><path fill="rgb(0,66,117)" stroke="rgb(0,66,117)" stroke-width="1" opacity="1" d="M 1164.5 387 L 1165.5 389 L 1164.5 387 Z " /><path fill="rgb(0,66,117)" stroke="rgb(0,66,117)" stroke-width="1" opacity="1" d="M 818.5 389 L 822 389.5 L 818.5 390 L 818.5 389 Z " /><path fill="rgb(0,66,117)" stroke="rgb(0,66,117)" stroke-width="1" opacity="1" d="M 852.5 389 L 855 389.5 L 852.5 390 L 852.5 389 Z " /><path fill="rgb(0,66,117)" stroke="rgb(0,66,117)" stroke-width="1" opacity="1" d="M 914.5 389 L 950 389.5 L 914.5 390 L 914.5 389 Z " /><path fill="rgb(0,66,117)" stroke="rgb(0,66,117)" stroke-width="1" opacity="1" d="M 1023.5 389 L 1050 389.5 L 1023.5 390 L 1023.5 389 Z " /><path fill="rgb(0,66,117)" stroke="rgb(0,66,117)" stroke-width="1" opacity="1" d="M 1079.5 389 L 1085 389.5 L 1079.5 390 L 1079.5 389 Z " /><path fill="rgb(0,66,117)" stroke="rgb(0,66,117)" stroke-width="1" opacity="1" d="M 1109.5 389 L 1112 389.5 L 1109.5 390 L 1109.5 389 Z " /><path fill="rgb(0,66,117)" stroke="rgb(0,66,117)" stroke-width="1" opacity="1" d="M 1167.5 389 L 1170 389.5 L 1167.5 390 L 1167.5 389 Z " /><path fill="rgb(254,254,254)" stroke="rgb(254,254,254)" stroke-width="1" opacity="1" d="M 93 97 L 386 97.5 L 94 98 L 93.5 390 L 93 97 Z " /><path fill="rgb(254,254,254)" stroke="rgb(254,254,254)" stroke-width="1" opacity="1" d="M 784.5 97 L 795.5 97 L 796 97.5 L 796 234.5 L 795 234.5 L 795 98.5 L 794.5 98 L 784.5 98 L 784.5 97 Z " /><path fill="rgb(254,254,254)" stroke="rgb(254,254,254)" stroke-width="1" opacity="1" d="M 589.5 98 L 592 98.5 L 589.5 99 L 589.5 98 Z " /><path fill="rgb(254,254,254)" stroke="rgb(254,254,254)" stroke-width="1" opacity="1" d="M 672.5 98 L 673 210.5 L 671 209.5 L 672 208.5 L 672.5 98 Z " /><path fill="rgb(254,254,254)" stroke="rgb(254,254,254)" stroke-width="1" opacity="1" d="M 1008.5 98 L 1011 98.5 L 1008.5 99 L 1008.5 98 Z " /><path fill="rgb(254,254,254)" stroke="rgb(254,254,254)" stroke-width="1" opacity="1" d="M 719.5 101 L 726.5 109 L 719.5 101 Z " /><path fill="rgb(254,254,254)" stroke="rgb(254,254,254)" stroke-width="1" opacity="1" d="M 1022.5 102 L 1025 103.5 L 1023.5 103 L 1022.5 102 Z " /><path fill="rgb(254,254,254)" stroke="rgb(254,254,254)" stroke-width="1" opacity="1" d="M 607.5 103 L 608.5 105 L 607.5 103 Z " /><path fill="rgb(254,254,254)" stroke="rgb(254,254,254)" stroke-width="1" opacity="1" d="M 828.5 104 L 827.5 106 L 828.5 104 Z " /><path fill="rgb(254,254,254)" stroke="rgb(254,254,254)" stroke-width="1" opacity="1" d="M 900.5 105 L 901.5 107 L 900.5 105 Z " /><path fill="rgb(254,254,254)" stroke="rgb(254,254,254)" stroke-width="1" opacity="1" d="M 954.5 105 L 953.5 107 L 954.5 105 Z " /><path fill="rgb(254,254,254)" stroke="rgb(254,254,254)" stroke-width="1" opacity="1" d="M 1028.5 105 L 1029.5 107 L 1028.5 105 Z " /><path fill="rgb(254,254,254)" stroke="rgb(254,254,254)" stroke-width="1" opacity="1" d="M 825.5 106 L 824.5 108 L 825.5 106 Z " /><path fill="rgb(254,254,254)" stroke="rgb(254,254,254)" stroke-width="1" opacity="1" d="M 903.5 107 L 905.5 110 L 903.5 107 Z " /><path fill="rgb(254,254,254)" stroke="rgb(254,254,254)" stroke-width="1" opacity="1" d="M 951.5 107 L 947.5 112 L 951.5 107 Z " /><path fill="rgb(254,254,254)" stroke="rgb(254,254,254)" stroke-width="1" opacity="1" d="M 1031.5 107 L 1032.5 109 L 1031.5 107 Z " /><path fill="rgb(254,254,254)" stroke="rgb(254,254,254)" stroke-width="1" opacity="1" d="M 511.5 108 L 512.5 110 L 511.5 108 Z " /><path fill="rgb(254,254,254)" stroke="rgb(254,254,254)" stroke-width="1" opacity="1" d="M 612.5 108 L 614.5 111 L 612.5 108 Z " /><path fill="rgb(254,254,254)" stroke="rgb(254,254,254)" stroke-width="1" opacity="1" d="M 821.5 109 L 815.5 116 L 821.5 109 Z " /><path fill="rgb(254,254,254)" stroke="rgb(254,254,254)" stroke-width="1" opacity="1" d="M 1035.5 110 L 1038.5 114 L 1035.5 110 Z " /><path fill="rgb(254,254,254)" stroke="rgb(254,254,254)" stroke-width="1" opacity="1" d="M 513.5 111 L 514.5 113 L 513.5 111 Z " /><path fill="rgb(254,254,254)" stroke="rgb(254,254,254)" stroke-width="1" opacity="1" d="M 728.5 112 L 729.5 114 L 728.5 112 Z " /><path fill="rgb(254,254,254)" stroke="rgb(254,254,254)" stroke-width="1" opacity="1" d="M 515.5 114 L 516.5 116 L 515.5 114 Z " /><path fill="rgb(254,254,254)" stroke="rgb(254,254,254)" stroke-width="1" opacity="1" d="M 616.5 114 L 617.5 116 L 616.5 114 Z " /><path fill="rgb(254,254,254)" stroke="rgb(254,254,254)" stroke-width="1" opacity="1" d="M 944.5 114 L 941.5 118 L 944.5 114 Z " /><path fill="rgb(254,254,254)" stroke="rgb(254,254,254)" stroke-width="1" opacity="1" d="M 911.5 115 L 913.5 118 L 911.5 115 Z " /><path fill="rgb(254,254,254)" stroke="rgb(254,254,254)" stroke-width="1" opacity="1" d="M 1040.5 116 L 1042.5 119 L 1040.5 116 Z " /><path fill="rgb(254,254,254)" stroke="rgb(254,254,254)" stroke-width="1" opacity="1" d="M 813.5 118 L 812.5 120 L 813.5 118 Z " /><path fill="rgb(254,254,254)" stroke="rgb(254,254,254)" stroke-width="1" opacity="1" d="M 914.5 119 L 915.5 121 L 914.5 119 Z " /><path fill="rgb(254,254,254)" stroke="rgb(254,254,254)" stroke-width="1" opacity="1" d="M 940.5 119 L 939.5 121 L 940.5 119 Z " /><path fill="rgb(254,254,254)" stroke="rgb(254,254,254)" stroke-width="1" opacity="1" d="M 1043.5 120 L 1044.5 122 L 1043.5 120 Z " /><path fill="rgb(254,254,254)" stroke="rgb(254,254,254)" stroke-width="1" opacity="1" d="M 620.5 121 L 621.5 123 L 620.5 121 Z " /><path fill="rgb(254,254,254)" stroke="rgb(254,254,254)" stroke-width="1" opacity="1" d="M 458.5 122 L 459 234.5 L 458 234.5 L 458.5 122 Z " /><path fill="rgb(254,254,254)" stroke="rgb(254,254,254)" stroke-width="1" opacity="1" d="M 916.5 122 L 917.5 124 L 916.5 122 Z " /><path fill="rgb(254,254,254)" stroke="rgb(254,254,254)" stroke-width="1" opacity="1" d="M 810.5 123 L 809.5 125 L 810.5 123 Z " /><path fill="rgb(254,254,254)" stroke="rgb(254,254,254)" stroke-width="1" opacity="1" d="M 481.5 124 L 483.5 127 L 481.5 124 Z " /><path fill="rgb(254,254,254)" stroke="rgb(254,254,254)" stroke-width="1" opacity="1" d="M 861.5 125 L 866 125.5 L 861.5 126 L 861.5 125 Z " /><path fill="rgb(254,254,254)" stroke="rgb(254,254,254)" stroke-width="1" opacity="1" d="M 854.5 127 L 853.5 129 L 854.5 127 Z " /><path fill="rgb(254,254,254)" stroke="rgb(254,254,254)" stroke-width="1" opacity="1" d="M 986.5 127 L 997 127.5 L 986.5 128 L 986.5 127 Z " /><path fill="rgb(254,254,254)" stroke="rgb(254,254,254)" stroke-width="1" opacity="1" d="M 851.5 129 L 848.5 133 L 851.5 129 Z " /><path fill="rgb(254,254,254)" stroke="rgb(254,254,254)" stroke-width="1" opacity="1" d="M 875.5 129 L 879.5 134 L 875.5 129 Z " /><path fill="rgb(254,254,254)" stroke="rgb(254,254,254)" stroke-width="1" opacity="1" d="M 1003.5 130 L 1007.5 135 L 1003.5 130 Z " /><path fill="rgb(254,254,254)" stroke="rgb(254,254,254)" stroke-width="1" opacity="1" d="M 978.5 131 L 976.5 134 L 978.5 131 Z " /><path fill="rgb(254,254,254)" stroke="rgb(254,254,254)" stroke-width="1" opacity="1" d="M 626.5 132 L 627.5 134 L 626.5 132 Z " /><path fill="rgb(254,254,254)" stroke="rgb(254,254,254)" stroke-width="1" opacity="1" d="M 739.5 133 L 740.5 135 L 739.5 133 Z " /><path fill="rgb(254,254,254)" stroke="rgb(254,254,254)" stroke-width="1" opacity="1" d="M 847.5 134 L 846.5 136 L 847.5 134 Z " /><path fill="rgb(254,254,254)" stroke="rgb(254,254,254)" stroke-width="1" opacity="1" d="M 579.5 135 L 580.5 137 L 579.5 135 Z " /><path fill="rgb(254,254,254)" stroke="rgb(254,254,254)" stroke-width="1" opacity="1" d="M 581.5 138 L 582.5 140 L 581.5 138 Z " /><path fill="rgb(254,254,254)" stroke="rgb(254,254,254)" stroke-width="1" opacity="1" d="M 932.5 138 L 933 140.5 L 932 140.5 L 932.5 138 Z " /><path fill="rgb(254,254,254)" stroke="rgb(254,254,254)" stroke-width="1" opacity="1" d="M 484.5 140 L 481.5 144 L 484.5 140 Z " /><path fill="rgb(254,254,254)" stroke="rgb(254,254,254)" stroke-width="1" opacity="1" d="M 631.5 141 L 632.5 143 L 631.5 141 Z " /><path fill="rgb(254,254,254)" stroke="rgb(254,254,254)" stroke-width="1" opacity="1" d="M 882.5 141 L 883 163 L 923 163.5 L 883.5 164 L 882 162.5 L 882.5 141 Z " /><path fill="rgb(254,254,254)" stroke="rgb(254,254,254)" stroke-width="1" opacity="1" d="M 804.5 142 L 805 190.5 L 804 190.5 L 804.5 142 Z " /><path fill="rgb(254,254,254)" stroke="rgb(254,254,254)" stroke-width="1" opacity="1" d="M 584.5 143 L 585.5 145 L 584.5 143 Z " /><path fill="rgb(254,254,254)" stroke="rgb(254,254,254)" stroke-width="1" opacity="1" d="M 634.5 146 L 635.5 148 L 634.5 146 Z " /><path fill="rgb(254,254,254)" stroke="rgb(254,254,254)" stroke-width="1" opacity="1" d="M 514.5 147 L 512.5 150 L 514.5 147 Z " /><path fill="rgb(254,254,254)" stroke="rgb(254,254,254)" stroke-width="1" opacity="1" d="M 587.5 148 L 588.5 150 L 587.5 148 Z " /><path fill="rgb(254,254,254)" stroke="rgb(254,254,254)" stroke-width="1" opacity="1" d="M 638.5 153 L 639.5 155 L 638.5 153 Z " /><path fill="rgb(254,254,254)" stroke="rgb(254,254,254)" stroke-width="1" opacity="1" d="M 750.5 154 L 753 157.5 L 751 156.5 L 750.5 154 Z " /><path fill="rgb(254,254,254)" stroke="rgb(254,254,254)" stroke-width="1" opacity="1" d="M 706.5 155 L 707.5 157 L 706.5 155 Z " /><path fill="rgb(254,254,254)" stroke="rgb(254,254,254)" stroke-width="1" opacity="1" d="M 592.5 156 L 593.5 158 L 592.5 156 Z " /><path fill="rgb(254,254,254)" stroke="rgb(254,254,254)" stroke-width="1" opacity="1" d="M 517.5 157 L 520 158.5 L 518.5 158 L 517.5 157 Z " /><path fill="rgb(254,254,254)" stroke="rgb(254,254,254)" stroke-width="1" opacity="1" d="M 641.5 158 L 642.5 160 L 641.5 158 Z " /><path fill="rgb(254,254,254)" stroke="rgb(254,254,254)" stroke-width="1" opacity="1" d="M 521.5 159 L 522.5 161 L 521.5 159 Z " /><path fill="rgb(254,254,254)" stroke="rgb(254,254,254)" stroke-width="1" opacity="1" d="M 524.5 161 L 532.5 170 L 524.5 161 Z " /><path fill="rgb(254,254,254)" stroke="rgb(254,254,254)" stroke-width="1" opacity="1" d="M 595.5 161 L 596.5 163 L 595.5 161 Z " /><path fill="rgb(254,254,254)" stroke="rgb(254,254,254)" stroke-width="1" opacity="1" d="M 710.5 162 L 711.5 164 L 710.5 162 Z " /><path fill="rgb(254,254,254)" stroke="rgb(254,254,254)" stroke-width="1" opacity="1" d="M 645.5 165 L 646.5 167 L 645.5 165 Z " /><path fill="rgb(254,254,254)" stroke="rgb(254,254,254)" stroke-width="1" opacity="1" d="M 598.5 166 L 599.5 168 L 598.5 166 Z " /><path fill="rgb(254,254,254)" stroke="rgb(254,254,254)" stroke-width="1" opacity="1" d="M 600.5 169 L 601.5 171 L 600.5 169 Z " /><path fill="rgb(254,254,254)" stroke="rgb(254,254,254)" stroke-width="1" opacity="1" d="M 714.5 169 L 715.5 171 L 714.5 169 Z " /><path fill="rgb(254,254,254)" stroke="rgb(254,254,254)" stroke-width="1" opacity="1" d="M 648.5 170 L 649.5 172 L 648.5 170 Z " /><path fill="rgb(254,254,254)" stroke="rgb(254,254,254)" stroke-width="1" opacity="1" d="M 533.5 171 L 534.5 173 L 533.5 171 Z " /><path fill="rgb(254,254,254)" stroke="rgb(254,254,254)" stroke-width="1" opacity="1" d="M 494.5 173 L 495.5 175 L 494.5 173 Z " /><path fill="rgb(254,254,254)" stroke="rgb(254,254,254)" stroke-width="1" opacity="1" d="M 603.5 174 L 604.5 176 L 603.5 174 Z " /><path fill="rgb(254,254,254)" stroke="rgb(254,254,254)" stroke-width="1" opacity="1" d="M 497.5 175 L 498.5 177 L 497.5 175 Z " /><path fill="rgb(254,254,254)" stroke="rgb(254,254,254)" stroke-width="1" opacity="1" d="M 761.5 175 L 763 177.5 L 762 177.5 L 761.5 175 Z " /><path fill="rgb(254,254,254)" stroke="rgb(254,254,254)" stroke-width="1" opacity="1" d="M 718.5 176 L 719.5 178 L 718.5 176 Z " /><path fill="rgb(254,254,254)" stroke="rgb(254,254,254)" stroke-width="1" opacity="1" d="M 652.5 177 L 653.5 179 L 652.5 177 Z " /><path fill="rgb(254,254,254)" stroke="rgb(254,254,254)" stroke-width="1" opacity="1" d="M 500.5 179 L 502 181.5 L 501 181.5 L 500.5 179 Z " /><path fill="rgb(254,254,254)" stroke="rgb(254,254,254)" stroke-width="1" opacity="1" d="M 606.5 179 L 607.5 181 L 606.5 179 Z " /><path fill="rgb(254,254,254)" stroke="rgb(254,254,254)" stroke-width="1" opacity="1" d="M 655.5 182 L 656.5 184 L 655.5 182 Z " /><path fill="rgb(254,254,254)" stroke="rgb(254,254,254)" stroke-width="1" opacity="1" d="M 722.5 183 L 723.5 185 L 722.5 183 Z " /><path fill="rgb(254,254,254)" stroke="rgb(254,254,254)" stroke-width="1" opacity="1" d="M 503.5 187 L 504 191.5 L 503 191.5 L 503.5 187 Z " /><path fill="rgb(254,254,254)" stroke="rgb(254,254,254)" stroke-width="1" opacity="1" d="M 659.5 189 L 660.5 191 L 659.5 189 Z " /><path fill="rgb(254,254,254)" stroke="rgb(254,254,254)" stroke-width="1" opacity="1" d="M 540.5 190 L 541 196.5 L 540 196.5 L 540.5 190 Z " /><path fill="rgb(254,254,254)" stroke="rgb(254,254,254)" stroke-width="1" opacity="1" d="M 726.5 190 L 727.5 192 L 726.5 190 Z " /><path fill="rgb(254,254,254)" stroke="rgb(254,254,254)" stroke-width="1" opacity="1" d="M 932.5 192 L 933 194.5 L 932 194.5 L 932.5 192 Z " /><path fill="rgb(254,254,254)" stroke="rgb(254,254,254)" stroke-width="1" opacity="1" d="M 662.5 194 L 663.5 196 L 662.5 194 Z " /><path fill="rgb(254,254,254)" stroke="rgb(254,254,254)" stroke-width="1" opacity="1" d="M 501.5 197 L 500.5 199 L 501.5 197 Z " /><path fill="rgb(254,254,254)" stroke="rgb(254,254,254)" stroke-width="1" opacity="1" d="M 730.5 197 L 731.5 199 L 730.5 197 Z " /><path fill="rgb(254,254,254)" stroke="rgb(254,254,254)" stroke-width="1" opacity="1" d="M 1007.5 198 L 1006.5 200 L 1007.5 198 Z " /><path fill="rgb(254,254,254)" stroke="rgb(254,254,254)" stroke-width="1" opacity="1" d="M 665.5 199 L 666.5 201 L 665.5 199 Z " /><path fill="rgb(254,254,254)" stroke="rgb(254,254,254)" stroke-width="1" opacity="1" d="M 976.5 199 L 979.5 203 L 976.5 199 Z " /><path fill="rgb(254,254,254)" stroke="rgb(254,254,254)" stroke-width="1" opacity="1" d="M 499.5 200 L 496.5 204 L 499.5 200 Z " /><path fill="rgb(254,254,254)" stroke="rgb(254,254,254)" stroke-width="1" opacity="1" d="M 848.5 200 L 850.5 203 L 848.5 200 Z " /><path fill="rgb(254,254,254)" stroke="rgb(254,254,254)" stroke-width="1" opacity="1" d="M 1003.5 202 L 1002.5 204 L 1003.5 202 Z " /><path fill="rgb(254,254,254)" stroke="rgb(254,254,254)" stroke-width="1" opacity="1" d="M 734.5 204 L 735.5 206 L 734.5 204 Z " /><path fill="rgb(254,254,254)" stroke="rgb(254,254,254)" stroke-width="1" opacity="1" d="M 669.5 206 L 670.5 208 L 669.5 206 Z " /><path fill="rgb(254,254,254)" stroke="rgb(254,254,254)" stroke-width="1" opacity="1" d="M 923.5 207 L 924 234.5 L 923 234.5 L 923.5 207 Z " /><path fill="rgb(254,254,254)" stroke="rgb(254,254,254)" stroke-width="1" opacity="1" d="M 937.5 209 L 938.5 211 L 937.5 209 Z " /><path fill="rgb(254,254,254)" stroke="rgb(254,254,254)" stroke-width="1" opacity="1" d="M 738.5 211 L 739.5 213 L 738.5 211 Z " /><path fill="rgb(254,254,254)" stroke="rgb(254,254,254)" stroke-width="1" opacity="1" d="M 811.5 211 L 812.5 213 L 811.5 211 Z " /><path fill="rgb(254,254,254)" stroke="rgb(254,254,254)" stroke-width="1" opacity="1" d="M 622.5 213 L 623.5 215 L 622.5 213 Z " /><path fill="rgb(254,254,254)" stroke="rgb(254,254,254)" stroke-width="1" opacity="1" d="M 1043.5 213 L 1041.5 216 L 1043.5 213 Z " /><path fill="rgb(254,254,254)" stroke="rgb(254,254,254)" stroke-width="1" opacity="1" d="M 534.5 214 L 533.5 216 L 534.5 214 Z " /><path fill="rgb(254,254,254)" stroke="rgb(254,254,254)" stroke-width="1" opacity="1" d="M 813.5 214 L 815.5 217 L 813.5 214 Z " /><path fill="rgb(254,254,254)" stroke="rgb(254,254,254)" stroke-width="1" opacity="1" d="M 940.5 214 L 942.5 217 L 940.5 214 Z " /><path fill="rgb(254,254,254)" stroke="rgb(254,254,254)" stroke-width="1" opacity="1" d="M 741.5 216 L 743.5 219 L 741.5 216 Z " /><path fill="rgb(254,254,254)" stroke="rgb(254,254,254)" stroke-width="1" opacity="1" d="M 532.5 217 L 524.5 226 L 532.5 217 Z " /><path fill="rgb(254,254,254)" stroke="rgb(254,254,254)" stroke-width="1" opacity="1" d="M 1040.5 217 L 1034.5 224 L 1040.5 217 Z " /><path fill="rgb(254,254,254)" stroke="rgb(254,254,254)" stroke-width="1" opacity="1" d="M 817.5 219 L 820.5 223 L 817.5 219 Z " /><path fill="rgb(254,254,254)" stroke="rgb(254,254,254)" stroke-width="1" opacity="1" d="M 944.5 219 L 947.5 223 L 944.5 219 Z " /><path fill="rgb(254,254,254)" stroke="rgb(254,254,254)" stroke-width="1" opacity="1" d="M 744.5 220 L 750.5 227 L 744.5 220 Z " /><path fill="rgb(254,254,254)" stroke="rgb(254,254,254)" stroke-width="1" opacity="1" d="M 822.5 223 L 824.5 226 L 822.5 223 Z " /><path fill="rgb(254,254,254)" stroke="rgb(254,254,254)" stroke-width="1" opacity="1" d="M 950.5 224 L 952.5 227 L 950.5 224 Z " /><path fill="rgb(254,254,254)" stroke="rgb(254,254,254)" stroke-width="1" opacity="1" d="M 1031.5 225 L 1030.5 227 L 1031.5 225 Z " /><path fill="rgb(254,254,254)" stroke="rgb(254,254,254)" stroke-width="1" opacity="1" d="M 826.5 226 L 827.5 228 L 826.5 226 Z " /><path fill="rgb(254,254,254)" stroke="rgb(254,254,254)" stroke-width="1" opacity="1" d="M 1028.5 227 L 1027.5 229 L 1028.5 227 Z " /><path fill="rgb(254,254,254)" stroke="rgb(254,254,254)" stroke-width="1" opacity="1" d="M 519.5 228 L 518.5 230 L 519.5 228 Z " /><path fill="rgb(254,254,254)" stroke="rgb(254,254,254)" stroke-width="1" opacity="1" d="M 753.5 228 L 754.5 230 L 753.5 228 Z " /><path fill="rgb(254,254,254)" stroke="rgb(254,254,254)" stroke-width="1" opacity="1" d="M 956.5 228 L 957.5 230 L 956.5 228 Z " /><path fill="rgb(254,254,254)" stroke="rgb(254,254,254)" stroke-width="1" opacity="1" d="M 501.5 234 L 504 234.5 L 501.5 235 L 501.5 234 Z " /><path fill="rgb(254,254,254)" stroke="rgb(254,254,254)" stroke-width="1" opacity="1" d="M 769.5 234 L 772 234.5 L 769.5 235 L 769.5 234 Z " /><path fill="rgb(254,254,254)" stroke="rgb(254,254,254)" stroke-width="1" opacity="1" d="M 845.5 234 L 848 234.5 L 845.5 235 L 845.5 234 Z " /><path fill="rgb(254,254,254)" stroke="rgb(254,254,254)" stroke-width="1" opacity="1" d="M 979.5 235 L 1005 235.5 L 979.5 236 L 979.5 235 Z " /><path fill="rgb(254,254,254)" stroke="rgb(254,254,254)" stroke-width="1" opacity="1" d="M 412 252 L 459 252 L 459 345.5 L 458 345.5 L 458 253 L 413 253 L 412.5 344 L 412 252 Z " /><path fill="rgb(254,254,254)" stroke="rgb(254,254,254)" stroke-width="1" opacity="1" d="M 495.5 252 L 531.5 252 L 532 252.5 L 532 389.5 L 531 389.5 L 531 253.5 L 530.5 253 L 495 253 L 494.5 362 L 494 253.5 L 495.5 252 Z " /><path fill="rgb(254,254,254)" stroke="rgb(254,254,254)" stroke-width="1" opacity="1" d="M 549.5 252 L 587 252.5 L 549.5 253 L 549.5 252 Z " /><path fill="rgb(254,254,254)" stroke="rgb(254,254,254)" stroke-width="1" opacity="1" d="M 649 252 L 686.5 252 L 687 252.5 L 687 389.5 L 686 389.5 L 686 253.5 L 685.5 253 L 650 253 L 649.5 333 Q 646.8 331.8 649 330.5 L 649 252 Z " /><path fill="rgb(254,254,254)" stroke="rgb(254,254,254)" stroke-width="1" opacity="1" d="M 817.5 252 L 821 252.5 L 817.5 253 L 817.5 252 Z " /><path fill="rgb(254,254,254)" stroke="rgb(254,254,254)" stroke-width="1" opacity="1" d="M 852.5 252 L 856 252.5 L 852.5 253 L 852.5 252 Z " /><path fill="rgb(254,254,254)" stroke="rgb(254,254,254)" stroke-width="1" opacity="1" d="M 913 252 L 951 252.5 L 914 253 L 913.5 390 L 913 252 Z " /><path fill="rgb(254,254,254)" stroke="rgb(254,254,254)" stroke-width="1" opacity="1" d="M 1014.5 252 L 1051 252.5 L 1014.5 253 L 1014.5 252 Z " /><path fill="rgb(254,254,254)" stroke="rgb(254,254,254)" stroke-width="1" opacity="1" d="M 963.5 256 L 964.5 258 L 963.5 256 Z " /><path fill="rgb(254,254,254)" stroke="rgb(254,254,254)" stroke-width="1" opacity="1" d="M 600.5 257 L 601.5 259 L 600.5 257 Z " /><path fill="rgb(254,254,254)" stroke="rgb(254,254,254)" stroke-width="1" opacity="1" d="M 603.5 259 L 608.5 265 L 603.5 259 Z " /><path fill="rgb(254,254,254)" stroke="rgb(254,254,254)" stroke-width="1" opacity="1" d="M 794.5 259 L 793.5 261 L 794.5 259 Z " /><path fill="rgb(254,254,254)" stroke="rgb(254,254,254)" stroke-width="1" opacity="1" d="M 967.5 259 L 974.5 267 L 967.5 259 Z " /><path fill="rgb(254,254,254)" stroke="rgb(254,254,254)" stroke-width="1" opacity="1" d="M 880.5 260 L 881.5 262 L 880.5 260 Z " /><path fill="rgb(254,254,254)" stroke="rgb(254,254,254)" stroke-width="1" opacity="1" d="M 789.5 262 L 788.5 264 L 789.5 262 Z " /><path fill="rgb(254,254,254)" stroke="rgb(254,254,254)" stroke-width="1" opacity="1" d="M 883.5 262 L 884.5 264 L 883.5 262 Z " /><path fill="rgb(254,254,254)" stroke="rgb(254,254,254)" stroke-width="1" opacity="1" d="M 786.5 264 L 777.5 274 L 786.5 264 Z " /><path fill="rgb(254,254,254)" stroke="rgb(254,254,254)" stroke-width="1" opacity="1" d="M 886.5 264 L 889.5 268 L 886.5 264 Z " /><path fill="rgb(254,254,254)" stroke="rgb(254,254,254)" stroke-width="1" opacity="1" d="M 610.5 267 L 611.5 269 L 610.5 267 Z " /><path fill="rgb(254,254,254)" stroke="rgb(254,254,254)" stroke-width="1" opacity="1" d="M 975.5 268 L 976.5 270 L 975.5 268 Z " /><path fill="rgb(254,254,254)" stroke="rgb(254,254,254)" stroke-width="1" opacity="1" d="M 613.5 272 L 614.5 274 L 613.5 272 Z " /><path fill="rgb(254,254,254)" stroke="rgb(254,254,254)" stroke-width="1" opacity="1" d="M 894.5 272 L 896.5 275 L 894.5 272 Z " /><path fill="rgb(254,254,254)" stroke="rgb(254,254,254)" stroke-width="1" opacity="1" d="M 775.5 276 L 774.5 278 L 775.5 276 Z " /><path fill="rgb(254,254,254)" stroke="rgb(254,254,254)" stroke-width="1" opacity="1" d="M 897.5 276 L 898.5 278 L 897.5 276 Z " /><path fill="rgb(254,254,254)" stroke="rgb(254,254,254)" stroke-width="1" opacity="1" d="M 616.5 277 L 617.5 279 L 616.5 277 Z " /><path fill="rgb(254,254,254)" stroke="rgb(254,254,254)" stroke-width="1" opacity="1" d="M 982.5 280 L 983.5 282 L 982.5 280 Z " /><path fill="rgb(254,254,254)" stroke="rgb(254,254,254)" stroke-width="1" opacity="1" d="M 620.5 284 L 621.5 286 L 620.5 284 Z " /><path fill="rgb(254,254,254)" stroke="rgb(254,254,254)" stroke-width="1" opacity="1" d="M 823.5 284 L 822.5 286 L 823.5 284 Z " /><path fill="rgb(254,254,254)" stroke="rgb(254,254,254)" stroke-width="1" opacity="1" d="M 985.5 285 L 986.5 287 L 985.5 285 Z " /><path fill="rgb(254,254,254)" stroke="rgb(254,254,254)" stroke-width="1" opacity="1" d="M 852.5 286 L 854.5 289 L 852.5 286 Z " /><path fill="rgb(254,254,254)" stroke="rgb(254,254,254)" stroke-width="1" opacity="1" d="M 623.5 289 L 624.5 291 L 623.5 289 Z " /><path fill="rgb(254,254,254)" stroke="rgb(254,254,254)" stroke-width="1" opacity="1" d="M 988.5 290 L 989.5 292 L 988.5 290 Z " /><path fill="rgb(254,254,254)" stroke="rgb(254,254,254)" stroke-width="1" opacity="1" d="M 626.5 294 L 627.5 296 L 626.5 294 Z " /><path fill="rgb(254,254,254)" stroke="rgb(254,254,254)" stroke-width="1" opacity="1" d="M 991.5 295 L 992.5 297 L 991.5 295 Z " /><path fill="rgb(254,254,254)" stroke="rgb(254,254,254)" stroke-width="1" opacity="1" d="M 905.5 298 L 906 344.5 L 905 344.5 L 905.5 298 Z " /><path fill="rgb(254,254,254)" stroke="rgb(254,254,254)" stroke-width="1" opacity="1" d="M 629.5 299 L 630.5 301 L 629.5 299 Z " /><path fill="rgb(254,254,254)" stroke="rgb(254,254,254)" stroke-width="1" opacity="1" d="M 995.5 302 L 996.5 304 L 995.5 302 Z " /><path fill="rgb(254,254,254)" stroke="rgb(254,254,254)" stroke-width="1" opacity="1" d="M 998.5 307 L 999.5 309 L 998.5 307 Z " /><path fill="rgb(254,254,254)" stroke="rgb(254,254,254)" stroke-width="1" opacity="1" d="M 586.5 309 Q 589.3 310.3 587 311.5 L 586.5 390 L 586.5 309 Z " /><path fill="rgb(254,254,254)" stroke="rgb(254,254,254)" stroke-width="1" opacity="1" d="M 951.5 310 L 952.5 312 L 951.5 310 Z " /><path fill="rgb(254,254,254)" stroke="rgb(254,254,254)" stroke-width="1" opacity="1" d="M 636.5 311 L 637.5 313 L 636.5 311 Z " /><path fill="rgb(254,254,254)" stroke="rgb(254,254,254)" stroke-width="1" opacity="1" d="M 1001.5 312 L 1002.5 314 L 1001.5 312 Z " /><path fill="rgb(254,254,254)" stroke="rgb(254,254,254)" stroke-width="1" opacity="1" d="M 589.5 314 L 590.5 316 L 589.5 314 Z " /><path fill="rgb(254,254,254)" stroke="rgb(254,254,254)" stroke-width="1" opacity="1" d="M 954.5 315 L 955.5 317 L 954.5 315 Z " /><path fill="rgb(254,254,254)" stroke="rgb(254,254,254)" stroke-width="1" opacity="1" d="M 639.5 316 L 640.5 318 L 639.5 316 Z " /><path fill="rgb(254,254,254)" stroke="rgb(254,254,254)" stroke-width="1" opacity="1" d="M 1004.5 317 L 1005.5 319 L 1004.5 317 Z " /><path fill="rgb(254,254,254)" stroke="rgb(254,254,254)" stroke-width="1" opacity="1" d="M 592.5 319 L 593.5 321 L 592.5 319 Z " /><path fill="rgb(254,254,254)" stroke="rgb(254,254,254)" stroke-width="1" opacity="1" d="M 957.5 320 L 958.5 322 L 957.5 320 Z " /><path fill="rgb(254,254,254)" stroke="rgb(254,254,254)" stroke-width="1" opacity="1" d="M 642.5 321 L 643.5 323 L 642.5 321 Z " /><path fill="rgb(254,254,254)" stroke="rgb(254,254,254)" stroke-width="1" opacity="1" d="M 595.5 324 L 596.5 326 L 595.5 324 Z " /><path fill="rgb(254,254,254)" stroke="rgb(254,254,254)" stroke-width="1" opacity="1" d="M 960.5 325 L 961.5 327 L 960.5 325 Z " /><path fill="rgb(254,254,254)" stroke="rgb(254,254,254)" stroke-width="1" opacity="1" d="M 645.5 326 L 646.5 328 L 645.5 326 Z " /><path fill="rgb(254,254,254)" stroke="rgb(254,254,254)" stroke-width="1" opacity="1" d="M 598.5 329 L 599.5 331 L 598.5 329 Z " /><path fill="rgb(254,254,254)" stroke="rgb(254,254,254)" stroke-width="1" opacity="1" d="M 1011.5 329 L 1012.5 331 L 1011.5 329 Z " /><path fill="rgb(254,254,254)" stroke="rgb(254,254,254)" stroke-width="1" opacity="1" d="M 963.5 330 L 964.5 332 L 963.5 330 Z " /><path fill="rgb(254,254,254)" stroke="rgb(254,254,254)" stroke-width="1" opacity="1" d="M 601.5 334 L 602.5 336 L 601.5 334 Z " /><path fill="rgb(254,254,254)" stroke="rgb(254,254,254)" stroke-width="1" opacity="1" d="M 966.5 335 L 967.5 337 L 966.5 335 Z " /><path fill="rgb(254,254,254)" stroke="rgb(254,254,254)" stroke-width="1" opacity="1" d="M 604.5 339 L 605.5 341 L 604.5 339 Z " /><path fill="rgb(254,254,254)" stroke="rgb(254,254,254)" stroke-width="1" opacity="1" d="M 969.5 340 L 970.5 342 L 969.5 340 Z " /><path fill="rgb(254,254,254)" stroke="rgb(254,254,254)" stroke-width="1" opacity="1" d="M 607.5 344 L 608.5 346 L 607.5 344 Z " /><path fill="rgb(254,254,254)" stroke="rgb(254,254,254)" stroke-width="1" opacity="1" d="M 1131 344 L 1146 344.5 L 1132.5 345 L 1131.5 346 L 1131 344 Z " /><path fill="rgb(254,254,254)" stroke="rgb(254,254,254)" stroke-width="1" opacity="1" d="M 972.5 345 L 973.5 347 L 972.5 345 Z " /><path fill="rgb(254,254,254)" stroke="rgb(254,254,254)" stroke-width="1" opacity="1" d="M 1097.5 345 L 1098.5 347 L 1097.5 345 Z " /><path fill="rgb(254,254,254)" stroke="rgb(254,254,254)" stroke-width="1" opacity="1" d="M 1075.5 346 L 1071.5 351 L 1075.5 346 Z " /><path fill="rgb(254,254,254)" stroke="rgb(254,254,254)" stroke-width="1" opacity="1" d="M 768.5 348 L 769 350.5 L 768 350.5 L 768.5 348 Z " /><path fill="rgb(254,254,254)" stroke="rgb(254,254,254)" stroke-width="1" opacity="1" d="M 610.5 349 L 611.5 351 L 610.5 349 Z " /><path fill="rgb(254,254,254)" stroke="rgb(254,254,254)" stroke-width="1" opacity="1" d="M 975.5 350 L 976.5 352 L 975.5 350 Z " /><path fill="rgb(254,254,254)" stroke="rgb(254,254,254)" stroke-width="1" opacity="1" d="M 460.5 351 L 462 353.5 L 460 352.5 L 460.5 351 Z " /><path fill="rgb(254,254,254)" stroke="rgb(254,254,254)" stroke-width="1" opacity="1" d="M 817.5 352 L 822.5 358 L 817.5 352 Z " /><path fill="rgb(254,254,254)" stroke="rgb(254,254,254)" stroke-width="1" opacity="1" d="M 855.5 352 L 854.5 354 L 855.5 352 Z " /><path fill="rgb(254,254,254)" stroke="rgb(254,254,254)" stroke-width="1" opacity="1" d="M 1085.5 352 L 1089 352.5 L 1085.5 353 L 1085.5 352 Z " /><path fill="rgb(254,254,254)" stroke="rgb(254,254,254)" stroke-width="1" opacity="1" d="M 1082.5 353 L 1081 355.5 Q 1080.5 359.5 1083.5 360 L 1085 360.5 L 1083.5 361 Q 1079.5 360.5 1080 355.5 L 1082.5 353 Z " /><path fill="rgb(254,254,254)" stroke="rgb(254,254,254)" stroke-width="1" opacity="1" d="M 1096.5 353 L 1095.5 355 L 1096.5 353 Z " /><path fill="rgb(254,254,254)" stroke="rgb(254,254,254)" stroke-width="1" opacity="1" d="M 613.5 354 L 614.5 356 L 613.5 354 Z " /><path fill="rgb(254,254,254)" stroke="rgb(254,254,254)" stroke-width="1" opacity="1" d="M 1138.5 354 L 1139 355.5 L 1137.5 358 L 1137 356.5 L 1138.5 354 Z " /><path fill="rgb(254,254,254)" stroke="rgb(254,254,254)" stroke-width="1" opacity="1" d="M 462.5 355 L 465.5 359 L 462.5 355 Z " /><path fill="rgb(254,254,254)" stroke="rgb(254,254,254)" stroke-width="1" opacity="1" d="M 978.5 355 L 979.5 357 L 978.5 355 Z " /><path fill="rgb(254,254,254)" stroke="rgb(254,254,254)" stroke-width="1" opacity="1" d="M 851.5 356 L 850.5 358 L 851.5 356 Z " /><path fill="rgb(254,254,254)" stroke="rgb(254,254,254)" stroke-width="1" opacity="1" d="M 1069.5 356 L 1070 358.5 L 1069 358.5 L 1069.5 356 Z " /><path fill="rgb(254,254,254)" stroke="rgb(254,254,254)" stroke-width="1" opacity="1" d="M 616.5 359 L 617.5 361 L 616.5 359 Z " /><path fill="rgb(254,254,254)" stroke="rgb(254,254,254)" stroke-width="1" opacity="1" d="M 981.5 360 L 982.5 362 L 981.5 360 Z " /><path fill="rgb(254,254,254)" stroke="rgb(254,254,254)" stroke-width="1" opacity="1" d="M 1070.5 361 L 1072 363.5 L 1070 362.5 L 1070.5 361 Z " /><path fill="rgb(254,254,254)" stroke="rgb(254,254,254)" stroke-width="1" opacity="1" d="M 773.5 363 L 774.5 365 L 773.5 363 Z " /><path fill="rgb(254,254,254)" stroke="rgb(254,254,254)" stroke-width="1" opacity="1" d="M 1091.5 363 L 1092.5 365 L 1091.5 363 Z " /><path fill="rgb(254,254,254)" stroke="rgb(254,254,254)" stroke-width="1" opacity="1" d="M 619.5 364 L 620.5 366 L 619.5 364 Z " /><path fill="rgb(254,254,254)" stroke="rgb(254,254,254)" stroke-width="1" opacity="1" d="M 984.5 365 L 985.5 367 L 984.5 365 Z " /><path fill="rgb(254,254,254)" stroke="rgb(254,254,254)" stroke-width="1" opacity="1" d="M 419.5 366 L 420.5 368 L 419.5 366 Z " /><path fill="rgb(254,254,254)" stroke="rgb(254,254,254)" stroke-width="1" opacity="1" d="M 775.5 366 L 777.5 369 L 775.5 366 Z " /><path fill="rgb(254,254,254)" stroke="rgb(254,254,254)" stroke-width="1" opacity="1" d="M 897.5 366 L 896.5 368 L 897.5 366 Z " /><path fill="rgb(254,254,254)" stroke="rgb(254,254,254)" stroke-width="1" opacity="1" d="M 1075.5 367 L 1076.5 369 L 1075.5 367 Z " /><path fill="rgb(254,254,254)" stroke="rgb(254,254,254)" stroke-width="1" opacity="1" d="M 1097.5 368 L 1098.5 370 L 1097.5 368 Z " /><path fill="rgb(254,254,254)" stroke="rgb(254,254,254)" stroke-width="1" opacity="1" d="M 421.5 369 L 423.5 372 L 421.5 369 Z " /><path fill="rgb(254,254,254)" stroke="rgb(254,254,254)" stroke-width="1" opacity="1" d="M 622.5 369 L 624.5 372 L 622.5 369 Z " /><path fill="rgb(254,254,254)" stroke="rgb(254,254,254)" stroke-width="1" opacity="1" d="M 895.5 369 L 888.5 377 L 895.5 369 Z " /><path fill="rgb(254,254,254)" stroke="rgb(254,254,254)" stroke-width="1" opacity="1" d="M 778.5 370 L 783.5 376 L 778.5 370 Z " /><path fill="rgb(254,254,254)" stroke="rgb(254,254,254)" stroke-width="1" opacity="1" d="M 988.5 371 L 990.5 374 L 988.5 371 Z " /><path fill="rgb(254,254,254)" stroke="rgb(254,254,254)" stroke-width="1" opacity="1" d="M 1087.5 373 L 1088.5 375 L 1087.5 373 Z " /><path fill="rgb(254,254,254)" stroke="rgb(254,254,254)" stroke-width="1" opacity="1" d="M 425.5 374 L 428.5 378 L 425.5 374 Z " /><path fill="rgb(254,254,254)" stroke="rgb(254,254,254)" stroke-width="1" opacity="1" d="M 626.5 374 L 631.5 380 L 626.5 374 Z " /><path fill="rgb(254,254,254)" stroke="rgb(254,254,254)" stroke-width="1" opacity="1" d="M 786.5 377 L 788.5 380 L 786.5 377 Z " /><path fill="rgb(254,254,254)" stroke="rgb(254,254,254)" stroke-width="1" opacity="1" d="M 1108.5 377 L 1113 377.5 L 1108.5 378 L 1108.5 377 Z " /><path fill="rgb(254,254,254)" stroke="rgb(254,254,254)" stroke-width="1" opacity="1" d="M 1166.5 377 L 1171 377.5 L 1166.5 378 L 1166.5 377 Z " /><path fill="rgb(254,254,254)" stroke="rgb(254,254,254)" stroke-width="1" opacity="1" d="M 430.5 378 L 432.5 381 L 430.5 378 Z " /><path fill="rgb(254,254,254)" stroke="rgb(254,254,254)" stroke-width="1" opacity="1" d="M 885.5 378 L 884.5 380 L 885.5 378 Z " /><path fill="rgb(254,254,254)" stroke="rgb(254,254,254)" stroke-width="1" opacity="1" d="M 1106.5 378 L 1105.5 380 L 1106.5 378 Z " /><path fill="rgb(254,254,254)" stroke="rgb(254,254,254)" stroke-width="1" opacity="1" d="M 1114.5 378 L 1115.5 380 L 1114.5 378 Z " /><path fill="rgb(254,254,254)" stroke="rgb(254,254,254)" stroke-width="1" opacity="1" d="M 1172.5 378 L 1173.5 380 L 1172.5 378 Z " /><path fill="rgb(254,254,254)" stroke="rgb(254,254,254)" stroke-width="1" opacity="1" d="M 996.5 379 L 998.5 382 L 996.5 379 Z " /><path fill="rgb(254,254,254)" stroke="rgb(254,254,254)" stroke-width="1" opacity="1" d="M 790.5 380 L 791.5 382 L 790.5 380 Z " /><path fill="rgb(254,254,254)" stroke="rgb(254,254,254)" stroke-width="1" opacity="1" d="M 882.5 380 L 881.5 382 L 882.5 380 Z " /><path fill="rgb(254,254,254)" stroke="rgb(254,254,254)" stroke-width="1" opacity="1" d="M 434.5 381 L 435.5 383 L 434.5 381 Z " /><path fill="rgb(254,254,254)" stroke="rgb(254,254,254)" stroke-width="1" opacity="1" d="M 634.5 381 L 635.5 383 L 634.5 381 Z " /><path fill="rgb(254,254,254)" stroke="rgb(254,254,254)" stroke-width="1" opacity="1" d="M 1000.5 382 L 1001.5 384 L 1000.5 382 Z " /><path fill="rgb(254,254,254)" stroke="rgb(254,254,254)" stroke-width="1" opacity="1" d="M 1162.5 382 L 1163 385.5 L 1162 385.5 L 1162.5 382 Z " /><path fill="rgb(254,254,254)" stroke="rgb(254,254,254)" stroke-width="1" opacity="1" d="M 1097.5 384 L 1095.5 387 L 1097.5 384 Z " /><path fill="rgb(254,254,254)" stroke="rgb(254,254,254)" stroke-width="1" opacity="1" d="M 1104.5 385 L 1106 387.5 L 1104 386.5 L 1104.5 385 Z " /><path fill="rgb(254,254,254)" stroke="rgb(254,254,254)" stroke-width="1" opacity="1" d="M 1115.5 387 L 1113.5 390 L 1115.5 387 Z " /><path fill="rgb(254,254,254)" stroke="rgb(254,254,254)" stroke-width="1" opacity="1" d="M 1118.5 387 L 1119 389 L 1128.5 389 L 1129.5 388 L 1128.5 390 L 1118.5 390 L 1118.5 387 Z " /><path fill="rgb(254,254,254)" stroke="rgb(254,254,254)" stroke-width="1" opacity="1" d="M 1147.5 387 L 1148 389 L 1160 389.5 L 1148.5 390 L 1147.5 387 Z " /><path fill="rgb(254,254,254)" stroke="rgb(254,254,254)" stroke-width="1" opacity="1" d="M 1163.5 387 L 1165.5 390 L 1163.5 387 Z " /><path fill="rgb(254,254,254)" stroke="rgb(254,254,254)" stroke-width="1" opacity="1" d="M 454.5 389 L 457 389.5 L 454.5 390 L 454.5 389 Z " /><path fill="rgb(254,254,254)" stroke="rgb(254,254,254)" stroke-width="1" opacity="1" d="M 653.5 389 L 657 389.5 L 653.5 390 L 653.5 389 Z " /><path fill="rgb(254,254,254)" stroke="rgb(254,254,254)" stroke-width="1" opacity="1" d="M 1017.5 389 L 1020 389.5 L 1017.5 390 L 1017.5 389 Z " /><path fill="rgb(254,254,254)" stroke="rgb(254,254,254)" stroke-width="1" opacity="1" d="M 821.5 390 L 852 390.5 L 821.5 391 L 821.5 390 Z " /><path fill="rgb(1,63,119)" stroke="rgb(1,63,119)" stroke-width="1" opacity="1" d="M 781.5 98 L 794.5 98 L 795 98.5 L 795 234 L 769.5 234 L 764.5 233 Q 751.3 228.7 744 218.5 L 704.5 151 L 704 234 L 634.5 234 L 634 232.5 L 621 207 L 592 207 L 592 185 L 611 184.5 L 578 130 L 576 130.5 L 576 233.5 L 575.5 234 L 550 234 L 550 99.5 L 550.5 99 L 591.5 99 L 603.5 102 L 612 108.5 L 672.5 213 L 673 99 L 711.5 99 Q 721.9 102 727 110.5 L 763.5 180 L 764 99 L 780.5 99 L 781.5 98 Z " /><path fill="rgb(1,63,119)" stroke="rgb(1,63,119)" stroke-width="1" opacity="1" d="M 414 99 L 492.5 99 Q 505.3 101.7 512 110.5 L 518 120.5 L 519 135.5 Q 516.3 146.8 508.5 153 L 507 153.5 L 522.5 161 L 533 171.5 L 539 184.5 L 540 196.5 L 536 210.5 Q 531.1 220.1 522.5 226 Q 514.7 231.7 503.5 234 L 468 234 L 468 208 L 488.5 208 Q 496.8 206.3 501 200.5 Q 505.8 195.3 504 183.5 L 495.5 173 L 486.5 170 L 468 170 L 468 147 L 475.5 147 Q 482.9 145.9 486 140.5 L 487 131.5 Q 485.8 125.8 481.5 123 L 477.5 121 L 458 121 L 458 234 L 414 234 L 414 99 Z " /><path fill="rgb(1,63,119)" stroke="rgb(1,63,119)" stroke-width="1" opacity="1" d="M 845.5 99 L 882.5 99 Q 900.1 102.9 910 114.5 Q 917.6 122.4 921 134.5 L 922 138.5 L 922 163 L 883 163 L 883 138.5 Q 880.8 131.8 875.5 128 Q 870 123 857.5 125 Q 850.8 127.3 847 132.5 L 844 139.5 L 844 193.5 L 850.5 204 L 859.5 208 L 923 208 L 923 234 L 846.5 234 Q 826.5 230 816 216.5 L 809 205.5 L 805 190.5 L 805 142.5 L 807 132.5 L 811 123.5 L 823.5 109 L 837.5 101 L 845.5 99 Z " /><path fill="rgb(1,63,119)" stroke="rgb(1,63,119)" stroke-width="1" opacity="1" d="M 973.5 99 L 1009.5 99 L 1014.5 100 Q 1030.7 104.8 1040 116.5 Q 1047.2 124.8 1050 137.5 L 1050 195.5 Q 1045.6 215.1 1031.5 225 Q 1023.4 231.4 1011.5 234 Q 1006 232.5 1004.5 235 L 979.5 235 L 964.5 232 Q 952.2 226.8 944 217.5 Q 935.9 208.6 933 194.5 L 933 139.5 Q 936.3 121.8 947.5 112 Q 957.1 102.1 973.5 99 Z M 985 127 L 979 130 Q 973 134 972 142 L 972 192 L 975 200 Q 979 206 988 207 Q 998 208 1004 204 Q 1009 201 1011 194 L 1011 140 L 1008 134 L 1000 127 L 985 127 Z " /><path fill="rgb(1,63,119)" stroke="rgb(1,63,119)" stroke-width="1" opacity="1" d="M 413 253 L 458 253 L 458 348.5 Q 459.9 356.2 465.5 360 L 472.5 363 L 495 363 L 495 253.5 L 495.5 253 L 531 253 L 531 389 L 454.5 389 Q 434.5 385 424 371.5 L 416 357.5 L 413 343.5 L 413 253 Z " /><path fill="rgb(1,63,119)" stroke="rgb(1,63,119)" stroke-width="1" opacity="1" d="M 550 253 L 586.5 253 L 591.5 254 Q 602.8 257.8 609 266.5 L 649.5 335 L 650 253 L 685.5 253 L 686 253.5 L 686 389 L 654.5 389 L 649.5 388 Q 633.5 383.5 625 371.5 L 586.5 307 L 586 389 L 550.5 389 L 550 388.5 L 550 253 Z " /><path fill="rgb(1,63,119)" stroke="rgb(1,63,119)" stroke-width="1" opacity="1" d="M 704 253 L 750 253 L 750 390 L 704 390 L 704 253 Z " /><path fill="rgb(1,63,119)" stroke="rgb(1,63,119)" stroke-width="1" opacity="1" d="M 817.5 253 L 855.5 253 L 865.5 255 Q 883.3 260.3 894 272.5 L 902 285.5 L 905 298.5 L 905 344.5 Q 901.4 366.4 886.5 377 L 877.5 383 L 859.5 389 Q 853.2 387.3 851.5 390 L 822.5 390 L 802.5 386 Q 787.3 380.2 778 368.5 Q 771.5 361 769 349.5 L 769 293.5 Q 773.7 274.7 787.5 265 L 801.5 257 L 817.5 253 Z M 830 281 L 820 286 Q 815 290 814 297 L 814 347 L 816 353 L 825 360 L 833 362 L 842 362 L 851 359 Q 857 355 859 348 L 859 296 L 856 289 Q 852 283 844 281 L 830 281 Z " /><path fill="rgb(1,63,119)" stroke="rgb(1,63,119)" stroke-width="1" opacity="1" d="M 914 253 L 949.5 253 Q 950.8 255.2 955.5 254 Q 967.4 258.1 974 267.5 L 1014.5 335 L 1015 253 L 1049.5 253 L 1050 253.5 L 1050 389 L 1017.5 389 L 1013.5 388 Q 999.8 384.2 992 374.5 L 950.5 307 L 950 389 L 914.5 389 L 914 388.5 L 914 253 Z " /><path fill="rgb(1,63,119)" stroke="rgb(1,63,119)" stroke-width="1" opacity="1" d="M 286.5 281 L 298 303.5 L 305 323.5 L 309 340.5 L 311 356.5 L 309.5 356 L 293.5 352 L 265.5 339 Q 242.8 326.2 226 307.5 L 247.5 295 Q 265.5 286.5 286.5 281 Z " /><path fill="rgb(1,63,119)" stroke="rgb(1,63,119)" stroke-width="1" opacity="1" d="M 1086.5 344 L 1097 346 L 1095.5 354 Q 1091.5 350.5 1082.5 352 Q 1079 353 1080 358.5 L 1097 368.5 Q 1100.8 371.7 1099 380.5 L 1094.5 386 Q 1088.7 391.2 1075.5 389 L 1070 386.5 L 1072.5 380 Q 1076.9 383.1 1085.5 382 L 1090 378.5 Q 1091 373 1087.5 372 L 1075.5 367 L 1072 363.5 L 1070 356.5 Q 1071.5 350 1076.5 347 L 1086.5 344 Z " /><path fill="rgb(1,63,119)" stroke="rgb(1,63,119)" stroke-width="1" opacity="1" d="M 1132 345 L 1144.5 345 L 1145 346.5 L 1158 389 L 1149.5 389 L 1148 387.5 L 1146 378.5 L 1144.5 377 L 1132.5 377 L 1131 378.5 L 1129 389 L 1119 388.5 L 1132 345 Z M 1139 352 L 1137 354 L 1135 365 L 1133 369 L 1134 371 L 1144 371 L 1139 352 Z " /><path fill="rgb(1,63,119)" stroke="rgb(1,63,119)" stroke-width="1" opacity="1" d="M 1109.5 378 L 1115 380.5 L 1116 385.5 Q 1114.8 390.3 1107.5 389 Q 1104.4 387.6 1105 382.5 L 1107.5 379 L 1109.5 378 Z " /><path fill="rgb(1,63,119)" stroke="rgb(1,63,119)" stroke-width="1" opacity="1" d="M 1167.5 378 Q 1172.3 378.3 1174 381.5 Q 1174.8 387.3 1171.5 389 Q 1165.3 390.3 1164 386.5 L 1163 382.5 L 1165.5 379 L 1167.5 378 Z " /><path fill="rgb(255,255,255)" stroke="rgb(255,255,255)" stroke-width="1" opacity="1" d="M 0 0 L 1242 0 L 1242 506 L 0 506 L 0 0 Z M 93 97 L 93 390 L 386 390 L 386 97 L 93 97 Z M 785 97 L 784 98 L 763 98 L 763 176 L 727 109 Q 722 101 713 98 L 672 98 L 672 209 L 631 141 L 615 111 Q 609 102 598 99 Q 593 100 592 98 L 549 98 L 549 235 L 550 235 L 577 235 L 578 132 L 609 184 L 591 184 L 591 208 L 620 208 L 633 234 L 634 235 L 705 235 L 706 154 L 744 221 Q 750 229 761 233 L 770 235 L 796 235 L 796 98 L 796 97 L 785 97 Z M 413 98 L 413 235 L 459 235 L 459 122 L 477 122 L 481 124 L 486 132 L 485 140 Q 482 144 476 146 L 467 146 L 467 171 L 487 171 L 497 175 L 503 185 Q 505 195 500 200 Q 496 205 489 207 L 467 207 L 467 235 L 504 235 Q 516 233 525 226 L 535 215 L 540 203 Q 539 198 541 197 L 540 185 L 533 170 Q 525 158 509 154 Q 517 147 520 136 L 519 121 L 513 110 Q 506 101 493 98 L 413 98 Z M 845 98 Q 830 101 822 109 L 809 125 L 805 136 Q 807 141 804 143 L 804 191 Q 806 192 805 197 Q 809 211 817 220 Q 828 231 846 235 L 924 235 L 924 207 L 860 207 L 853 204 Q 847 200 845 194 L 845 140 L 848 134 Q 852 128 859 126 Q 868 125 874 128 Q 880 132 882 140 L 882 163 L 884 164 L 923 164 L 923 139 Q 921 126 914 118 Q 905 106 891 100 L 883 98 L 845 98 Z M 974 98 Q 960 100 952 107 Q 937 118 932 139 L 932 195 Q 935 210 944 220 Q 951 227 962 232 L 980 236 L 1005 236 Q 1006 234 1012 235 Q 1026 232 1035 224 Q 1047 214 1051 197 L 1051 138 Q 1048 123 1039 114 Q 1029 102 1011 98 L 974 98 Z M 412 252 L 412 344 L 415 359 L 425 375 Q 436 386 455 390 L 532 390 L 532 253 L 532 252 L 496 252 L 494 254 L 494 362 L 474 362 L 468 360 Q 462 356 459 349 L 459 252 L 412 252 Z M 549 252 L 549 390 L 550 390 L 587 390 L 588 311 L 626 375 Q 633 384 646 388 L 654 390 L 687 390 L 687 253 L 687 252 L 649 252 L 649 331 L 609 265 Q 603 256 592 253 L 587 252 L 549 252 Z M 818 252 L 799 257 L 787 264 Q 773 274 768 293 L 768 351 Q 771 363 778 371 Q 786 381 800 386 L 809 389 L 821 390 L 822 391 L 852 391 L 853 390 L 865 389 Q 879 385 889 377 L 900 364 L 904 355 L 906 345 L 906 299 L 903 286 L 897 275 Q 887 261 870 255 L 856 252 L 818 252 Z M 913 252 L 913 390 L 914 390 L 951 390 L 952 311 L 992 377 L 1002 384 L 1010 388 L 1018 390 L 1051 390 L 1051 253 L 1051 252 L 1014 252 L 1014 332 L 975 267 L 964 256 L 956 253 L 951 252 L 913 252 Z M 704 253 L 704 390 L 750 390 L 750 253 L 704 253 Z M 1080 344 L 1076 346 Q 1070 349 1069 357 Q 1069 363 1072 366 L 1089 376 L 1088 380 L 1086 381 Q 1076 382 1072 378 L 1069 388 L 1076 390 Q 1089 392 1096 387 L 1100 381 Q 1102 373 1099 370 L 1092 363 Q 1084 362 1081 358 Q 1081 354 1084 353 Q 1092 352 1096 355 L 1099 347 L 1095 344 L 1080 344 Z M 1131 344 L 1131 348 L 1118 388 L 1119 390 L 1129 390 L 1132 382 L 1133 378 L 1144 378 L 1149 390 L 1160 390 L 1146 347 L 1146 344 L 1131 344 Z M 1109 377 L 1107 378 Q 1103 380 1104 387 Q 1106 392 1114 390 L 1117 386 L 1116 380 Q 1114 376 1109 377 Z M 1167 377 L 1164 378 L 1162 383 Q 1161 389 1166 390 Q 1172 391 1174 389 L 1175 387 L 1174 380 Q 1172 376 1167 377 Z " /><path fill="rgb(255,255,255)" stroke="rgb(255,255,255)" stroke-width="1" opacity="1" d="M 984.5 128 Q 1003.1 124.9 1008 135.5 L 1010 140.5 L 1010 192.5 L 1004.5 202 Q 999.2 207.2 987.5 206 Q 978.6 204.4 975 197.5 L 973 191.5 L 973 141.5 Q 974.9 133.8 980.5 130 L 984.5 128 Z " /><path fill="rgb(255,255,255)" stroke="rgb(255,255,255)" stroke-width="1" opacity="1" d="M 830.5 282 Q 849.8 279.8 856 290.5 L 858 295.5 L 858 346.5 L 852.5 356 L 845.5 360 L 832.5 361 Q 821.6 359.4 817 351.5 L 815 346.5 L 815 296.5 Q 816.5 289.6 821.5 286 L 830.5 282 Z " /><path fill="rgb(255,255,255)" stroke="rgb(255,255,255)" stroke-width="1" opacity="1" d="M 1138.5 356 L 1142 370 L 1134 369.5 L 1138.5 356 Z " /><path fill="rgb(7,162,221)" stroke="rgb(7,162,221)" stroke-width="1" opacity="1" d="M 210.5 98 L 386 98 L 386 278.5 L 384.5 278 L 367.5 276 L 366.5 275 L 356.5 275 L 355.5 274 L 328.5 274 L 327.5 275 L 308.5 276 L 286 281 Q 271.8 254.4 249.5 235 Q 221.6 208.6 181 196 L 182 169.5 L 186 149.5 Q 194.3 119.8 210.5 98 Z " /><path fill="rgb(7,162,221)" stroke="rgb(7,162,221)" stroke-width="1" opacity="1" d="M 549.5 98 L 550 233.5 L 549 233.5 L 549.5 98 Z " /><path fill="rgb(7,162,221)" stroke="rgb(7,162,221)" stroke-width="1" opacity="1" d="M 584.5 98 L 589 98.5 L 584.5 99 L 584.5 98 Z " /><path fill="rgb(7,162,221)" stroke="rgb(7,162,221)" stroke-width="1" opacity="1" d="M 846.5 98 L 849 98.5 L 846.5 99 L 846.5 98 Z " /><path fill="rgb(7,162,221)" stroke="rgb(7,162,221)" stroke-width="1" opacity="1" d="M 878.5 98 L 881 98.5 L 878.5 99 L 878.5 98 Z " /><path fill="rgb(7,162,221)" stroke="rgb(7,162,221)" stroke-width="1" opacity="1" d="M 975.5 98 L 979 98.5 L 975.5 99 L 975.5 98 Z " /><path fill="rgb(7,162,221)" stroke="rgb(7,162,221)" stroke-width="1" opacity="1" d="M 1005.5 98 L 1008 98.5 L 1005.5 99 L 1005.5 98 Z " /><path fill="rgb(7,162,221)" stroke="rgb(7,162,221)" stroke-width="1" opacity="1" d="M 718.5 101 L 719.5 103 L 718.5 101 Z " /><path fill="rgb(7,162,221)" stroke="rgb(7,162,221)" stroke-width="1" opacity="1" d="M 507.5 105 L 512.5 111 L 507.5 105 Z " /><path fill="rgb(7,162,221)" stroke="rgb(7,162,221)" stroke-width="1" opacity="1" d="M 609.5 105 L 611.5 108 L 609.5 105 Z " /><path fill="rgb(7,162,221)" stroke="rgb(7,162,221)" stroke-width="1" opacity="1" d="M 725.5 108 L 726.5 110 L 725.5 108 Z " /><path fill="rgb(7,162,221)" stroke="rgb(7,162,221)" stroke-width="1" opacity="1" d="M 823.5 108 L 822.5 110 L 823.5 108 Z " /><path fill="rgb(7,162,221)" stroke="rgb(7,162,221)" stroke-width="1" opacity="1" d="M 1033.5 109 L 1039.5 116 L 1033.5 109 Z " /><path fill="rgb(7,162,221)" stroke="rgb(7,162,221)" stroke-width="1" opacity="1" d="M 906.5 110 L 910.5 115 L 906.5 110 Z " /><path fill="rgb(7,162,221)" stroke="rgb(7,162,221)" stroke-width="1" opacity="1" d="M 946.5 112 L 945.5 114 L 946.5 112 Z " /><path fill="rgb(7,162,221)" stroke="rgb(7,162,221)" stroke-width="1" opacity="1" d="M 816.5 115 L 814.5 118 L 816.5 115 Z " /><path fill="rgb(7,162,221)" stroke="rgb(7,162,221)" stroke-width="1" opacity="1" d="M 458.5 121 L 476 121.5 L 458.5 122 L 458.5 121 Z " /><path fill="rgb(7,162,221)" stroke="rgb(7,162,221)" stroke-width="1" opacity="1" d="M 519.5 126 L 520 133.5 L 519 133.5 L 519.5 126 Z " /><path fill="rgb(7,162,221)" stroke="rgb(7,162,221)" stroke-width="1" opacity="1" d="M 980.5 129 L 979.5 131 L 980.5 129 Z " /><path fill="rgb(7,162,221)" stroke="rgb(7,162,221)" stroke-width="1" opacity="1" d="M 486.5 132 L 487 136.5 L 486 136.5 L 486.5 132 Z " /><path fill="rgb(7,162,221)" stroke="rgb(7,162,221)" stroke-width="1" opacity="1" d="M 1050.5 139 L 1051 141.5 L 1050 141.5 L 1050.5 139 Z " /><path fill="rgb(7,162,221)" stroke="rgb(7,162,221)" stroke-width="1" opacity="1" d="M 844.5 140 L 845 191.5 L 844 191.5 L 844.5 140 Z " /><path fill="rgb(7,162,221)" stroke="rgb(7,162,221)" stroke-width="1" opacity="1" d="M 922.5 140 L 923 143.5 L 922 143.5 L 922.5 140 Z " /><path fill="rgb(7,162,221)" stroke="rgb(7,162,221)" stroke-width="1" opacity="1" d="M 932.5 141 L 933 191.5 L 932 191.5 L 932.5 141 Z " /><path fill="rgb(7,162,221)" stroke="rgb(7,162,221)" stroke-width="1" opacity="1" d="M 1010.5 141 L 1011 191.5 L 1010 191.5 L 1010.5 141 Z " /><path fill="rgb(7,162,221)" stroke="rgb(7,162,221)" stroke-width="1" opacity="1" d="M 467.5 146 L 468 170.5 L 467 170.5 L 467.5 146 Z " /><path fill="rgb(7,162,221)" stroke="rgb(7,162,221)" stroke-width="1" opacity="1" d="M 511.5 150 L 509.5 153 L 511.5 150 Z " /><path fill="rgb(7,162,221)" stroke="rgb(7,162,221)" stroke-width="1" opacity="1" d="M 704 152 L 706 152.5 L 705 153.5 L 704.5 235 L 704 152 Z " /><path fill="rgb(7,162,221)" stroke="rgb(7,162,221)" stroke-width="1" opacity="1" d="M 531.5 169 L 532.5 171 L 531.5 169 Z " /><path fill="rgb(7,162,221)" stroke="rgb(7,162,221)" stroke-width="1" opacity="1" d="M 499.5 177 L 500.5 179 L 499.5 177 Z " /><path fill="rgb(7,162,221)" stroke="rgb(7,162,221)" stroke-width="1" opacity="1" d="M 609.5 183 L 610 185 L 591 184.5 L 608.5 184 L 609.5 183 Z " /><path fill="rgb(7,162,221)" stroke="rgb(7,162,221)" stroke-width="1" opacity="1" d="M 1050.5 191 L 1051 194.5 L 1050 194.5 L 1050.5 191 Z " /><path fill="rgb(7,162,221)" stroke="rgb(7,162,221)" stroke-width="1" opacity="1" d="M 1006.5 200 L 1004.5 203 L 1006.5 200 Z " /><path fill="rgb(7,162,221)" stroke="rgb(7,162,221)" stroke-width="1" opacity="1" d="M 181.5 202 L 182 208.5 L 181 208.5 L 181.5 202 Z " /><path fill="rgb(7,162,221)" stroke="rgb(7,162,221)" stroke-width="1" opacity="1" d="M 467 207 L 487 207.5 L 468 208 L 467.5 235 L 467 207 Z " /><path fill="rgb(7,162,221)" stroke="rgb(7,162,221)" stroke-width="1" opacity="1" d="M 592.5 207 L 619.5 207 L 621 208.5 L 619.5 208 L 592.5 208 L 592.5 207 Z " /><path fill="rgb(7,162,221)" stroke="rgb(7,162,221)" stroke-width="1" opacity="1" d="M 860.5 207 L 923 207.5 L 860.5 208 L 860.5 207 Z " /><path fill="rgb(7,162,221)" stroke="rgb(7,162,221)" stroke-width="1" opacity="1" d="M 671.5 210 L 672.5 212 L 671.5 210 Z " /><path fill="rgb(7,162,221)" stroke="rgb(7,162,221)" stroke-width="1" opacity="1" d="M 182.5 214 L 183 217.5 L 182 217.5 L 182.5 214 Z " /><path fill="rgb(7,162,221)" stroke="rgb(7,162,221)" stroke-width="1" opacity="1" d="M 1040.5 216 L 1039.5 218 L 1040.5 216 Z " /><path fill="rgb(7,162,221)" stroke="rgb(7,162,221)" stroke-width="1" opacity="1" d="M 816.5 217 L 821.5 223 L 816.5 217 Z " /><path fill="rgb(7,162,221)" stroke="rgb(7,162,221)" stroke-width="1" opacity="1" d="M 943.5 217 L 949.5 224 L 943.5 217 Z " /><path fill="rgb(7,162,221)" stroke="rgb(7,162,221)" stroke-width="1" opacity="1" d="M 1033.5 223 L 1032.5 225 L 1033.5 223 Z " /><path fill="rgb(7,162,221)" stroke="rgb(7,162,221)" stroke-width="1" opacity="1" d="M 523.5 225 L 522.5 227 L 523.5 225 Z " /><path fill="rgb(7,162,221)" stroke="rgb(7,162,221)" stroke-width="1" opacity="1" d="M 751.5 226 L 752.5 228 L 751.5 226 Z " /><path fill="rgb(7,162,221)" stroke="rgb(7,162,221)" stroke-width="1" opacity="1" d="M 413.5 234 L 458 234.5 L 413.5 235 L 413.5 234 Z " /><path fill="rgb(7,162,221)" stroke="rgb(7,162,221)" stroke-width="1" opacity="1" d="M 495.5 234 L 501 234.5 L 495.5 235 L 495.5 234 Z " /><path fill="rgb(7,162,221)" stroke="rgb(7,162,221)" stroke-width="1" opacity="1" d="M 772.5 234 L 795 234.5 L 772.5 235 L 772.5 234 Z " /><path fill="rgb(7,162,221)" stroke="rgb(7,162,221)" stroke-width="1" opacity="1" d="M 848.5 234 L 852 234.5 L 848.5 235 L 848.5 234 Z " /><path fill="rgb(7,162,221)" stroke="rgb(7,162,221)" stroke-width="1" opacity="1" d="M 973.5 234 L 976 234.5 L 973.5 235 L 973.5 234 Z " /><path fill="rgb(7,162,221)" stroke="rgb(7,162,221)" stroke-width="1" opacity="1" d="M 821.5 252 L 852 252.5 L 821.5 253 L 821.5 252 Z " /><path fill="rgb(7,162,221)" stroke="rgb(7,162,221)" stroke-width="1" opacity="1" d="M 549.5 253 L 550 389 L 586 389.5 L 550.5 390 L 549 388.5 L 549.5 253 Z " /><path fill="rgb(7,162,221)" stroke="rgb(7,162,221)" stroke-width="1" opacity="1" d="M 1050.5 253 L 1051 389.5 L 1050 389.5 L 1050.5 253 Z " /><path fill="rgb(7,162,221)" stroke="rgb(7,162,221)" stroke-width="1" opacity="1" d="M 787.5 264 L 786.5 266 L 787.5 264 Z " /><path fill="rgb(7,162,221)" stroke="rgb(7,162,221)" stroke-width="1" opacity="1" d="M 608.5 265 L 609.5 267 L 608.5 265 Z " /><path fill="rgb(7,162,221)" stroke="rgb(7,162,221)" stroke-width="1" opacity="1" d="M 890.5 268 L 893.5 272 L 890.5 268 Z " /><path fill="rgb(7,162,221)" stroke="rgb(7,162,221)" stroke-width="1" opacity="1" d="M 777.5 274 L 776.5 276 L 777.5 274 Z " /><path fill="rgb(7,162,221)" stroke="rgb(7,162,221)" stroke-width="1" opacity="1" d="M 831.5 281 L 842 281.5 L 831.5 282 L 831.5 281 Z " /><path fill="rgb(7,162,221)" stroke="rgb(7,162,221)" stroke-width="1" opacity="1" d="M 206.5 282 L 207.5 284 L 206.5 282 Z " /><path fill="rgb(7,162,221)" stroke="rgb(7,162,221)" stroke-width="1" opacity="1" d="M 208.5 285 L 209.5 287 L 208.5 285 Z " /><path fill="rgb(7,162,221)" stroke="rgb(7,162,221)" stroke-width="1" opacity="1" d="M 821.5 285 L 820.5 287 L 821.5 285 Z " /><path fill="rgb(7,162,221)" stroke="rgb(7,162,221)" stroke-width="1" opacity="1" d="M 210.5 288 L 211.5 290 L 210.5 288 Z " /><path fill="rgb(7,162,221)" stroke="rgb(7,162,221)" stroke-width="1" opacity="1" d="M 818.5 288 L 817.5 290 L 818.5 288 Z " /><path fill="rgb(7,162,221)" stroke="rgb(7,162,221)" stroke-width="1" opacity="1" d="M 212.5 291 L 214.5 294 L 212.5 291 Z " /><path fill="rgb(7,162,221)" stroke="rgb(7,162,221)" stroke-width="1" opacity="1" d="M 768.5 294 L 769 296.5 L 768 296.5 L 768.5 294 Z " /><path fill="rgb(7,162,221)" stroke="rgb(7,162,221)" stroke-width="1" opacity="1" d="M 216.5 296 L 217.5 298 L 216.5 296 Z " /><path fill="rgb(7,162,221)" stroke="rgb(7,162,221)" stroke-width="1" opacity="1" d="M 858.5 296 L 859 345.5 L 858 345.5 L 858.5 296 Z " /><path fill="rgb(7,162,221)" stroke="rgb(7,162,221)" stroke-width="1" opacity="1" d="M 219.5 300 L 222.5 304 L 219.5 300 Z " /><path fill="rgb(7,162,221)" stroke="rgb(7,162,221)" stroke-width="1" opacity="1" d="M 950.5 308 Q 953.2 309.3 951 310.5 L 950.5 390 L 950.5 308 Z " /><path fill="rgb(7,162,221)" stroke="rgb(7,162,221)" stroke-width="1" opacity="1" d="M 768.5 345 L 769 347.5 L 768 347.5 L 768.5 345 Z " /><path fill="rgb(7,162,221)" stroke="rgb(7,162,221)" stroke-width="1" opacity="1" d="M 413.5 347 L 414 349.5 L 413 349.5 L 413.5 347 Z " /><path fill="rgb(7,162,221)" stroke="rgb(7,162,221)" stroke-width="1" opacity="1" d="M 904.5 347 L 905 349.5 L 904 349.5 L 904.5 347 Z " /><path fill="rgb(7,162,221)" stroke="rgb(7,162,221)" stroke-width="1" opacity="1" d="M 1138.5 353 L 1138 354.5 L 1137.5 356 L 1137 354.5 L 1138.5 353 Z " /><path fill="rgb(7,162,221)" stroke="rgb(7,162,221)" stroke-width="1" opacity="1" d="M 818.5 354 L 819.5 356 L 818.5 354 Z " /><path fill="rgb(7,162,221)" stroke="rgb(7,162,221)" stroke-width="1" opacity="1" d="M 854.5 354 L 852.5 357 L 854.5 354 Z " /><path fill="rgb(7,162,221)" stroke="rgb(7,162,221)" stroke-width="1" opacity="1" d="M 475.5 362 L 495 362.5 L 475.5 363 L 475.5 362 Z " /><path fill="rgb(7,162,221)" stroke="rgb(7,162,221)" stroke-width="1" opacity="1" d="M 1072.5 364 L 1074.5 367 L 1072.5 364 Z " /><path fill="rgb(7,162,221)" stroke="rgb(7,162,221)" stroke-width="1" opacity="1" d="M 1095.5 366 L 1096.5 368 L 1095.5 366 Z " /><path fill="rgb(7,162,221)" stroke="rgb(7,162,221)" stroke-width="1" opacity="1" d="M 987.5 369 L 988.5 371 L 987.5 369 Z " /><path fill="rgb(7,162,221)" stroke="rgb(7,162,221)" stroke-width="1" opacity="1" d="M 424.5 372 L 429.5 378 L 424.5 372 Z " /><path fill="rgb(7,162,221)" stroke="rgb(7,162,221)" stroke-width="1" opacity="1" d="M 625.5 372 L 627.5 375 L 625.5 372 Z " /><path fill="rgb(7,162,221)" stroke="rgb(7,162,221)" stroke-width="1" opacity="1" d="M 991.5 374 L 995.5 379 L 991.5 374 Z " /><path fill="rgb(7,162,221)" stroke="rgb(7,162,221)" stroke-width="1" opacity="1" d="M 784.5 375 L 785.5 377 L 784.5 375 Z " /><path fill="rgb(7,162,221)" stroke="rgb(7,162,221)" stroke-width="1" opacity="1" d="M 1089.5 375 L 1090 377.5 L 1089 377.5 L 1089.5 375 Z " /><path fill="rgb(7,162,221)" stroke="rgb(7,162,221)" stroke-width="1" opacity="1" d="M 887.5 376 L 886.5 378 L 887.5 376 Z " /><path fill="rgb(7,162,221)" stroke="rgb(7,162,221)" stroke-width="1" opacity="1" d="M 631.5 378 L 633.5 381 L 631.5 378 Z " /><path fill="rgb(7,162,221)" stroke="rgb(7,162,221)" stroke-width="1" opacity="1" d="M 1165.5 378 L 1164.5 380 L 1165.5 378 Z " /><path fill="rgb(7,162,221)" stroke="rgb(7,162,221)" stroke-width="1" opacity="1" d="M 1088.5 379 L 1087.5 381 L 1088.5 379 Z " /><path fill="rgb(7,162,221)" stroke="rgb(7,162,221)" stroke-width="1" opacity="1" d="M 1079.5 381 L 1085 381.5 L 1079.5 382 L 1079.5 381 Z " /><path fill="rgb(7,162,221)" stroke="rgb(7,162,221)" stroke-width="1" opacity="1" d="M 1174.5 382 L 1175 385.5 L 1174 385.5 L 1174.5 382 Z " /><path fill="rgb(7,162,221)" stroke="rgb(7,162,221)" stroke-width="1" opacity="1" d="M 1095.5 385 L 1094.5 387 L 1095.5 385 Z " /><path fill="rgb(7,162,221)" stroke="rgb(7,162,221)" stroke-width="1" opacity="1" d="M 1069.5 386 L 1070.5 388 L 1069.5 386 Z " /><path fill="rgb(7,162,221)" stroke="rgb(7,162,221)" stroke-width="1" opacity="1" d="M 1173.5 387 L 1172.5 389 L 1173.5 387 Z " /><path fill="rgb(7,162,221)" stroke="rgb(7,162,221)" stroke-width="1" opacity="1" d="M 457.5 389 L 531 389.5 L 457.5 390 L 457.5 389 Z " /><path fill="rgb(7,162,221)" stroke="rgb(7,162,221)" stroke-width="1" opacity="1" d="M 657.5 389 L 686 389.5 L 657.5 390 L 657.5 389 Z " /><path fill="rgb(7,162,221)" stroke="rgb(7,162,221)" stroke-width="1" opacity="1" d="M 815.5 389 L 818 389.5 L 815.5 390 L 815.5 389 Z " /><path fill="rgb(7,162,221)" stroke="rgb(7,162,221)" stroke-width="1" opacity="1" d="M 855.5 389 L 858 389.5 L 855.5 390 L 855.5 389 Z " /><path fill="rgb(7,162,221)" stroke="rgb(7,162,221)" stroke-width="1" opacity="1" d="M 1020.5 389 L 1023 389.5 L 1020.5 390 L 1020.5 389 Z " /></svg>