<?xml version="1.0" encoding="iso-8859-1"?>
<!-- Generator: Adobe Illustrator 21.0.0, SVG Export Plug-In . SVG Version: 6.00 Build 0)  -->
<svg version="1.1" id="Capa_1" xmlns="http://www.w3.org/2000/svg" xmlns:xlink="http://www.w3.org/1999/xlink" x="0px" y="0px"
	 viewBox="0 0 278.08 104.91" style="enable-background:new 0 0 278.08 104.91;" xml:space="preserve">
<g>
	<path style="fill:#003D74;" d="M89.63,93.79h-4v-3.27h4.25v-1.12h-5.6v10.33h5.83v-1.12h-4.48V94.9h4V93.79L89.63,93.79z
		 M91.24,99.74h1.35V88.85h-1.35V99.74L91.24,99.74z M144.9,88.85v4.43h-0.03c-0.34-0.58-1.09-1.12-2.24-1.12
		c-1.79,0-3.34,1.5-3.33,3.97c0,2.25,1.4,3.77,3.19,3.77c1.21,0,2.1-0.63,2.5-1.46h0.05l0.06,1.29h1.2
		c-0.03-0.51-0.06-1.26-0.06-1.92v-8.97H144.9L144.9,88.85z M144.9,96.63c0,0.21-0.02,0.4-0.06,0.58c-0.25,1-1.07,1.61-1.98,1.61
		c-1.44,0-2.19-1.24-2.19-2.74c0-1.63,0.83-2.85,2.22-2.85c1.01,0,1.75,0.71,1.95,1.55c0.05,0.17,0.06,0.4,0.06,0.57V96.63
		L144.9,96.63z M153.9,96.28c0.03-0.15,0.05-0.35,0.05-0.63c0-1.36-0.63-3.48-3.07-3.48c-2.16,0-3.48,1.75-3.48,3.99
		s1.36,3.76,3.65,3.76c1.18,0,2.01-0.26,2.48-0.48l-0.25-0.97c-0.49,0.21-1.09,0.38-2.05,0.38c-1.36,0-2.51-0.75-2.55-2.58H153.9
		L153.9,96.28z M148.7,95.31c0.11-0.94,0.69-2.18,2.07-2.18c1.52,0,1.89,1.33,1.87,2.18H148.7L148.7,95.31z M158.31,99.74h1.35
		V88.85h-1.35V99.74L158.31,99.74z M164.51,92.17c-2.04,0-3.68,1.46-3.68,3.93c0,2.35,1.56,3.82,3.56,3.82c1.78,0,3.7-1.2,3.7-3.94
		C168.08,93.72,166.64,92.17,164.51,92.17L164.51,92.17z M164.48,93.18c1.59,0,2.22,1.58,2.22,2.84c0,1.67-0.97,2.88-2.25,2.88
		c-1.32,0-2.24-1.23-2.24-2.85C162.21,94.65,162.9,93.18,164.48,93.18L164.48,93.18z M168.72,99.39c0.52,0.31,1.27,0.52,2.09,0.52
		c1.73,0,2.76-0.92,2.76-2.24c0-1.1-0.67-1.75-1.95-2.22c-0.97-0.38-1.4-0.66-1.4-1.27c0-0.55,0.43-1.01,1.23-1.01
		c0.69,0,1.23,0.26,1.52,0.44l0.32-0.98c-0.4-0.26-1.06-0.46-1.81-0.46c-1.58,0-2.56,0.98-2.56,2.18c0,0.89,0.63,1.61,1.98,2.1
		c0.98,0.37,1.36,0.71,1.36,1.35c0,0.63-0.46,1.1-1.43,1.1c-0.67,0-1.38-0.28-1.79-0.52L168.72,99.39L168.72,99.39z M97.31,99.7
		c0.52,0.08,1.38,0.15,2.53,0.15c2.05,0,3.31-0.34,4.06-0.94c0.64-0.52,1.07-1.26,1.07-2.21c0-1.32-0.87-2.22-2.05-2.53v-0.03
		c1.17-0.44,1.7-1.29,1.7-2.19c0-0.95-0.51-1.66-1.23-2.04c-0.77-0.44-1.64-0.58-3.07-0.58c-1.18,0-2.41,0.11-3.02,0.21V99.7
		L97.31,99.7z M99.63,91.09c0.18-0.03,0.48-0.06,1-0.06c1.06,0,1.66,0.41,1.66,1.2c0,0.77-0.64,1.27-1.89,1.27h-0.77V91.09
		L99.63,91.09z M99.63,95.17h0.8c1.17,0,2.1,0.41,2.1,1.44c0,1.09-0.94,1.5-1.99,1.5c-0.4,0-0.67,0-0.9-0.03V95.17L99.63,95.17z
		 M112.25,95.31c0-1.78-0.78-3.25-3.28-3.25c-1.36,0-2.39,0.38-2.91,0.67l0.43,1.5c0.49-0.31,1.3-0.57,2.07-0.57
		c1.15,0,1.36,0.57,1.36,0.98v0.09c-2.65,0-4.4,0.92-4.4,2.87c0,1.2,0.9,2.3,2.42,2.3c0.89,0,1.66-0.32,2.15-0.92h0.05l0.14,0.75
		h2.1c-0.09-0.41-0.12-1.1-0.12-1.81V95.31L112.25,95.31z M110,97.01c0,0.14-0.02,0.28-0.05,0.4c-0.15,0.48-0.64,0.86-1.21,0.86
		c-0.52,0-0.92-0.29-0.92-0.89c0-0.89,0.95-1.18,2.18-1.18V97.01L110,97.01z M113.58,99.74h2.33v-4.32c0-0.21,0.02-0.43,0.08-0.58
		c0.17-0.43,0.55-0.87,1.2-0.87c0.84,0,1.18,0.66,1.18,1.63v4.16h2.33v-4.43c0-2.21-1.15-3.24-2.68-3.24
		c-1.26,0-2.01,0.72-2.32,1.21h-0.05l-0.11-1.04h-2.02c0.03,0.67,0.06,1.46,0.06,2.39V99.74L113.58,99.74z M127.38,97.82
		c-0.35,0.15-0.78,0.25-1.33,0.25c-1.13,0-2.05-0.74-2.05-2.1c-0.02-1.23,0.78-2.1,2.01-2.1c0.61,0,1.03,0.11,1.3,0.23l0.37-1.73
		c-0.49-0.18-1.17-0.29-1.78-0.29c-2.79,0-4.29,1.79-4.29,3.99c0,2.35,1.55,3.83,3.97,3.83c0.89,0,1.67-0.15,2.09-0.35L127.38,97.82
		L127.38,97.82z M131.83,92.06c-2.42,0-4.02,1.55-4.02,3.99c0,2.42,1.69,3.86,3.88,3.86c2.01,0,3.96-1.26,3.96-4
		C135.65,93.64,134.12,92.06,131.83,92.06L131.83,92.06z M131.76,93.73c1.06,0,1.49,1.13,1.49,2.24c0,1.36-0.57,2.27-1.49,2.27
		c-1,0-1.53-0.97-1.53-2.25C130.22,94.88,130.65,93.73,131.76,93.73L131.76,93.73z M177.76,99.7c0.52,0.08,1.38,0.15,2.53,0.15
		c2.05,0,3.31-0.34,4.06-0.94c0.64-0.52,1.07-1.26,1.07-2.21c0-1.32-0.87-2.22-2.05-2.53v-0.03c1.17-0.44,1.7-1.29,1.7-2.19
		c0-0.95-0.51-1.66-1.23-2.04c-0.77-0.44-1.64-0.58-3.07-0.58c-1.18,0-2.41,0.11-3.02,0.21V99.7L177.76,99.7z M180.07,91.09
		c0.18-0.03,0.48-0.06,1-0.06c1.06,0,1.66,0.41,1.66,1.2c0,0.77-0.64,1.27-1.89,1.27h-0.77V91.09L180.07,91.09z M180.07,95.17h0.8
		c1.17,0,2.1,0.41,2.1,1.44c0,1.09-0.94,1.5-1.99,1.5c-0.4,0-0.67,0-0.9-0.03V95.17L180.07,95.17z M190,92.06
		c-2.42,0-4.02,1.55-4.02,3.99c0,2.42,1.69,3.86,3.88,3.86c2.01,0,3.96-1.26,3.96-4C193.82,93.64,192.28,92.06,190,92.06L190,92.06z
		 M189.92,93.73c1.06,0,1.49,1.13,1.49,2.24c0,1.36-0.57,2.27-1.49,2.27c-1,0-1.53-0.97-1.53-2.25
		C188.39,94.88,188.82,93.73,189.92,93.73L189.92,93.73z M194.73,99.74h2.33v-10.9h-2.33V99.74L194.73,99.74z M200.74,99.74v-7.5
		h-2.33v7.5H200.74L200.74,99.74z M199.59,88.99c-0.75,0-1.24,0.51-1.24,1.17c0,0.64,0.48,1.17,1.21,1.17
		c0.78,0,1.26-0.52,1.26-1.17C200.8,89.5,200.34,88.99,199.59,88.99L199.59,88.99z M201.28,92.24l2.73,7.5h2.33l2.79-7.5h-2.45
		l-0.97,3.48c-0.17,0.64-0.29,1.21-0.41,1.82h-0.05c-0.12-0.6-0.25-1.18-0.43-1.82l-1.01-3.48H201.28L201.28,92.24z M212.01,99.74
		v-7.5h-2.33v7.5H212.01L212.01,99.74z M210.86,88.99c-0.75,0-1.24,0.51-1.24,1.17c0,0.64,0.48,1.17,1.21,1.17
		c0.78,0,1.26-0.52,1.26-1.17C212.07,89.5,211.61,88.99,210.86,88.99L210.86,88.99z M219.59,95.31c0-1.78-0.78-3.25-3.28-3.25
		c-1.36,0-2.39,0.38-2.91,0.67l0.43,1.5c0.49-0.31,1.3-0.57,2.07-0.57c1.15,0,1.36,0.57,1.36,0.98v0.09c-2.65,0-4.4,0.92-4.4,2.87
		c0,1.2,0.9,2.3,2.42,2.3c0.89,0,1.66-0.32,2.15-0.92h0.05l0.14,0.75h2.1c-0.09-0.41-0.12-1.1-0.12-1.81V95.31L219.59,95.31z
		 M217.33,97.01c0,0.14-0.02,0.28-0.05,0.4c-0.15,0.48-0.64,0.86-1.21,0.86c-0.52,0-0.92-0.29-0.92-0.89c0-0.89,0.95-1.18,2.18-1.18
		V97.01L217.33,97.01z M220.91,99.74h2.33v-4.32c0-0.21,0.02-0.43,0.08-0.58c0.17-0.43,0.55-0.87,1.2-0.87
		c0.84,0,1.18,0.66,1.18,1.63v4.16h2.33v-4.43c0-2.21-1.15-3.24-2.68-3.24c-1.26,0-2.01,0.72-2.32,1.21h-0.05l-0.11-1.04h-2.02
		c0.03,0.67,0.06,1.46,0.06,2.39V99.74L220.91,99.74z M232.95,92.06c-2.42,0-4.02,1.55-4.02,3.99c0,2.42,1.69,3.86,3.88,3.86
		c2.01,0,3.96-1.26,3.96-4C236.77,93.64,235.24,92.06,232.95,92.06L232.95,92.06z M232.87,93.73c1.06,0,1.49,1.13,1.49,2.24
		c0,1.36-0.57,2.27-1.49,2.27c-1,0-1.53-0.97-1.53-2.25C231.34,94.88,231.77,93.73,232.87,93.73L232.87,93.73z M237.25,99.37
		c0.57,0.31,1.44,0.54,2.42,0.54c2.15,0,3.24-1.03,3.24-2.44c-0.02-1.09-0.6-1.82-2.02-2.32c-0.92-0.32-1.21-0.51-1.21-0.87
		c0-0.37,0.32-0.6,0.89-0.6c0.63,0,1.29,0.25,1.63,0.43l0.4-1.61c-0.46-0.23-1.23-0.44-2.1-0.44c-1.86,0-3.05,1.06-3.05,2.47
		c-0.02,0.89,0.58,1.73,2.15,2.25c0.86,0.29,1.09,0.48,1.09,0.87c0,0.38-0.29,0.61-1,0.61c-0.69,0-1.58-0.29-2.01-0.55L237.25,99.37
		L237.25,99.37z"/>
	<path style="fill:#FFD800;" d="M26.56,28.57c0,0.15,0,0.29,0,0.44c-4.57-1.48-9.45-2.28-14.52-2.28c-2.39,0-4.75,0.18-7.05,0.52V5
		h28.88C29.27,11.7,26.56,19.82,26.56,28.57L26.56,28.57z"/>
	<path style="fill:#D13645;" d="M37.56,56.75c-8.02,5.03-14.63,12.1-19.09,20.49H5V27.25c2.3-0.34,4.66-0.52,7.05-0.52
		c5.07,0,9.95,0.8,14.52,2.28C26.68,39.71,30.82,49.44,37.56,56.75L37.56,56.75z"/>
	<path style="fill:#005AA0;" d="M52.79,50.2c-5.46,1.4-10.58,3.63-15.23,6.55c-6.74-7.31-10.88-17.05-10.99-27.74
		C37.7,32.61,47.02,40.25,52.79,50.2L52.79,50.2z"/>
	<path style="fill:#EE7203;" d="M59.13,73.81c0,1.16-0.04,2.3-0.12,3.44H18.47c4.46-8.39,11.07-15.46,19.09-20.49
		c5.6,6.09,12.99,10.5,21.34,12.4C59.05,70.68,59.13,72.24,59.13,73.81L59.13,73.81z"/>
	<path style="fill:#003D74;" d="M58.9,69.15c-8.35-1.9-15.74-6.31-21.34-12.4c4.65-2.92,9.77-5.15,15.23-6.55
		C56.09,55.87,58.23,62.3,58.9,69.15L58.9,69.15z"/>
	<path style="fill:#005C28;" d="M77.24,49.61V69.2c-2.91,0.65-5.95,0.99-9.06,0.99c-3.19,0-6.3-0.36-9.28-1.04
		c-0.67-6.86-2.81-13.28-6.11-18.95c4.32-1.11,8.84-1.7,13.5-1.7C70.04,48.5,73.7,48.88,77.24,49.61L77.24,49.61z"/>
	<path style="fill:#009DDD;" d="M77.24,5v44.61c-3.54-0.73-7.2-1.11-10.95-1.11c-4.66,0-9.19,0.59-13.5,1.7
		c-5.78-9.95-15.09-17.59-26.22-21.19c0-0.15,0-0.29,0-0.44c0-8.75,2.7-16.87,7.32-23.57H77.24L77.24,5z"/>
	<path style="fill:#FFD800;" d="M77.24,69.2v8.05H59.01c0.08-1.13,0.12-2.28,0.12-3.44c0-1.57-0.08-3.12-0.23-4.66
		c2.98,0.68,6.09,1.04,9.28,1.04C71.29,70.19,74.33,69.85,77.24,69.2L77.24,69.2z"/>
	<path style="fill:#003D74;" d="M171.09,5.15v20.1L162.74,9.3c0,0-1.7-4.18-5.74-4.18h-8.33v28.34
		c-4.06-6.88-10.52-17.87-12.38-21.33c-2.79-5.16-2.96-7.01-12.17-7.01h-6.01l0.02,33.87h6.75V13.02l8.26,13.48h-4.69v5.71h0.03
		h7.09l3.52,6.78h17.44V18.26l8.9,15.55c2.03,3.32,4.73,5.11,8.52,5.11H179V5.1L171.09,5.15L171.09,5.15z"/>
	<path style="fill:#003D74;" d="M230.2,5.17h-5.02c-6.7,0-12.18,5.34-12.18,11.88V27.2c0,6.53,5.48,11.88,12.18,11.88h5.02
		c6.7,0,12.18-5.34,12.18-11.88V17.05C242.38,10.51,236.9,5.17,230.2,5.17L230.2,5.17z M232.37,27.88c0,2.24-1.88,4.07-4.17,4.07
		h-1.01c-2.3,0-4.17-1.83-4.17-4.07V16.37c0-2.24,1.87-4.07,4.17-4.07h1.01c2.29,0,4.17,1.83,4.17,4.07V27.88L232.37,27.88z"/>
	<path style="fill:#003D74;" d="M193.65,38.99h4.09h0.6h12.36v-6.75h-12.96h-1.65h-0.29h-0.05c-2.51-0.03-4.56-2.04-4.56-4.5V16.37
		c0-2.48,2.08-4.51,4.61-4.51h0.29c2.54,0,4.61,2.03,4.61,4.51v4.85h9.92v-4.11c0-6.59-5.52-11.99-12.28-11.99h-4.7
		c-6.75,0-12.28,5.4-12.28,11.99V27C181.37,33.59,186.9,38.99,193.65,38.99L193.65,38.99z"/>
	<path style="fill:#003D74;" d="M107.78,18.98c1.8-1.45,2.93-3.58,2.93-5.96c0-4.27-3.66-7.75-8.23-7.88h-7.73h-0.97h-9.46v33.85
		h11.18V10.92h3.86c1.73,0,3.14,1.46,3.14,3.24c0,1.97-1.57,2.92-3.49,2.92l-1.24,0v6.11h4.51c2.49,0,4.51,2.02,4.51,4.51
		c0,2.49-2.02,4.51-4.51,4.51h-4.51v6.78h6.84v-0.02c0.06,0,0.13,0,0.2,0c6.07,0,10.98-4.56,10.98-10.19
		C115.8,24.11,112.41,20.18,107.78,18.98L107.78,18.98z"/>
	<path style="fill:#003D74;" d="M247.51,74.78c0.67,0.34,1.69,0.68,2.76,0.68c1.15,0,1.75-0.47,1.75-1.19
		c0-0.69-0.52-1.08-1.85-1.55c-1.83-0.64-3.02-1.65-3.02-3.25c0-1.88,1.57-3.31,4.16-3.31c1.24,0,2.16,0.26,2.81,0.56l-0.55,2.01
		c-0.44-0.21-1.23-0.52-2.3-0.52c-1.08,0-1.6,0.49-1.6,1.06c0,0.7,0.62,1.01,2.04,1.55c1.95,0.72,2.86,1.73,2.86,3.28
		c0,1.84-1.42,3.41-4.44,3.41c-1.26,0-2.5-0.33-3.12-0.67L247.51,74.78L247.51,74.78z"/>
	<path style="fill:#003D74;" d="M255.72,76.02c0-0.88,0.6-1.52,1.47-1.52c0.86,0,1.45,0.62,1.45,1.52c0,0.87-0.59,1.5-1.47,1.5
		C256.32,77.52,255.72,76.89,255.72,76.02L255.72,76.02z"/>
	<path style="fill:#003D74;" d="M262.53,74.52l-0.78,2.82h-2.58l3.36-11h3.26l3.41,11h-2.68l-0.85-2.82H262.53L262.53,74.52z
		 M265.32,72.66l-0.69-2.34c-0.2-0.65-0.39-1.47-0.56-2.12h-0.03c-0.17,0.65-0.32,1.49-0.51,2.12l-0.65,2.34H265.32L265.32,72.66z"
		/>
	<path style="fill:#003D74;" d="M270.16,76.02c0-0.88,0.61-1.52,1.47-1.52c0.87,0,1.45,0.62,1.45,1.52c0,0.87-0.59,1.5-1.47,1.5
		C270.76,77.52,270.16,76.89,270.16,76.02L270.16,76.02z"/>
	<path style="fill:#003D74;" d="M104.67,70.69h-4.94c-2.29,0-4.16-2.24-4.16-4.49V43.58H84.33v21.93c0,6.58,5.47,11.96,12.15,11.96
		h17.17V43.58h-8.98V70.69L104.67,70.69z"/>
	<path style="fill:#003D74;" d="M143.03,63.76l-9.41-15.9c0,0-2.3-4.29-6.94-4.29l-8.51-0.02v33.93h9.05V57.15l9.14,15.22
		c2.33,3.32,5.43,5.11,9.78,5.11h5.91V43.58h-9.03V63.76L143.03,63.76z"/>
	<path style="fill:#003D74;" d="M192.22,43.5h-5.8c-7.74,0-14.07,5.37-14.07,11.94v10.2c0,6.56,6.33,11.93,14.07,11.93h5.8
		c7.74,0,14.07-5.37,14.07-11.93v-10.2C206.29,48.87,199.96,43.5,192.22,43.5L192.22,43.5z M194.72,66.32
		c0,2.25-2.17,4.09-4.82,4.09h-1.17c-2.65,0-4.82-1.84-4.82-4.09V54.75c0-2.25,2.17-4.09,4.82-4.09h1.17c2.65,0,4.82,1.84,4.82,4.09
		V66.32L194.72,66.32z"/>
	<polygon style="fill:#003D74;" points="156.59,77.47 167.79,77.47 167.79,43.58 156.59,43.58 156.59,77.47 	"/>
	<path style="fill:#003D74;" d="M233.33,63.78l-9.41-15.9c0,0-2.3-4.29-6.93-4.29l-8.51-0.03V77.5h9.05V57.17l9.14,15.22
		c2.33,3.32,5.43,5.11,9.79,5.11h5.91V43.61h-9.03V63.78L233.33,63.78z"/>
</g>
</svg>
